G04 #@! TF.GenerationSoftware,KiCad,Pcbnew,(5.0.2)-1*
G04 #@! TF.CreationDate,2019-04-02T23:20:26+04:00*
G04 #@! TF.ProjectId,M644_breakout_v1.2d,4d363434-5f62-4726-9561-6b6f75745f76,v1.2d*
G04 #@! TF.SameCoordinates,Original*
G04 #@! TF.FileFunction,Legend,Bot*
G04 #@! TF.FilePolarity,Positive*
%FSLAX46Y46*%
G04 Gerber Fmt 4.6, Leading zero omitted, Abs format (unit mm)*
G04 Created by KiCad (PCBNEW (5.0.2)-1) date 02/04/2019 23:20:26*
%MOMM*%
%LPD*%
G01*
G04 APERTURE LIST*
%ADD10C,0.406400*%
%ADD11C,0.101600*%
%ADD12C,0.100000*%
%ADD13C,0.254000*%
%ADD14C,0.203200*%
%ADD15C,0.050800*%
%ADD16C,0.152400*%
%ADD17C,0.200000*%
G04 APERTURE END LIST*
D10*
X148495200Y-100109700D02*
G75*
G03X148495200Y-100109700I-425900J0D01*
G01*
D11*
G04 #@! TO.C,D3*
X163406100Y-126883600D02*
X167886100Y-126883600D01*
X167886100Y-123043600D02*
X163406100Y-123043600D01*
D12*
G04 #@! TO.C,D1*
G36*
X162124100Y-119753600D02*
X162124100Y-120053600D01*
X160024100Y-120053600D01*
X160024100Y-119753600D01*
X162124100Y-119753600D01*
G37*
D13*
X161774100Y-121203600D02*
X161074100Y-119953600D01*
X160374100Y-121203600D02*
X161774100Y-121203600D01*
X161074100Y-119953600D02*
X160374100Y-121203600D01*
D12*
G04 #@! TO.C,D2*
G36*
X167173100Y-119536600D02*
X166873100Y-119536600D01*
X166873100Y-117436600D01*
X167173100Y-117436600D01*
X167173100Y-119536600D01*
G37*
D13*
X165723100Y-119186600D02*
X166973100Y-118486600D01*
X165723100Y-117786600D02*
X165723100Y-119186600D01*
X166973100Y-118486600D02*
X165723100Y-117786600D01*
D12*
G04 #@! TO.C,D4*
G36*
X169363100Y-112387600D02*
X169363100Y-112687600D01*
X167263100Y-112687600D01*
X167263100Y-112387600D01*
X169363100Y-112387600D01*
G37*
D13*
X169013100Y-113837600D02*
X168313100Y-112587600D01*
X167613100Y-113837600D02*
X169013100Y-113837600D01*
X168313100Y-112587600D02*
X167613100Y-113837600D01*
D11*
G04 #@! TO.C,L2*
X131985100Y-105532600D02*
X131985100Y-107056600D01*
X130206100Y-105532600D02*
X130206100Y-107056600D01*
D13*
G04 #@! TO.C,IC1*
X147068800Y-101913600D02*
G75*
G03X147068800Y-101913600I-282700J0D01*
G01*
D14*
X147586100Y-110313600D02*
X147586100Y-101513600D01*
X147186100Y-110713600D02*
X147586100Y-110313600D01*
X138386100Y-110713600D02*
X147186100Y-110713600D01*
X137986100Y-110313600D02*
X138386100Y-110713600D01*
X137986100Y-101513600D02*
X137986100Y-110313600D01*
X138386100Y-101113600D02*
X137986100Y-101513600D01*
X147186100Y-101113600D02*
X138386100Y-101113600D01*
X147586100Y-101513600D02*
X147186100Y-101113600D01*
D15*
G04 #@! TO.C,Q1*
X154978100Y-111882600D02*
G75*
G03X158534100Y-111882600I1778000J0D01*
G01*
D16*
X154470100Y-111882600D02*
G75*
G03X159042100Y-111882600I2286000J0D01*
G01*
X154470100Y-105024600D02*
G75*
G02X159042100Y-105024600I2286000J0D01*
G01*
D15*
X154978100Y-105024600D02*
G75*
G02X158534100Y-105024600I1778000J0D01*
G01*
X158534100Y-105024600D02*
X158534100Y-111882600D01*
X154978100Y-111882600D02*
X154978100Y-105024600D01*
D16*
X159042100Y-105024600D02*
X159042100Y-111882600D01*
X154470100Y-111882600D02*
X154470100Y-105024600D01*
G04 #@! TD*
G04 #@! TO.C,D3*
D17*
X170638385Y-125609047D02*
X170638385Y-124402547D01*
X170351123Y-124402547D01*
X170178766Y-124460000D01*
X170063861Y-124574904D01*
X170006409Y-124689809D01*
X169948957Y-124919619D01*
X169948957Y-125091976D01*
X170006409Y-125321785D01*
X170063861Y-125436690D01*
X170178766Y-125551595D01*
X170351123Y-125609047D01*
X170638385Y-125609047D01*
X169546790Y-124402547D02*
X168799909Y-124402547D01*
X169202076Y-124862166D01*
X169029719Y-124862166D01*
X168914814Y-124919619D01*
X168857361Y-124977071D01*
X168799909Y-125091976D01*
X168799909Y-125379238D01*
X168857361Y-125494142D01*
X168914814Y-125551595D01*
X169029719Y-125609047D01*
X169374433Y-125609047D01*
X169489338Y-125551595D01*
X169546790Y-125494142D01*
G04 #@! TO.C,D1*
X161804047Y-124801714D02*
X160597547Y-124801714D01*
X160597547Y-125088976D01*
X160655000Y-125261333D01*
X160769904Y-125376238D01*
X160884809Y-125433690D01*
X161114619Y-125491142D01*
X161286976Y-125491142D01*
X161516785Y-125433690D01*
X161631690Y-125376238D01*
X161746595Y-125261333D01*
X161804047Y-125088976D01*
X161804047Y-124801714D01*
X161804047Y-126640190D02*
X161804047Y-125950761D01*
X161804047Y-126295476D02*
X160597547Y-126295476D01*
X160769904Y-126180571D01*
X160884809Y-126065666D01*
X160942261Y-125950761D01*
G04 #@! TO.C,D2*
X165952738Y-116782547D02*
X165952738Y-115576047D01*
X165665476Y-115576047D01*
X165493119Y-115633500D01*
X165378214Y-115748404D01*
X165320761Y-115863309D01*
X165263309Y-116093119D01*
X165263309Y-116265476D01*
X165320761Y-116495285D01*
X165378214Y-116610190D01*
X165493119Y-116725095D01*
X165665476Y-116782547D01*
X165952738Y-116782547D01*
X164803690Y-115690952D02*
X164746238Y-115633500D01*
X164631333Y-115576047D01*
X164344071Y-115576047D01*
X164229166Y-115633500D01*
X164171714Y-115690952D01*
X164114261Y-115805857D01*
X164114261Y-115920761D01*
X164171714Y-116093119D01*
X164861142Y-116782547D01*
X164114261Y-116782547D01*
G04 #@! TO.C,D4*
X166884047Y-112101714D02*
X165677547Y-112101714D01*
X165677547Y-112388976D01*
X165735000Y-112561333D01*
X165849904Y-112676238D01*
X165964809Y-112733690D01*
X166194619Y-112791142D01*
X166366976Y-112791142D01*
X166596785Y-112733690D01*
X166711690Y-112676238D01*
X166826595Y-112561333D01*
X166884047Y-112388976D01*
X166884047Y-112101714D01*
X166079714Y-113825285D02*
X166884047Y-113825285D01*
X165620095Y-113538023D02*
X166481880Y-113250761D01*
X166481880Y-113997642D01*
G04 #@! TO.C,C12*
X165263309Y-110952642D02*
X165320761Y-111010095D01*
X165493119Y-111067547D01*
X165608023Y-111067547D01*
X165780380Y-111010095D01*
X165895285Y-110895190D01*
X165952738Y-110780285D01*
X166010190Y-110550476D01*
X166010190Y-110378119D01*
X165952738Y-110148309D01*
X165895285Y-110033404D01*
X165780380Y-109918500D01*
X165608023Y-109861047D01*
X165493119Y-109861047D01*
X165320761Y-109918500D01*
X165263309Y-109975952D01*
X164114261Y-111067547D02*
X164803690Y-111067547D01*
X164458976Y-111067547D02*
X164458976Y-109861047D01*
X164573880Y-110033404D01*
X164688785Y-110148309D01*
X164803690Y-110205761D01*
X163654642Y-109975952D02*
X163597190Y-109918500D01*
X163482285Y-109861047D01*
X163195023Y-109861047D01*
X163080119Y-109918500D01*
X163022666Y-109975952D01*
X162965214Y-110090857D01*
X162965214Y-110205761D01*
X163022666Y-110378119D01*
X163712095Y-111067547D01*
X162965214Y-111067547D01*
G04 #@! TO.C,L2*
X130054047Y-103381047D02*
X130054047Y-102806523D01*
X128847547Y-102806523D01*
X128962452Y-103725761D02*
X128905000Y-103783214D01*
X128847547Y-103898119D01*
X128847547Y-104185380D01*
X128905000Y-104300285D01*
X128962452Y-104357738D01*
X129077357Y-104415190D01*
X129192261Y-104415190D01*
X129364619Y-104357738D01*
X130054047Y-103668309D01*
X130054047Y-104415190D01*
G04 #@! TO.C,IC1*
X147422833Y-98848166D02*
X147422833Y-97159066D01*
X145653300Y-98687300D02*
X145733733Y-98767733D01*
X145975033Y-98848166D01*
X146135900Y-98848166D01*
X146377200Y-98767733D01*
X146538066Y-98606866D01*
X146618500Y-98446000D01*
X146698933Y-98124266D01*
X146698933Y-97882966D01*
X146618500Y-97561233D01*
X146538066Y-97400366D01*
X146377200Y-97239500D01*
X146135900Y-97159066D01*
X145975033Y-97159066D01*
X145733733Y-97239500D01*
X145653300Y-97319933D01*
X144044633Y-98848166D02*
X145009833Y-98848166D01*
X144527233Y-98848166D02*
X144527233Y-97159066D01*
X144688100Y-97400366D01*
X144848966Y-97561233D01*
X145009833Y-97641666D01*
G04 #@! TO.C,R2*
X159899047Y-97551142D02*
X159324523Y-97148976D01*
X159899047Y-96861714D02*
X158692547Y-96861714D01*
X158692547Y-97321333D01*
X158750000Y-97436238D01*
X158807452Y-97493690D01*
X158922357Y-97551142D01*
X159094714Y-97551142D01*
X159209619Y-97493690D01*
X159267071Y-97436238D01*
X159324523Y-97321333D01*
X159324523Y-96861714D01*
X158807452Y-98010761D02*
X158750000Y-98068214D01*
X158692547Y-98183119D01*
X158692547Y-98470380D01*
X158750000Y-98585285D01*
X158807452Y-98642738D01*
X158922357Y-98700190D01*
X159037261Y-98700190D01*
X159209619Y-98642738D01*
X159899047Y-97953309D01*
X159899047Y-98700190D01*
G04 #@! TO.C,R1*
X131608309Y-117417547D02*
X132010476Y-116843023D01*
X132297738Y-117417547D02*
X132297738Y-116211047D01*
X131838119Y-116211047D01*
X131723214Y-116268500D01*
X131665761Y-116325952D01*
X131608309Y-116440857D01*
X131608309Y-116613214D01*
X131665761Y-116728119D01*
X131723214Y-116785571D01*
X131838119Y-116843023D01*
X132297738Y-116843023D01*
X130459261Y-117417547D02*
X131148690Y-117417547D01*
X130803976Y-117417547D02*
X130803976Y-116211047D01*
X130918880Y-116383404D01*
X131033785Y-116498309D01*
X131148690Y-116555761D01*
G04 #@! TO.C,R9*
X151072547Y-112866690D02*
X150498023Y-112464523D01*
X151072547Y-112177261D02*
X149866047Y-112177261D01*
X149866047Y-112636880D01*
X149923500Y-112751785D01*
X149980952Y-112809238D01*
X150095857Y-112866690D01*
X150268214Y-112866690D01*
X150383119Y-112809238D01*
X150440571Y-112751785D01*
X150498023Y-112636880D01*
X150498023Y-112177261D01*
X151072547Y-113441214D02*
X151072547Y-113671023D01*
X151015095Y-113785928D01*
X150957642Y-113843380D01*
X150785285Y-113958285D01*
X150555476Y-114015738D01*
X150095857Y-114015738D01*
X149980952Y-113958285D01*
X149923500Y-113900833D01*
X149866047Y-113785928D01*
X149866047Y-113556119D01*
X149923500Y-113441214D01*
X149980952Y-113383761D01*
X150095857Y-113326309D01*
X150383119Y-113326309D01*
X150498023Y-113383761D01*
X150555476Y-113441214D01*
X150612928Y-113556119D01*
X150612928Y-113785928D01*
X150555476Y-113900833D01*
X150498023Y-113958285D01*
X150383119Y-114015738D01*
G04 #@! TO.C,R10*
X157643309Y-123767547D02*
X158045476Y-123193023D01*
X158332738Y-123767547D02*
X158332738Y-122561047D01*
X157873119Y-122561047D01*
X157758214Y-122618500D01*
X157700761Y-122675952D01*
X157643309Y-122790857D01*
X157643309Y-122963214D01*
X157700761Y-123078119D01*
X157758214Y-123135571D01*
X157873119Y-123193023D01*
X158332738Y-123193023D01*
X156494261Y-123767547D02*
X157183690Y-123767547D01*
X156838976Y-123767547D02*
X156838976Y-122561047D01*
X156953880Y-122733404D01*
X157068785Y-122848309D01*
X157183690Y-122905761D01*
X155747380Y-122561047D02*
X155632476Y-122561047D01*
X155517571Y-122618500D01*
X155460119Y-122675952D01*
X155402666Y-122790857D01*
X155345214Y-123020666D01*
X155345214Y-123307928D01*
X155402666Y-123537738D01*
X155460119Y-123652642D01*
X155517571Y-123710095D01*
X155632476Y-123767547D01*
X155747380Y-123767547D01*
X155862285Y-123710095D01*
X155919738Y-123652642D01*
X155977190Y-123537738D01*
X156034642Y-123307928D01*
X156034642Y-123020666D01*
X155977190Y-122790857D01*
X155919738Y-122675952D01*
X155862285Y-122618500D01*
X155747380Y-122561047D01*
G04 #@! TO.C,Q1*
X153727452Y-111076595D02*
X153670000Y-110961690D01*
X153555095Y-110846785D01*
X153382738Y-110674428D01*
X153325285Y-110559523D01*
X153325285Y-110444619D01*
X153612547Y-110502071D02*
X153555095Y-110387166D01*
X153440190Y-110272261D01*
X153210380Y-110214809D01*
X152808214Y-110214809D01*
X152578404Y-110272261D01*
X152463500Y-110387166D01*
X152406047Y-110502071D01*
X152406047Y-110731880D01*
X152463500Y-110846785D01*
X152578404Y-110961690D01*
X152808214Y-111019142D01*
X153210380Y-111019142D01*
X153440190Y-110961690D01*
X153555095Y-110846785D01*
X153612547Y-110731880D01*
X153612547Y-110502071D01*
X153612547Y-112168190D02*
X153612547Y-111478761D01*
X153612547Y-111823476D02*
X152406047Y-111823476D01*
X152578404Y-111708571D01*
X152693309Y-111593666D01*
X152750761Y-111478761D01*
G04 #@! TO.C,C2*
X160482642Y-112866690D02*
X160540095Y-112809238D01*
X160597547Y-112636880D01*
X160597547Y-112521976D01*
X160540095Y-112349619D01*
X160425190Y-112234714D01*
X160310285Y-112177261D01*
X160080476Y-112119809D01*
X159908119Y-112119809D01*
X159678309Y-112177261D01*
X159563404Y-112234714D01*
X159448500Y-112349619D01*
X159391047Y-112521976D01*
X159391047Y-112636880D01*
X159448500Y-112809238D01*
X159505952Y-112866690D01*
X159505952Y-113326309D02*
X159448500Y-113383761D01*
X159391047Y-113498666D01*
X159391047Y-113785928D01*
X159448500Y-113900833D01*
X159505952Y-113958285D01*
X159620857Y-114015738D01*
X159735761Y-114015738D01*
X159908119Y-113958285D01*
X160597547Y-113268857D01*
X160597547Y-114015738D01*
G04 #@! TO.C,C1*
X153434142Y-103901142D02*
X153491595Y-103843690D01*
X153549047Y-103671333D01*
X153549047Y-103556428D01*
X153491595Y-103384071D01*
X153376690Y-103269166D01*
X153261785Y-103211714D01*
X153031976Y-103154261D01*
X152859619Y-103154261D01*
X152629809Y-103211714D01*
X152514904Y-103269166D01*
X152400000Y-103384071D01*
X152342547Y-103556428D01*
X152342547Y-103671333D01*
X152400000Y-103843690D01*
X152457452Y-103901142D01*
X153549047Y-105050190D02*
X153549047Y-104360761D01*
X153549047Y-104705476D02*
X152342547Y-104705476D01*
X152514904Y-104590571D01*
X152629809Y-104475666D01*
X152687261Y-104360761D01*
G04 #@! TO.C,C7*
X160482642Y-107151690D02*
X160540095Y-107094238D01*
X160597547Y-106921880D01*
X160597547Y-106806976D01*
X160540095Y-106634619D01*
X160425190Y-106519714D01*
X160310285Y-106462261D01*
X160080476Y-106404809D01*
X159908119Y-106404809D01*
X159678309Y-106462261D01*
X159563404Y-106519714D01*
X159448500Y-106634619D01*
X159391047Y-106806976D01*
X159391047Y-106921880D01*
X159448500Y-107094238D01*
X159505952Y-107151690D01*
X159391047Y-107553857D02*
X159391047Y-108358190D01*
X160597547Y-107841119D01*
G04 #@! TO.C,C3*
X132887357Y-101763309D02*
X132829904Y-101820761D01*
X132772452Y-101993119D01*
X132772452Y-102108023D01*
X132829904Y-102280380D01*
X132944809Y-102395285D01*
X133059714Y-102452738D01*
X133289523Y-102510190D01*
X133461880Y-102510190D01*
X133691690Y-102452738D01*
X133806595Y-102395285D01*
X133921500Y-102280380D01*
X133978952Y-102108023D01*
X133978952Y-101993119D01*
X133921500Y-101820761D01*
X133864047Y-101763309D01*
X133978952Y-101361142D02*
X133978952Y-100614261D01*
X133519333Y-101016428D01*
X133519333Y-100844071D01*
X133461880Y-100729166D01*
X133404428Y-100671714D01*
X133289523Y-100614261D01*
X133002261Y-100614261D01*
X132887357Y-100671714D01*
X132829904Y-100729166D01*
X132772452Y-100844071D01*
X132772452Y-101188785D01*
X132829904Y-101303690D01*
X132887357Y-101361142D01*
G04 #@! TO.C,C5*
X174158571Y-112858571D02*
X174215714Y-112915714D01*
X174387142Y-112972857D01*
X174501428Y-112972857D01*
X174672857Y-112915714D01*
X174787142Y-112801428D01*
X174844285Y-112687142D01*
X174901428Y-112458571D01*
X174901428Y-112287142D01*
X174844285Y-112058571D01*
X174787142Y-111944285D01*
X174672857Y-111830000D01*
X174501428Y-111772857D01*
X174387142Y-111772857D01*
X174215714Y-111830000D01*
X174158571Y-111887142D01*
X173072857Y-111772857D02*
X173644285Y-111772857D01*
X173701428Y-112344285D01*
X173644285Y-112287142D01*
X173530000Y-112230000D01*
X173244285Y-112230000D01*
X173130000Y-112287142D01*
X173072857Y-112344285D01*
X173015714Y-112458571D01*
X173015714Y-112744285D01*
X173072857Y-112858571D01*
X173130000Y-112915714D01*
X173244285Y-112972857D01*
X173530000Y-112972857D01*
X173644285Y-112915714D01*
X173701428Y-112858571D01*
G04 #@! TO.C,C8*
X133114142Y-107711142D02*
X133171595Y-107653690D01*
X133229047Y-107481333D01*
X133229047Y-107366428D01*
X133171595Y-107194071D01*
X133056690Y-107079166D01*
X132941785Y-107021714D01*
X132711976Y-106964261D01*
X132539619Y-106964261D01*
X132309809Y-107021714D01*
X132194904Y-107079166D01*
X132080000Y-107194071D01*
X132022547Y-107366428D01*
X132022547Y-107481333D01*
X132080000Y-107653690D01*
X132137452Y-107711142D01*
X132539619Y-108400571D02*
X132482166Y-108285666D01*
X132424714Y-108228214D01*
X132309809Y-108170761D01*
X132252357Y-108170761D01*
X132137452Y-108228214D01*
X132080000Y-108285666D01*
X132022547Y-108400571D01*
X132022547Y-108630380D01*
X132080000Y-108745285D01*
X132137452Y-108802738D01*
X132252357Y-108860190D01*
X132309809Y-108860190D01*
X132424714Y-108802738D01*
X132482166Y-108745285D01*
X132539619Y-108630380D01*
X132539619Y-108400571D01*
X132597071Y-108285666D01*
X132654523Y-108228214D01*
X132769428Y-108170761D01*
X132999238Y-108170761D01*
X133114142Y-108228214D01*
X133171595Y-108285666D01*
X133229047Y-108400571D01*
X133229047Y-108630380D01*
X133171595Y-108745285D01*
X133114142Y-108802738D01*
X132999238Y-108860190D01*
X132769428Y-108860190D01*
X132654523Y-108802738D01*
X132597071Y-108745285D01*
X132539619Y-108630380D01*
G04 #@! TO.C,C9*
X144607642Y-116041690D02*
X144665095Y-115984238D01*
X144722547Y-115811880D01*
X144722547Y-115696976D01*
X144665095Y-115524619D01*
X144550190Y-115409714D01*
X144435285Y-115352261D01*
X144205476Y-115294809D01*
X144033119Y-115294809D01*
X143803309Y-115352261D01*
X143688404Y-115409714D01*
X143573500Y-115524619D01*
X143516047Y-115696976D01*
X143516047Y-115811880D01*
X143573500Y-115984238D01*
X143630952Y-116041690D01*
X144722547Y-116616214D02*
X144722547Y-116846023D01*
X144665095Y-116960928D01*
X144607642Y-117018380D01*
X144435285Y-117133285D01*
X144205476Y-117190738D01*
X143745857Y-117190738D01*
X143630952Y-117133285D01*
X143573500Y-117075833D01*
X143516047Y-116960928D01*
X143516047Y-116731119D01*
X143573500Y-116616214D01*
X143630952Y-116558761D01*
X143745857Y-116501309D01*
X144033119Y-116501309D01*
X144148023Y-116558761D01*
X144205476Y-116616214D01*
X144262928Y-116731119D01*
X144262928Y-116960928D01*
X144205476Y-117075833D01*
X144148023Y-117133285D01*
X144033119Y-117190738D01*
G04 #@! TO.C,C10*
X141432642Y-95086690D02*
X141490095Y-95029238D01*
X141547547Y-94856880D01*
X141547547Y-94741976D01*
X141490095Y-94569619D01*
X141375190Y-94454714D01*
X141260285Y-94397261D01*
X141030476Y-94339809D01*
X140858119Y-94339809D01*
X140628309Y-94397261D01*
X140513404Y-94454714D01*
X140398500Y-94569619D01*
X140341047Y-94741976D01*
X140341047Y-94856880D01*
X140398500Y-95029238D01*
X140455952Y-95086690D01*
X141547547Y-96235738D02*
X141547547Y-95546309D01*
X141547547Y-95891023D02*
X140341047Y-95891023D01*
X140513404Y-95776119D01*
X140628309Y-95661214D01*
X140685761Y-95546309D01*
X140341047Y-96982619D02*
X140341047Y-97097523D01*
X140398500Y-97212428D01*
X140455952Y-97269880D01*
X140570857Y-97327333D01*
X140800666Y-97384785D01*
X141087928Y-97384785D01*
X141317738Y-97327333D01*
X141432642Y-97269880D01*
X141490095Y-97212428D01*
X141547547Y-97097523D01*
X141547547Y-96982619D01*
X141490095Y-96867714D01*
X141432642Y-96810261D01*
X141317738Y-96752809D01*
X141087928Y-96695357D01*
X140800666Y-96695357D01*
X140570857Y-96752809D01*
X140455952Y-96810261D01*
X140398500Y-96867714D01*
X140341047Y-96982619D01*
G04 #@! TO.C,C11*
X135372904Y-112159142D02*
X135430357Y-112216595D01*
X135602714Y-112274047D01*
X135717619Y-112274047D01*
X135889976Y-112216595D01*
X136004880Y-112101690D01*
X136062333Y-111986785D01*
X136119785Y-111756976D01*
X136119785Y-111584619D01*
X136062333Y-111354809D01*
X136004880Y-111239904D01*
X135889976Y-111125000D01*
X135717619Y-111067547D01*
X135602714Y-111067547D01*
X135430357Y-111125000D01*
X135372904Y-111182452D01*
X134223857Y-112274047D02*
X134913285Y-112274047D01*
X134568571Y-112274047D02*
X134568571Y-111067547D01*
X134683476Y-111239904D01*
X134798380Y-111354809D01*
X134913285Y-111412261D01*
X133074809Y-112274047D02*
X133764238Y-112274047D01*
X133419523Y-112274047D02*
X133419523Y-111067547D01*
X133534428Y-111239904D01*
X133649333Y-111354809D01*
X133764238Y-111412261D01*
G04 #@! TO.C,C4*
X174153309Y-107777642D02*
X174210761Y-107835095D01*
X174383119Y-107892547D01*
X174498023Y-107892547D01*
X174670380Y-107835095D01*
X174785285Y-107720190D01*
X174842738Y-107605285D01*
X174900190Y-107375476D01*
X174900190Y-107203119D01*
X174842738Y-106973309D01*
X174785285Y-106858404D01*
X174670380Y-106743500D01*
X174498023Y-106686047D01*
X174383119Y-106686047D01*
X174210761Y-106743500D01*
X174153309Y-106800952D01*
X173119166Y-107088214D02*
X173119166Y-107892547D01*
X173406428Y-106628595D02*
X173693690Y-107490380D01*
X172946809Y-107490380D01*
G04 #@! TO.C,C6*
X162117314Y-101001914D02*
X162163276Y-100955952D01*
X162209238Y-100818066D01*
X162209238Y-100726142D01*
X162163276Y-100588257D01*
X162071352Y-100496333D01*
X161979428Y-100450371D01*
X161795580Y-100404409D01*
X161657695Y-100404409D01*
X161473847Y-100450371D01*
X161381923Y-100496333D01*
X161290000Y-100588257D01*
X161244038Y-100726142D01*
X161244038Y-100818066D01*
X161290000Y-100955952D01*
X161335961Y-101001914D01*
X161244038Y-101829228D02*
X161244038Y-101645380D01*
X161290000Y-101553457D01*
X161335961Y-101507495D01*
X161473847Y-101415571D01*
X161657695Y-101369609D01*
X162025390Y-101369609D01*
X162117314Y-101415571D01*
X162163276Y-101461533D01*
X162209238Y-101553457D01*
X162209238Y-101737304D01*
X162163276Y-101829228D01*
X162117314Y-101875190D01*
X162025390Y-101921152D01*
X161795580Y-101921152D01*
X161703657Y-101875190D01*
X161657695Y-101829228D01*
X161611733Y-101737304D01*
X161611733Y-101553457D01*
X161657695Y-101461533D01*
X161703657Y-101415571D01*
X161795580Y-101369609D01*
G04 #@! TO.C,R7*
X149332647Y-119851690D02*
X148758123Y-119449523D01*
X149332647Y-119162261D02*
X148126147Y-119162261D01*
X148126147Y-119621880D01*
X148183600Y-119736785D01*
X148241052Y-119794238D01*
X148355957Y-119851690D01*
X148528314Y-119851690D01*
X148643219Y-119794238D01*
X148700671Y-119736785D01*
X148758123Y-119621880D01*
X148758123Y-119162261D01*
X148126147Y-120253857D02*
X148126147Y-121058190D01*
X149332647Y-120541119D01*
G04 #@! TO.C,R8*
X153726847Y-119851690D02*
X153152323Y-119449523D01*
X153726847Y-119162261D02*
X152520347Y-119162261D01*
X152520347Y-119621880D01*
X152577800Y-119736785D01*
X152635252Y-119794238D01*
X152750157Y-119851690D01*
X152922514Y-119851690D01*
X153037419Y-119794238D01*
X153094871Y-119736785D01*
X153152323Y-119621880D01*
X153152323Y-119162261D01*
X153037419Y-120541119D02*
X152979966Y-120426214D01*
X152922514Y-120368761D01*
X152807609Y-120311309D01*
X152750157Y-120311309D01*
X152635252Y-120368761D01*
X152577800Y-120426214D01*
X152520347Y-120541119D01*
X152520347Y-120770928D01*
X152577800Y-120885833D01*
X152635252Y-120943285D01*
X152750157Y-121000738D01*
X152807609Y-121000738D01*
X152922514Y-120943285D01*
X152979966Y-120885833D01*
X153037419Y-120770928D01*
X153037419Y-120541119D01*
X153094871Y-120426214D01*
X153152323Y-120368761D01*
X153267228Y-120311309D01*
X153497038Y-120311309D01*
X153611942Y-120368761D01*
X153669395Y-120426214D01*
X153726847Y-120541119D01*
X153726847Y-120770928D01*
X153669395Y-120885833D01*
X153611942Y-120943285D01*
X153497038Y-121000738D01*
X153267228Y-121000738D01*
X153152323Y-120943285D01*
X153094871Y-120885833D01*
X153037419Y-120770928D01*
G04 #@! TD*
M02*
