M48
;DRILL file {KiCad (5.0.2)-1} date 02/04/2019 23:22:12
;FORMAT={-:-/ absolute / metric / decimal}
FMAT,2
METRIC,TZ
T1C0.400
T2C0.600
T3C0.700
T4C0.813
T5C0.900
T6C0.914
T7C1.000
T8C1.016
T9C1.194
T10C3.200
%
G90
G05
T1
X122.466Y-95.754
X122.466Y-99.564
X122.466Y-103.374
X122.466Y-107.184
X122.466Y-112.264
X122.466Y-117.344
X125.006Y-93.214
X127.546Y-91.459
X129.578Y-121.408
X131.991Y-95.373
X132.626Y-84.324
X137.198Y-99.056
X138.976Y-84.324
X142.659Y-103.374
X142.659Y-105.914
X142.659Y-108.454
X145.326Y-103.374
X145.326Y-105.914
X145.326Y-108.454
X146.596Y-84.324
X148.501Y-112.264
X149.009Y-115.312
X154.089Y-104.263
X154.216Y-84.324
X154.978Y-107.819
X156.756Y-104.009
X156.883Y-88.769
X157.899Y-108.454
X159.296Y-116.074
X161.836Y-84.324
X161.836Y-113.534
X162.09Y-99.183
X162.471Y-116.074
X163.754Y-96.262
X164.376Y-113.534
X164.884Y-104.771
X165.646Y-85.594
X165.646Y-116.074
X165.646Y-119.884
X165.646Y-122.424
X168.186Y-108.454
X170.091Y-123.059
X170.091Y-124.964
X170.726Y-102.104
X174.536Y-107.184
T2
X133.896Y-102.485
X139.433Y-104.339
X139.484Y-107.057
X140.627Y-108.276
X150.533Y-99.691
X151.93Y-100.58
T3
X128.816Y-104.644
X141.516Y-119.249
X142.786Y-93.214
X162.154Y-100.834
X162.154Y-108.454
X166.916Y-95.754
X166.916Y-98.294
X166.916Y-100.834
X156.756Y-105.914
X156.756Y-110.994
T4
X128.816Y-109.724
X128.816Y-112.264
T5
X171.996Y-117.344
X171.996Y-119.884
X171.996Y-122.424
X171.996Y-124.964
X174.536Y-91.944
X174.536Y-94.484
X174.536Y-97.024
X174.536Y-99.564
X174.536Y-117.344
X174.536Y-119.884
X174.536Y-122.424
X174.536Y-124.964
X155.486Y-91.944
X152.946Y-122.424
X152.946Y-97.024
X171.996Y-94.484
X147.866Y-122.424
X150.406Y-94.484
X171.996Y-99.564
X127.546Y-117.344
X152.946Y-91.944
X169.456Y-94.484
X174.536Y-114.169
X155.486Y-94.484
X169.456Y-99.564
X150.406Y-97.024
X171.996Y-91.944
X150.406Y-122.424
X152.946Y-94.484
X171.996Y-97.024
X127.546Y-107.184
X150.406Y-91.944
X169.456Y-91.944
X171.996Y-114.169
X155.486Y-97.024
X169.456Y-97.024
T6
X161.836Y-89.404
X161.836Y-91.944
X161.836Y-94.484
X164.376Y-89.404
X164.376Y-91.944
X164.376Y-94.484
T7
X174.536Y-91.944
X174.536Y-94.484
X174.536Y-97.024
X174.536Y-99.564
X171.996Y-117.344
X171.996Y-119.884
X171.996Y-122.424
X171.996Y-124.964
X174.536Y-117.344
X174.536Y-119.884
X174.536Y-122.424
X174.536Y-124.964
T8
X125.006Y-97.024
X125.006Y-99.564
X125.006Y-102.104
X125.006Y-104.644
X125.006Y-107.184
X125.006Y-109.724
X125.006Y-112.264
X125.006Y-114.804
X125.006Y-117.344
X171.615Y-105.914
X171.615Y-108.454
X171.615Y-110.994
X130.086Y-124.964
X132.626Y-124.964
X135.166Y-124.964
X137.706Y-124.964
X140.246Y-124.964
X142.786Y-124.964
X145.326Y-124.964
X147.866Y-124.964
X150.406Y-124.964
X152.946Y-124.964
X155.486Y-124.964
X158.026Y-124.964
X130.086Y-86.864
X132.626Y-86.864
X135.166Y-86.864
X137.706Y-86.864
X140.246Y-86.864
X142.786Y-86.864
X145.326Y-86.864
X147.866Y-86.864
X150.406Y-86.864
T9
X163.146Y-122.424
X168.146Y-122.424
T10
X125.006Y-86.33
X125.006Y-123.694
X171.971Y-86.33
T0
M30
