G04 #@! TF.GenerationSoftware,KiCad,Pcbnew,(5.0.2)-1*
G04 #@! TF.CreationDate,2019-04-02T23:20:26+04:00*
G04 #@! TF.ProjectId,M644_breakout_v1.2d,4d363434-5f62-4726-9561-6b6f75745f76,v1.2d*
G04 #@! TF.SameCoordinates,Original*
G04 #@! TF.FileFunction,Legend,Top*
G04 #@! TF.FilePolarity,Positive*
%FSLAX46Y46*%
G04 Gerber Fmt 4.6, Leading zero omitted, Abs format (unit mm)*
G04 Created by KiCad (PCBNEW (5.0.2)-1) date 02/04/2019 23:20:26*
%MOMM*%
%LPD*%
G01*
G04 APERTURE LIST*
%ADD10C,0.609600*%
%ADD11C,0.406400*%
%ADD12C,0.320040*%
%ADD13C,0.256032*%
%ADD14C,0.213360*%
%ADD15C,0.100000*%
%ADD16C,0.076200*%
%ADD17C,0.152400*%
%ADD18C,0.127000*%
%ADD19C,0.050800*%
%ADD20C,0.254000*%
%ADD21C,0.120000*%
%ADD22C,0.200000*%
%ADD23C,0.300000*%
G04 APERTURE END LIST*
D10*
X157925100Y-87828800D02*
G75*
G03X157925100Y-87828800I-483200J0D01*
G01*
D11*
X174835000Y-111882600D02*
G75*
G03X174835000Y-111882600I-425900J0D01*
G01*
D12*
X126975192Y-104694566D02*
X126975192Y-103005466D01*
X127538226Y-104211966D01*
X128101259Y-103005466D01*
X128101259Y-104694566D01*
X129629492Y-103005466D02*
X129307759Y-103005466D01*
X129146892Y-103085900D01*
X129066459Y-103166333D01*
X128905592Y-103407633D01*
X128825159Y-103729366D01*
X128825159Y-104372833D01*
X128905592Y-104533700D01*
X128986026Y-104614133D01*
X129146892Y-104694566D01*
X129468626Y-104694566D01*
X129629492Y-104614133D01*
X129709926Y-104533700D01*
X129790359Y-104372833D01*
X129790359Y-103970666D01*
X129709926Y-103809800D01*
X129629492Y-103729366D01*
X129468626Y-103648933D01*
X129146892Y-103648933D01*
X128986026Y-103729366D01*
X128905592Y-103809800D01*
X128825159Y-103970666D01*
X131238159Y-103568500D02*
X131238159Y-104694566D01*
X130835992Y-102925033D02*
X130433826Y-104131533D01*
X131479459Y-104131533D01*
X132846826Y-103568500D02*
X132846826Y-104694566D01*
X132444659Y-102925033D02*
X132042492Y-104131533D01*
X133088126Y-104131533D01*
X134938092Y-102925033D02*
X133490292Y-105096733D01*
X135501126Y-104694566D02*
X135501126Y-103005466D01*
X136064159Y-104211966D01*
X136627192Y-103005466D01*
X136627192Y-104694566D01*
X138316292Y-104694566D02*
X137351092Y-104694566D01*
X137833692Y-104694566D02*
X137833692Y-103005466D01*
X137672826Y-103246766D01*
X137511959Y-103407633D01*
X137351092Y-103488066D01*
X138959759Y-103166333D02*
X139040192Y-103085900D01*
X139201059Y-103005466D01*
X139603226Y-103005466D01*
X139764092Y-103085900D01*
X139844526Y-103166333D01*
X139924959Y-103327200D01*
X139924959Y-103488066D01*
X139844526Y-103729366D01*
X138879326Y-104694566D01*
X139924959Y-104694566D01*
X140890159Y-103729366D02*
X140729292Y-103648933D01*
X140648859Y-103568500D01*
X140568426Y-103407633D01*
X140568426Y-103327200D01*
X140648859Y-103166333D01*
X140729292Y-103085900D01*
X140890159Y-103005466D01*
X141211892Y-103005466D01*
X141372759Y-103085900D01*
X141453192Y-103166333D01*
X141533626Y-103327200D01*
X141533626Y-103407633D01*
X141453192Y-103568500D01*
X141372759Y-103648933D01*
X141211892Y-103729366D01*
X140890159Y-103729366D01*
X140729292Y-103809800D01*
X140648859Y-103890233D01*
X140568426Y-104051100D01*
X140568426Y-104372833D01*
X140648859Y-104533700D01*
X140729292Y-104614133D01*
X140890159Y-104694566D01*
X141211892Y-104694566D01*
X141372759Y-104614133D01*
X141453192Y-104533700D01*
X141533626Y-104372833D01*
X141533626Y-104051100D01*
X141453192Y-103890233D01*
X141372759Y-103809800D01*
X141211892Y-103729366D01*
X142981426Y-103568500D02*
X142981426Y-104694566D01*
X142579259Y-102925033D02*
X142177092Y-104131533D01*
X143222726Y-104131533D01*
X144992259Y-103568500D02*
X145394426Y-104694566D01*
X145796592Y-103568500D01*
X147324826Y-104694566D02*
X146359626Y-104694566D01*
X146842226Y-104694566D02*
X146842226Y-103005466D01*
X146681359Y-103246766D01*
X146520492Y-103407633D01*
X146359626Y-103488066D01*
X148048726Y-104533700D02*
X148129159Y-104614133D01*
X148048726Y-104694566D01*
X147968292Y-104614133D01*
X148048726Y-104533700D01*
X148048726Y-104694566D01*
X148772626Y-103166333D02*
X148853059Y-103085900D01*
X149013926Y-103005466D01*
X149416092Y-103005466D01*
X149576959Y-103085900D01*
X149657392Y-103166333D01*
X149737826Y-103327200D01*
X149737826Y-103488066D01*
X149657392Y-103729366D01*
X148692192Y-104694566D01*
X149737826Y-104694566D01*
X151185626Y-104694566D02*
X151185626Y-103005466D01*
X151185626Y-104614133D02*
X151024759Y-104694566D01*
X150703026Y-104694566D01*
X150542159Y-104614133D01*
X150461726Y-104533700D01*
X150381292Y-104372833D01*
X150381292Y-103890233D01*
X150461726Y-103729366D01*
X150542159Y-103648933D01*
X150703026Y-103568500D01*
X151024759Y-103568500D01*
X151185626Y-103648933D01*
X138959759Y-106341333D02*
X139040192Y-106260900D01*
X139201059Y-106180466D01*
X139603226Y-106180466D01*
X139764092Y-106260900D01*
X139844526Y-106341333D01*
X139924959Y-106502200D01*
X139924959Y-106663066D01*
X139844526Y-106904366D01*
X138879326Y-107869566D01*
X139924959Y-107869566D01*
X141372759Y-106180466D02*
X141051026Y-106180466D01*
X140890159Y-106260900D01*
X140809726Y-106341333D01*
X140648859Y-106582633D01*
X140568426Y-106904366D01*
X140568426Y-107547833D01*
X140648859Y-107708700D01*
X140729292Y-107789133D01*
X140890159Y-107869566D01*
X141211892Y-107869566D01*
X141372759Y-107789133D01*
X141453192Y-107708700D01*
X141533626Y-107547833D01*
X141533626Y-107145666D01*
X141453192Y-106984800D01*
X141372759Y-106904366D01*
X141211892Y-106823933D01*
X140890159Y-106823933D01*
X140729292Y-106904366D01*
X140648859Y-106984800D01*
X140568426Y-107145666D01*
X143464026Y-106100033D02*
X142016226Y-108271733D01*
X144348792Y-106180466D02*
X144509659Y-106180466D01*
X144670526Y-106260900D01*
X144750959Y-106341333D01*
X144831392Y-106502200D01*
X144911826Y-106823933D01*
X144911826Y-107226100D01*
X144831392Y-107547833D01*
X144750959Y-107708700D01*
X144670526Y-107789133D01*
X144509659Y-107869566D01*
X144348792Y-107869566D01*
X144187926Y-107789133D01*
X144107492Y-107708700D01*
X144027059Y-107547833D01*
X143946626Y-107226100D01*
X143946626Y-106823933D01*
X144027059Y-106502200D01*
X144107492Y-106341333D01*
X144187926Y-106260900D01*
X144348792Y-106180466D01*
X146520492Y-107869566D02*
X145555292Y-107869566D01*
X146037892Y-107869566D02*
X146037892Y-106180466D01*
X145877026Y-106421766D01*
X145716159Y-106582633D01*
X145555292Y-106663066D01*
X148450892Y-106100033D02*
X147003092Y-108271733D01*
X149898692Y-107869566D02*
X148933492Y-107869566D01*
X149416092Y-107869566D02*
X149416092Y-106180466D01*
X149255226Y-106421766D01*
X149094359Y-106582633D01*
X148933492Y-106663066D01*
X150703026Y-107869566D02*
X151024759Y-107869566D01*
X151185626Y-107789133D01*
X151266059Y-107708700D01*
X151426926Y-107467400D01*
X151507359Y-107145666D01*
X151507359Y-106502200D01*
X151426926Y-106341333D01*
X151346492Y-106260900D01*
X151185626Y-106180466D01*
X150863892Y-106180466D01*
X150703026Y-106260900D01*
X150622592Y-106341333D01*
X150542159Y-106502200D01*
X150542159Y-106904366D01*
X150622592Y-107065233D01*
X150703026Y-107145666D01*
X150863892Y-107226100D01*
X151185626Y-107226100D01*
X151346492Y-107145666D01*
X151426926Y-107065233D01*
X151507359Y-106904366D01*
D13*
X160202033Y-120011074D02*
X159558566Y-120461500D01*
X160202033Y-120783234D02*
X158850753Y-120783234D01*
X158850753Y-120268460D01*
X158915100Y-120139767D01*
X158979446Y-120075420D01*
X159108140Y-120011074D01*
X159301180Y-120011074D01*
X159429873Y-120075420D01*
X159494220Y-120139767D01*
X159558566Y-120268460D01*
X159558566Y-120783234D01*
X158850753Y-119560647D02*
X160202033Y-118659794D01*
X158850753Y-118659794D02*
X160202033Y-119560647D01*
X158850753Y-117887634D02*
X158850753Y-117758940D01*
X158915100Y-117630247D01*
X158979446Y-117565900D01*
X159108140Y-117501554D01*
X159365526Y-117437207D01*
X159687260Y-117437207D01*
X159944646Y-117501554D01*
X160073340Y-117565900D01*
X160137686Y-117630247D01*
X160202033Y-117758940D01*
X160202033Y-117887634D01*
X160137686Y-118016327D01*
X160073340Y-118080674D01*
X159944646Y-118145020D01*
X159687260Y-118209367D01*
X159365526Y-118209367D01*
X159108140Y-118145020D01*
X158979446Y-118080674D01*
X158915100Y-118016327D01*
X158850753Y-117887634D01*
X154786753Y-121035540D02*
X154786753Y-120263380D01*
X156138033Y-120649460D02*
X154786753Y-120649460D01*
X154786753Y-119941647D02*
X156138033Y-119040794D01*
X154786753Y-119040794D02*
X156138033Y-119941647D01*
X154786753Y-118268634D02*
X154786753Y-118139940D01*
X154851100Y-118011247D01*
X154915446Y-117946900D01*
X155044140Y-117882554D01*
X155301526Y-117818207D01*
X155623260Y-117818207D01*
X155880646Y-117882554D01*
X156009340Y-117946900D01*
X156073686Y-118011247D01*
X156138033Y-118139940D01*
X156138033Y-118268634D01*
X156073686Y-118397327D01*
X156009340Y-118461674D01*
X155880646Y-118526020D01*
X155623260Y-118590367D01*
X155301526Y-118590367D01*
X155044140Y-118526020D01*
X154915446Y-118461674D01*
X154851100Y-118397327D01*
X154786753Y-118268634D01*
X148944753Y-120857740D02*
X148944753Y-120085580D01*
X150296033Y-120471660D02*
X148944753Y-120471660D01*
X148944753Y-119763847D02*
X150296033Y-118862994D01*
X148944753Y-118862994D02*
X150296033Y-119763847D01*
X150296033Y-117640407D02*
X150296033Y-118412567D01*
X150296033Y-118026487D02*
X148944753Y-118026487D01*
X149137793Y-118155180D01*
X149266486Y-118283874D01*
X149330833Y-118412567D01*
X154278753Y-119893285D02*
X153635286Y-120343712D01*
X154278753Y-120665445D02*
X152927473Y-120665445D01*
X152927473Y-120150672D01*
X152991820Y-120021979D01*
X153056166Y-119957632D01*
X153184860Y-119893285D01*
X153377900Y-119893285D01*
X153506593Y-119957632D01*
X153570940Y-120021979D01*
X153635286Y-120150672D01*
X153635286Y-120665445D01*
X152927473Y-119442859D02*
X154278753Y-118542005D01*
X152927473Y-118542005D02*
X154278753Y-119442859D01*
X154278753Y-117319419D02*
X154278753Y-118091579D01*
X154278753Y-117705499D02*
X152927473Y-117705499D01*
X153120513Y-117834192D01*
X153249206Y-117962885D01*
X153313553Y-118091579D01*
X146912753Y-121018607D02*
X148264033Y-120117754D01*
X146912753Y-120117754D02*
X148264033Y-121018607D01*
X148135340Y-118830820D02*
X148199686Y-118895167D01*
X148264033Y-119088207D01*
X148264033Y-119216900D01*
X148199686Y-119409940D01*
X148070993Y-119538634D01*
X147942300Y-119602980D01*
X147684913Y-119667327D01*
X147491873Y-119667327D01*
X147234486Y-119602980D01*
X147105793Y-119538634D01*
X146977100Y-119409940D01*
X146912753Y-119216900D01*
X146912753Y-119088207D01*
X146977100Y-118895167D01*
X147041446Y-118830820D01*
X148264033Y-118251700D02*
X146912753Y-118251700D01*
X148264033Y-117479540D02*
X147491873Y-118058660D01*
X146912753Y-117479540D02*
X147684913Y-118251700D01*
X148264033Y-116192607D02*
X148264033Y-116964767D01*
X148264033Y-116578687D02*
X146912753Y-116578687D01*
X147105793Y-116707380D01*
X147234486Y-116836074D01*
X147298833Y-116964767D01*
X139546753Y-93891407D02*
X140898033Y-92990554D01*
X139546753Y-92990554D02*
X140898033Y-93891407D01*
X140769340Y-91703620D02*
X140833686Y-91767967D01*
X140898033Y-91961007D01*
X140898033Y-92089700D01*
X140833686Y-92282740D01*
X140704993Y-92411434D01*
X140576300Y-92475780D01*
X140318913Y-92540127D01*
X140125873Y-92540127D01*
X139868486Y-92475780D01*
X139739793Y-92411434D01*
X139611100Y-92282740D01*
X139546753Y-92089700D01*
X139546753Y-91961007D01*
X139611100Y-91767967D01*
X139675446Y-91703620D01*
X140898033Y-91124500D02*
X139546753Y-91124500D01*
X140898033Y-90352340D02*
X140125873Y-90931460D01*
X139546753Y-90352340D02*
X140318913Y-91124500D01*
X139546753Y-89515834D02*
X139546753Y-89387140D01*
X139611100Y-89258447D01*
X139675446Y-89194100D01*
X139804140Y-89129754D01*
X140061526Y-89065407D01*
X140383260Y-89065407D01*
X140640646Y-89129754D01*
X140769340Y-89194100D01*
X140833686Y-89258447D01*
X140898033Y-89387140D01*
X140898033Y-89515834D01*
X140833686Y-89644527D01*
X140769340Y-89708874D01*
X140640646Y-89773220D01*
X140383260Y-89837567D01*
X140061526Y-89837567D01*
X139804140Y-89773220D01*
X139675446Y-89708874D01*
X139611100Y-89644527D01*
X139546753Y-89515834D01*
X138212406Y-122761792D02*
X138276753Y-122568752D01*
X138276753Y-122247019D01*
X138212406Y-122118325D01*
X138148060Y-122053979D01*
X138019366Y-121989632D01*
X137890673Y-121989632D01*
X137761980Y-122053979D01*
X137697633Y-122118325D01*
X137633286Y-122247019D01*
X137568940Y-122504405D01*
X137504593Y-122633099D01*
X137440246Y-122697445D01*
X137311553Y-122761792D01*
X137182860Y-122761792D01*
X137054166Y-122697445D01*
X136989820Y-122633099D01*
X136925473Y-122504405D01*
X136925473Y-122182672D01*
X136989820Y-121989632D01*
X138148060Y-120638352D02*
X138212406Y-120702699D01*
X138276753Y-120895739D01*
X138276753Y-121024432D01*
X138212406Y-121217472D01*
X138083713Y-121346165D01*
X137955020Y-121410512D01*
X137697633Y-121474859D01*
X137504593Y-121474859D01*
X137247206Y-121410512D01*
X137118513Y-121346165D01*
X136989820Y-121217472D01*
X136925473Y-121024432D01*
X136925473Y-120895739D01*
X136989820Y-120702699D01*
X137054166Y-120638352D01*
X138276753Y-119415765D02*
X138276753Y-120059232D01*
X136925473Y-120059232D01*
X135626686Y-123030287D02*
X135691033Y-122837247D01*
X135691033Y-122515514D01*
X135626686Y-122386820D01*
X135562340Y-122322474D01*
X135433646Y-122258127D01*
X135304953Y-122258127D01*
X135176260Y-122322474D01*
X135111913Y-122386820D01*
X135047566Y-122515514D01*
X134983220Y-122772900D01*
X134918873Y-122901594D01*
X134854526Y-122965940D01*
X134725833Y-123030287D01*
X134597140Y-123030287D01*
X134468446Y-122965940D01*
X134404100Y-122901594D01*
X134339753Y-122772900D01*
X134339753Y-122451167D01*
X134404100Y-122258127D01*
X135691033Y-121679007D02*
X134339753Y-121679007D01*
X134339753Y-121357274D01*
X134404100Y-121164234D01*
X134532793Y-121035540D01*
X134661486Y-120971194D01*
X134918873Y-120906847D01*
X135111913Y-120906847D01*
X135369300Y-120971194D01*
X135497993Y-121035540D01*
X135626686Y-121164234D01*
X135691033Y-121357274D01*
X135691033Y-121679007D01*
X135304953Y-120392074D02*
X135304953Y-119748607D01*
X135691033Y-120520767D02*
X134339753Y-120070340D01*
X135691033Y-119619914D01*
X173811353Y-102657794D02*
X173811353Y-103301260D01*
X174454820Y-103365607D01*
X174390473Y-103301260D01*
X174326126Y-103172567D01*
X174326126Y-102850834D01*
X174390473Y-102722140D01*
X174454820Y-102657794D01*
X174583513Y-102593447D01*
X174905246Y-102593447D01*
X175033940Y-102657794D01*
X175098286Y-102722140D01*
X175162633Y-102850834D01*
X175162633Y-103172567D01*
X175098286Y-103301260D01*
X175033940Y-103365607D01*
X173811353Y-102207367D02*
X175162633Y-101756940D01*
X173811353Y-101306514D01*
X167604067Y-115992320D02*
X167475374Y-115927973D01*
X167282334Y-115927973D01*
X167089294Y-115992320D01*
X166960600Y-116121013D01*
X166896254Y-116249706D01*
X166831907Y-116507093D01*
X166831907Y-116700133D01*
X166896254Y-116957520D01*
X166960600Y-117086213D01*
X167089294Y-117214906D01*
X167282334Y-117279253D01*
X167411027Y-117279253D01*
X167604067Y-117214906D01*
X167668414Y-117150560D01*
X167668414Y-116700133D01*
X167411027Y-116700133D01*
X168247534Y-117279253D02*
X168247534Y-115927973D01*
X169019694Y-117279253D01*
X169019694Y-115927973D01*
X169663160Y-117279253D02*
X169663160Y-115927973D01*
X169984894Y-115927973D01*
X170177934Y-115992320D01*
X170306627Y-116121013D01*
X170370974Y-116249706D01*
X170435320Y-116507093D01*
X170435320Y-116700133D01*
X170370974Y-116957520D01*
X170306627Y-117086213D01*
X170177934Y-117214906D01*
X169984894Y-117279253D01*
X169663160Y-117279253D01*
D14*
X122603260Y-106673737D02*
X122603260Y-105644190D01*
X123118033Y-106158964D02*
X122088486Y-106158964D01*
X121766753Y-104357257D02*
X121766753Y-105000724D01*
X122410220Y-105065070D01*
X122345873Y-105000724D01*
X122281526Y-104872030D01*
X122281526Y-104550297D01*
X122345873Y-104421604D01*
X122410220Y-104357257D01*
X122538913Y-104292910D01*
X122860646Y-104292910D01*
X122989340Y-104357257D01*
X123053686Y-104421604D01*
X123118033Y-104550297D01*
X123118033Y-104872030D01*
X123053686Y-105000724D01*
X122989340Y-105065070D01*
X121766753Y-103906830D02*
X123118033Y-103456404D01*
X121766753Y-103005977D01*
D13*
X121876820Y-110153232D02*
X121812473Y-110281925D01*
X121812473Y-110474965D01*
X121876820Y-110668005D01*
X122005513Y-110796699D01*
X122134206Y-110861045D01*
X122391593Y-110925392D01*
X122584633Y-110925392D01*
X122842020Y-110861045D01*
X122970713Y-110796699D01*
X123099406Y-110668005D01*
X123163753Y-110474965D01*
X123163753Y-110346272D01*
X123099406Y-110153232D01*
X123035060Y-110088885D01*
X122584633Y-110088885D01*
X122584633Y-110346272D01*
X123163753Y-109509765D02*
X121812473Y-109509765D01*
X123163753Y-108737605D01*
X121812473Y-108737605D01*
X123163753Y-108094139D02*
X121812473Y-108094139D01*
X121812473Y-107772405D01*
X121876820Y-107579365D01*
X122005513Y-107450672D01*
X122134206Y-107386325D01*
X122391593Y-107321979D01*
X122584633Y-107321979D01*
X122842020Y-107386325D01*
X122970713Y-107450672D01*
X123099406Y-107579365D01*
X123163753Y-107772405D01*
X123163753Y-108094139D01*
X143893065Y-92468533D02*
X143893065Y-91117253D01*
X144343492Y-92082453D01*
X144793919Y-91117253D01*
X144793919Y-92468533D01*
X145694772Y-91117253D02*
X145952159Y-91117253D01*
X146080852Y-91181600D01*
X146209545Y-91310293D01*
X146273892Y-91567680D01*
X146273892Y-92018106D01*
X146209545Y-92275493D01*
X146080852Y-92404186D01*
X145952159Y-92468533D01*
X145694772Y-92468533D01*
X145566079Y-92404186D01*
X145437385Y-92275493D01*
X145373039Y-92018106D01*
X145373039Y-91567680D01*
X145437385Y-91310293D01*
X145566079Y-91181600D01*
X145694772Y-91117253D01*
X146788665Y-92404186D02*
X146981705Y-92468533D01*
X147303439Y-92468533D01*
X147432132Y-92404186D01*
X147496479Y-92339840D01*
X147560825Y-92211146D01*
X147560825Y-92082453D01*
X147496479Y-91953760D01*
X147432132Y-91889413D01*
X147303439Y-91825066D01*
X147046052Y-91760720D01*
X146917359Y-91696373D01*
X146853012Y-91632026D01*
X146788665Y-91503333D01*
X146788665Y-91374640D01*
X146853012Y-91245946D01*
X146917359Y-91181600D01*
X147046052Y-91117253D01*
X147367785Y-91117253D01*
X147560825Y-91181600D01*
X148139945Y-92468533D02*
X148139945Y-91117253D01*
X143893065Y-95008533D02*
X143893065Y-93657253D01*
X144343492Y-94622453D01*
X144793919Y-93657253D01*
X144793919Y-95008533D01*
X145437385Y-95008533D02*
X145437385Y-93657253D01*
X146016505Y-94944186D02*
X146209545Y-95008533D01*
X146531279Y-95008533D01*
X146659972Y-94944186D01*
X146724319Y-94879840D01*
X146788665Y-94751146D01*
X146788665Y-94622453D01*
X146724319Y-94493760D01*
X146659972Y-94429413D01*
X146531279Y-94365066D01*
X146273892Y-94300720D01*
X146145199Y-94236373D01*
X146080852Y-94172026D01*
X146016505Y-94043333D01*
X146016505Y-93914640D01*
X146080852Y-93785946D01*
X146145199Y-93721600D01*
X146273892Y-93657253D01*
X146595625Y-93657253D01*
X146788665Y-93721600D01*
X147625172Y-93657253D02*
X147882559Y-93657253D01*
X148011252Y-93721600D01*
X148139945Y-93850293D01*
X148204292Y-94107680D01*
X148204292Y-94558106D01*
X148139945Y-94815493D01*
X148011252Y-94944186D01*
X147882559Y-95008533D01*
X147625172Y-95008533D01*
X147496479Y-94944186D01*
X147367785Y-94815493D01*
X147303439Y-94558106D01*
X147303439Y-94107680D01*
X147367785Y-93850293D01*
X147496479Y-93721600D01*
X147625172Y-93657253D01*
X144729572Y-97738186D02*
X144922612Y-97802533D01*
X145244345Y-97802533D01*
X145373039Y-97738186D01*
X145437385Y-97673840D01*
X145501732Y-97545146D01*
X145501732Y-97416453D01*
X145437385Y-97287760D01*
X145373039Y-97223413D01*
X145244345Y-97159066D01*
X144986959Y-97094720D01*
X144858265Y-97030373D01*
X144793919Y-96966026D01*
X144729572Y-96837333D01*
X144729572Y-96708640D01*
X144793919Y-96579946D01*
X144858265Y-96515600D01*
X144986959Y-96451253D01*
X145308692Y-96451253D01*
X145501732Y-96515600D01*
X146853012Y-97673840D02*
X146788665Y-97738186D01*
X146595625Y-97802533D01*
X146466932Y-97802533D01*
X146273892Y-97738186D01*
X146145199Y-97609493D01*
X146080852Y-97480800D01*
X146016505Y-97223413D01*
X146016505Y-97030373D01*
X146080852Y-96772986D01*
X146145199Y-96644293D01*
X146273892Y-96515600D01*
X146466932Y-96451253D01*
X146595625Y-96451253D01*
X146788665Y-96515600D01*
X146853012Y-96579946D01*
X147432132Y-97802533D02*
X147432132Y-96451253D01*
X148204292Y-97802533D02*
X147625172Y-97030373D01*
X148204292Y-96451253D02*
X147432132Y-97223413D01*
X166642254Y-114986480D02*
X167671800Y-114986480D01*
X167157027Y-115501253D02*
X167157027Y-114471706D01*
X168379614Y-115501253D02*
X168637000Y-115501253D01*
X168765694Y-115436906D01*
X168830040Y-115372560D01*
X168958734Y-115179520D01*
X169023080Y-114922133D01*
X169023080Y-114407360D01*
X168958734Y-114278666D01*
X168894387Y-114214320D01*
X168765694Y-114149973D01*
X168508307Y-114149973D01*
X168379614Y-114214320D01*
X168315267Y-114278666D01*
X168250920Y-114407360D01*
X168250920Y-114729093D01*
X168315267Y-114857786D01*
X168379614Y-114922133D01*
X168508307Y-114986480D01*
X168765694Y-114986480D01*
X168894387Y-114922133D01*
X168958734Y-114857786D01*
X169023080Y-114729093D01*
X169409160Y-114149973D02*
X169859587Y-115501253D01*
X170310014Y-114149973D01*
D15*
G04 #@! TO.C,LED1_SMD1*
G36*
X130317500Y-111450800D02*
X130667500Y-111450800D01*
X130667500Y-111100800D01*
X130317500Y-111100800D01*
X130317500Y-111450800D01*
G37*
G36*
X131017500Y-111100800D02*
X131342500Y-111100800D01*
X131342500Y-110675800D01*
X131017500Y-110675800D01*
X131017500Y-111100800D01*
G37*
G36*
X129642500Y-111100800D02*
X129967500Y-111100800D01*
X129967500Y-110675800D01*
X129642500Y-110675800D01*
X129642500Y-111100800D01*
G37*
D16*
G04 #@! TO.C,SW1/PC5*
X133491100Y-91943600D02*
G75*
G03X133491100Y-91943600I-865000J0D01*
G01*
X133626100Y-91943600D02*
G75*
G03X133626100Y-91943600I-1000000J0D01*
G01*
X130981100Y-90947800D02*
X131630300Y-90298600D01*
X130981100Y-92939400D02*
X130981100Y-90947800D01*
X133621900Y-90298600D02*
X134271100Y-90947800D01*
X131630300Y-90298600D02*
X133621900Y-90298600D01*
X134271100Y-92939400D02*
X133621900Y-93588600D01*
X134271100Y-90947800D02*
X134271100Y-92939400D01*
X131630300Y-93588600D02*
X130981100Y-92939400D01*
X133621900Y-93588600D02*
X131630300Y-93588600D01*
X130814100Y-90878600D02*
X131561100Y-90131600D01*
X130814100Y-93008600D02*
X130814100Y-90878600D01*
X133691100Y-90131600D02*
X134438100Y-90878600D01*
X131561100Y-90131600D02*
X133691100Y-90131600D01*
X134438100Y-93008600D02*
X133691100Y-93755600D01*
X134438100Y-90878600D02*
X134438100Y-93008600D01*
X131561100Y-93755600D02*
X130814100Y-93008600D01*
X133691100Y-93755600D02*
X131561100Y-93755600D01*
D17*
X130126100Y-90810100D02*
X130445100Y-90810100D01*
X130126100Y-93077100D02*
X130126100Y-90810100D01*
X130444100Y-93077100D02*
X130126100Y-93077100D01*
X130444100Y-93077100D02*
X130444100Y-90725300D01*
X130444100Y-93161900D02*
X130444100Y-93077100D01*
X135126100Y-93077100D02*
X134807100Y-93077100D01*
X135126100Y-90810100D02*
X135126100Y-93077100D01*
X134808100Y-90810100D02*
X135126100Y-90810100D01*
X134808100Y-90810100D02*
X134808100Y-93161900D01*
X134808100Y-90725300D02*
X134808100Y-90810100D01*
X133759600Y-89443600D02*
X133759600Y-89762600D01*
X131492600Y-89443600D02*
X133759600Y-89443600D01*
X131492600Y-89761600D02*
X131492600Y-89443600D01*
X131492600Y-89761600D02*
X133844400Y-89761600D01*
X131407800Y-89761600D02*
X131492600Y-89761600D01*
X131492600Y-94443600D02*
X131492600Y-94124600D01*
X133759600Y-94443600D02*
X131492600Y-94443600D01*
X133759600Y-94125600D02*
X133759600Y-94443600D01*
X134808100Y-93161900D02*
X133844400Y-94125600D01*
X133844400Y-89761600D02*
X134808100Y-90725300D01*
X130444100Y-90725300D02*
X131407800Y-89761600D01*
X131407800Y-94125600D02*
X130444100Y-93161900D01*
X133759600Y-94125600D02*
X131407800Y-94125600D01*
X133844400Y-94125600D02*
X133759600Y-94125600D01*
D15*
G04 #@! TO.C,IC2*
G36*
X170345100Y-105024600D02*
X170345100Y-103119600D01*
X169837100Y-103119600D01*
X169837100Y-105024600D01*
X170345100Y-105024600D01*
G37*
G36*
X170345100Y-107564600D02*
X170345100Y-106802600D01*
X169837100Y-106802600D01*
X169837100Y-107564600D01*
X170345100Y-107564600D01*
G37*
G36*
X170345100Y-110104600D02*
X170345100Y-109342600D01*
X169837100Y-109342600D01*
X169837100Y-110104600D01*
X170345100Y-110104600D01*
G37*
G36*
X170345100Y-113787600D02*
X170345100Y-111882600D01*
X169837100Y-111882600D01*
X169837100Y-113787600D01*
X170345100Y-113787600D01*
G37*
G36*
X169837100Y-113787600D02*
X169837100Y-103119600D01*
X169075100Y-103119600D01*
X169075100Y-113787600D01*
X169837100Y-113787600D01*
G37*
D18*
X173037500Y-112949400D02*
G75*
G03X173037500Y-112949400I-254000J0D01*
G01*
X173139100Y-113406600D02*
X170218100Y-113533600D01*
X173139100Y-113406600D02*
X173393100Y-113152600D01*
X173393100Y-103754600D02*
X173393100Y-113152600D01*
X173393100Y-103754600D02*
X173139100Y-103500600D01*
X170218100Y-103373600D02*
X173139100Y-103500600D01*
D17*
G04 #@! TO.C,SV1*
X158661100Y-88133600D02*
X158661100Y-84323600D01*
X158661100Y-88133600D02*
X158788100Y-88133600D01*
X158788100Y-89403600D02*
X158788100Y-88133600D01*
X158788100Y-89403600D02*
X158661100Y-89403600D01*
X158661100Y-89911600D02*
X158661100Y-89403600D01*
X159677100Y-89911600D02*
X158661100Y-89911600D01*
D19*
X159677100Y-85339600D02*
X159677100Y-89911600D01*
X166535100Y-85339600D02*
X159677100Y-85339600D01*
X166535100Y-98547600D02*
X166535100Y-85339600D01*
X159677100Y-98547600D02*
X166535100Y-98547600D01*
X159677100Y-93975600D02*
X159677100Y-98547600D01*
D17*
X159677100Y-93975600D02*
X158661100Y-93975600D01*
X159931100Y-93975600D02*
X159677100Y-93975600D01*
X159931100Y-98293600D02*
X159931100Y-93975600D01*
X158661100Y-93975600D02*
X158661100Y-89911600D01*
X158661100Y-99563600D02*
X158661100Y-93975600D01*
X167551100Y-86863600D02*
X167551100Y-91308600D01*
X167805100Y-86863600D02*
X167551100Y-86863600D01*
X167805100Y-85593600D02*
X167551100Y-85593600D01*
X167805100Y-86863600D02*
X167805100Y-85593600D01*
X167805100Y-91308600D02*
X167551100Y-91308600D01*
X167551100Y-92578600D02*
X167551100Y-97023600D01*
X167805100Y-92578600D02*
X167551100Y-92578600D01*
X167805100Y-92578600D02*
X167805100Y-91308600D01*
X167551100Y-98293600D02*
X167551100Y-99563600D01*
X167551100Y-97023600D02*
X167805100Y-97023600D01*
X167805100Y-98293600D02*
X167805100Y-97023600D01*
X167551100Y-98293600D02*
X167805100Y-98293600D01*
X159931100Y-89911600D02*
X159677100Y-89911600D01*
X159931100Y-89911600D02*
X159931100Y-85593600D01*
X159931100Y-89911600D02*
X160693100Y-89911600D01*
X160693100Y-93975600D02*
X160693100Y-89911600D01*
X160693100Y-93975600D02*
X159931100Y-93975600D01*
X167551100Y-84323600D02*
X158661100Y-84323600D01*
X158661100Y-99563600D02*
X167551100Y-99563600D01*
X167551100Y-84323600D02*
X167551100Y-85593600D01*
X166281100Y-85593600D02*
X159931100Y-85593600D01*
X159931100Y-98293600D02*
X166281100Y-98293600D01*
X166281100Y-85593600D02*
X166281100Y-98293600D01*
G04 #@! TO.C,JP3*
X130721100Y-123693600D02*
X131356100Y-124328600D01*
X129451100Y-123693600D02*
X130721100Y-123693600D01*
X128816100Y-124328600D02*
X129451100Y-123693600D01*
X128816100Y-125598600D02*
X128816100Y-124328600D01*
X129451100Y-126233600D02*
X128816100Y-125598600D01*
X130721100Y-126233600D02*
X129451100Y-126233600D01*
X131356100Y-125598600D02*
X130721100Y-126233600D01*
X157391100Y-123693600D02*
X158661100Y-123693600D01*
X159296100Y-124328600D02*
X158661100Y-123693600D01*
X158661100Y-126233600D02*
X159296100Y-125598600D01*
X159296100Y-125598600D02*
X159296100Y-124328600D01*
X156121100Y-123693600D02*
X156756100Y-124328600D01*
X154851100Y-123693600D02*
X156121100Y-123693600D01*
X154216100Y-124328600D02*
X154851100Y-123693600D01*
X154216100Y-125598600D02*
X154216100Y-124328600D01*
X154851100Y-126233600D02*
X154216100Y-125598600D01*
X156121100Y-126233600D02*
X154851100Y-126233600D01*
X156756100Y-125598600D02*
X156121100Y-126233600D01*
X156756100Y-124328600D02*
X157391100Y-123693600D01*
X156756100Y-125598600D02*
X156756100Y-124328600D01*
X157391100Y-126233600D02*
X156756100Y-125598600D01*
X158661100Y-126233600D02*
X157391100Y-126233600D01*
X149771100Y-123693600D02*
X151041100Y-123693600D01*
X151676100Y-124328600D02*
X151041100Y-123693600D01*
X151041100Y-126233600D02*
X151676100Y-125598600D01*
X153581100Y-123693600D02*
X154216100Y-124328600D01*
X152311100Y-123693600D02*
X153581100Y-123693600D01*
X151676100Y-124328600D02*
X152311100Y-123693600D01*
X151676100Y-125598600D02*
X151676100Y-124328600D01*
X152311100Y-126233600D02*
X151676100Y-125598600D01*
X153581100Y-126233600D02*
X152311100Y-126233600D01*
X154216100Y-125598600D02*
X153581100Y-126233600D01*
X148501100Y-123693600D02*
X149136100Y-124328600D01*
X147231100Y-123693600D02*
X148501100Y-123693600D01*
X146596100Y-124328600D02*
X147231100Y-123693600D01*
X146596100Y-125598600D02*
X146596100Y-124328600D01*
X147231100Y-126233600D02*
X146596100Y-125598600D01*
X148501100Y-126233600D02*
X147231100Y-126233600D01*
X149136100Y-125598600D02*
X148501100Y-126233600D01*
X149136100Y-124328600D02*
X149771100Y-123693600D01*
X149136100Y-125598600D02*
X149136100Y-124328600D01*
X149771100Y-126233600D02*
X149136100Y-125598600D01*
X151041100Y-126233600D02*
X149771100Y-126233600D01*
X142151100Y-123693600D02*
X143421100Y-123693600D01*
X144056100Y-124328600D02*
X143421100Y-123693600D01*
X143421100Y-126233600D02*
X144056100Y-125598600D01*
X145961100Y-123693600D02*
X146596100Y-124328600D01*
X144691100Y-123693600D02*
X145961100Y-123693600D01*
X144056100Y-124328600D02*
X144691100Y-123693600D01*
X144056100Y-125598600D02*
X144056100Y-124328600D01*
X144691100Y-126233600D02*
X144056100Y-125598600D01*
X145961100Y-126233600D02*
X144691100Y-126233600D01*
X146596100Y-125598600D02*
X145961100Y-126233600D01*
X140881100Y-123693600D02*
X141516100Y-124328600D01*
X139611100Y-123693600D02*
X140881100Y-123693600D01*
X138976100Y-124328600D02*
X139611100Y-123693600D01*
X138976100Y-125598600D02*
X138976100Y-124328600D01*
X139611100Y-126233600D02*
X138976100Y-125598600D01*
X140881100Y-126233600D02*
X139611100Y-126233600D01*
X141516100Y-125598600D02*
X140881100Y-126233600D01*
X141516100Y-124328600D02*
X142151100Y-123693600D01*
X141516100Y-125598600D02*
X141516100Y-124328600D01*
X142151100Y-126233600D02*
X141516100Y-125598600D01*
X143421100Y-126233600D02*
X142151100Y-126233600D01*
X134531100Y-123693600D02*
X135801100Y-123693600D01*
X136436100Y-124328600D02*
X135801100Y-123693600D01*
X135801100Y-126233600D02*
X136436100Y-125598600D01*
X138341100Y-123693600D02*
X138976100Y-124328600D01*
X137071100Y-123693600D02*
X138341100Y-123693600D01*
X136436100Y-124328600D02*
X137071100Y-123693600D01*
X136436100Y-125598600D02*
X136436100Y-124328600D01*
X137071100Y-126233600D02*
X136436100Y-125598600D01*
X138341100Y-126233600D02*
X137071100Y-126233600D01*
X138976100Y-125598600D02*
X138341100Y-126233600D01*
X133261100Y-123693600D02*
X133896100Y-124328600D01*
X131991100Y-123693600D02*
X133261100Y-123693600D01*
X131356100Y-124328600D02*
X131991100Y-123693600D01*
X131356100Y-125598600D02*
X131356100Y-124328600D01*
X131991100Y-126233600D02*
X131356100Y-125598600D01*
X133261100Y-126233600D02*
X131991100Y-126233600D01*
X133896100Y-125598600D02*
X133261100Y-126233600D01*
X133896100Y-124328600D02*
X134531100Y-123693600D01*
X133896100Y-125598600D02*
X133896100Y-124328600D01*
X134531100Y-126233600D02*
X133896100Y-125598600D01*
X135801100Y-126233600D02*
X134531100Y-126233600D01*
D20*
G04 #@! TO.C,LED1*
X130848100Y-110993600D02*
G75*
G02X129824300Y-112757900I-2032000J-56D01*
G01*
X130128700Y-109442400D02*
G75*
G02X130848100Y-110993600I-1312600J-1551163D01*
G01*
X126784100Y-110993600D02*
G75*
G03X127859900Y-112786500I2032000J60D01*
G01*
X127515200Y-109432600D02*
G75*
G03X126784100Y-110993600I1300900J-1560988D01*
G01*
D17*
X130340100Y-110993600D02*
G75*
G02X129751700Y-112196600I-1524000J8D01*
G01*
X129751700Y-109790600D02*
G75*
G02X130340100Y-110993600I-935600J-1203008D01*
G01*
X127292100Y-110993600D02*
G75*
G03X127901700Y-112212800I1524000J0D01*
G01*
X127930299Y-109753500D02*
G75*
G03X127292100Y-110993600I885801J-1240134D01*
G01*
D18*
G04 #@! TO.C,JP1*
X151676100Y-85593600D02*
X151676100Y-88133600D01*
X128816100Y-85593600D02*
X151676100Y-85593600D01*
X128816100Y-88133600D02*
X128816100Y-85593600D01*
X151676100Y-88133600D02*
X128816100Y-88133600D01*
G04 #@! TO.C,JP2*
X123736100Y-95753600D02*
X126276100Y-95753600D01*
X123736100Y-118613600D02*
X123736100Y-95753600D01*
X126276100Y-118613600D02*
X123736100Y-118613600D01*
X126276100Y-95753600D02*
X126276100Y-118613600D01*
D17*
G04 #@! TO.C,X2*
X163650300Y-125903400D02*
G75*
G03X163650300Y-125903400I-508000J0D01*
G01*
X168654100Y-125903400D02*
G75*
G03X168654100Y-125903400I-508000J0D01*
G01*
X160653100Y-127224600D02*
X160653100Y-120620600D01*
X170635100Y-127224600D02*
X170635100Y-127427600D01*
X170635100Y-127224600D02*
X160653100Y-127224600D01*
X160653100Y-120620600D02*
X160653100Y-118232600D01*
X170635100Y-120620600D02*
X170635100Y-127224600D01*
X162253100Y-120620600D02*
X160653100Y-120620600D01*
X167257100Y-120620600D02*
X164031100Y-120620600D01*
X170635100Y-120620600D02*
X169035100Y-120620600D01*
X170635100Y-118232600D02*
X170635100Y-120620600D01*
X160653100Y-127427600D02*
X170635100Y-127427600D01*
X160653100Y-127427600D02*
X160653100Y-127224600D01*
X170635100Y-118232600D02*
X160653100Y-118232600D01*
G04 #@! TO.C,JP4*
X151041100Y-98293600D02*
X149771100Y-98293600D01*
X149136100Y-97658600D02*
X149771100Y-98293600D01*
X149771100Y-95753600D02*
X149136100Y-96388600D01*
X149136100Y-96388600D02*
X149136100Y-97658600D01*
X151676100Y-97658600D02*
X151041100Y-98293600D01*
X151676100Y-96388600D02*
X151676100Y-97658600D01*
X151041100Y-95753600D02*
X151676100Y-96388600D01*
X149771100Y-95753600D02*
X151041100Y-95753600D01*
G04 #@! TO.C,JP5*
X153581100Y-98293600D02*
X152311100Y-98293600D01*
X151676100Y-97658600D02*
X152311100Y-98293600D01*
X152311100Y-95753600D02*
X151676100Y-96388600D01*
X151676100Y-96388600D02*
X151676100Y-97658600D01*
X154216100Y-97658600D02*
X153581100Y-98293600D01*
X154216100Y-96388600D02*
X154216100Y-97658600D01*
X153581100Y-95753600D02*
X154216100Y-96388600D01*
X152311100Y-95753600D02*
X153581100Y-95753600D01*
G04 #@! TO.C,JP6*
X153581100Y-95753600D02*
X152311100Y-95753600D01*
X151676100Y-95118600D02*
X152311100Y-95753600D01*
X152311100Y-93213600D02*
X151676100Y-93848600D01*
X151676100Y-93848600D02*
X151676100Y-95118600D01*
X154216100Y-95118600D02*
X153581100Y-95753600D01*
X154216100Y-93848600D02*
X154216100Y-95118600D01*
X153581100Y-93213600D02*
X154216100Y-93848600D01*
X152311100Y-93213600D02*
X153581100Y-93213600D01*
G04 #@! TO.C,JP7*
X151041100Y-95753600D02*
X149771100Y-95753600D01*
X149136100Y-95118600D02*
X149771100Y-95753600D01*
X149771100Y-93213600D02*
X149136100Y-93848600D01*
X149136100Y-93848600D02*
X149136100Y-95118600D01*
X151676100Y-95118600D02*
X151041100Y-95753600D01*
X151676100Y-93848600D02*
X151676100Y-95118600D01*
X151041100Y-93213600D02*
X151676100Y-93848600D01*
X149771100Y-93213600D02*
X151041100Y-93213600D01*
G04 #@! TO.C,JP8*
X151041100Y-93213600D02*
X149771100Y-93213600D01*
X149136100Y-92578600D02*
X149771100Y-93213600D01*
X149771100Y-90673600D02*
X149136100Y-91308600D01*
X149136100Y-91308600D02*
X149136100Y-92578600D01*
X151676100Y-92578600D02*
X151041100Y-93213600D01*
X151676100Y-91308600D02*
X151676100Y-92578600D01*
X151041100Y-90673600D02*
X151676100Y-91308600D01*
X149771100Y-90673600D02*
X151041100Y-90673600D01*
G04 #@! TO.C,JP9*
X153581100Y-93213600D02*
X152311100Y-93213600D01*
X151676100Y-92578600D02*
X152311100Y-93213600D01*
X152311100Y-90673600D02*
X151676100Y-91308600D01*
X151676100Y-91308600D02*
X151676100Y-92578600D01*
X154216100Y-92578600D02*
X153581100Y-93213600D01*
X154216100Y-91308600D02*
X154216100Y-92578600D01*
X153581100Y-90673600D02*
X154216100Y-91308600D01*
X152311100Y-90673600D02*
X153581100Y-90673600D01*
G04 #@! TO.C,JP11*
X156121100Y-98293600D02*
X154851100Y-98293600D01*
X154216100Y-97658600D02*
X154851100Y-98293600D01*
X154851100Y-95753600D02*
X154216100Y-96388600D01*
X154216100Y-96388600D02*
X154216100Y-97658600D01*
X156756100Y-97658600D02*
X156121100Y-98293600D01*
X156756100Y-96388600D02*
X156756100Y-97658600D01*
X156121100Y-95753600D02*
X156756100Y-96388600D01*
X154851100Y-95753600D02*
X156121100Y-95753600D01*
G04 #@! TO.C,JP12*
X156121100Y-95753600D02*
X154851100Y-95753600D01*
X154216100Y-95118600D02*
X154851100Y-95753600D01*
X154851100Y-93213600D02*
X154216100Y-93848600D01*
X154216100Y-93848600D02*
X154216100Y-95118600D01*
X156756100Y-95118600D02*
X156121100Y-95753600D01*
X156756100Y-93848600D02*
X156756100Y-95118600D01*
X156121100Y-93213600D02*
X156756100Y-93848600D01*
X154851100Y-93213600D02*
X156121100Y-93213600D01*
G04 #@! TO.C,JP13*
X156121100Y-93213600D02*
X154851100Y-93213600D01*
X154216100Y-92578600D02*
X154851100Y-93213600D01*
X154851100Y-90673600D02*
X154216100Y-91308600D01*
X154216100Y-91308600D02*
X154216100Y-92578600D01*
X156756100Y-92578600D02*
X156121100Y-93213600D01*
X156756100Y-91308600D02*
X156756100Y-92578600D01*
X156121100Y-90673600D02*
X156756100Y-91308600D01*
X154851100Y-90673600D02*
X156121100Y-90673600D01*
G04 #@! TO.C,JP14*
X172631100Y-93213600D02*
X171361100Y-93213600D01*
X170726100Y-92578600D02*
X171361100Y-93213600D01*
X171361100Y-90673600D02*
X170726100Y-91308600D01*
X170726100Y-91308600D02*
X170726100Y-92578600D01*
X173266100Y-92578600D02*
X172631100Y-93213600D01*
X173266100Y-91308600D02*
X173266100Y-92578600D01*
X172631100Y-90673600D02*
X173266100Y-91308600D01*
X171361100Y-90673600D02*
X172631100Y-90673600D01*
G04 #@! TO.C,JP15*
X172631100Y-95753600D02*
X171361100Y-95753600D01*
X170726100Y-95118600D02*
X171361100Y-95753600D01*
X171361100Y-93213600D02*
X170726100Y-93848600D01*
X170726100Y-93848600D02*
X170726100Y-95118600D01*
X173266100Y-95118600D02*
X172631100Y-95753600D01*
X173266100Y-93848600D02*
X173266100Y-95118600D01*
X172631100Y-93213600D02*
X173266100Y-93848600D01*
X171361100Y-93213600D02*
X172631100Y-93213600D01*
G04 #@! TO.C,JP16*
X172631100Y-98293600D02*
X171361100Y-98293600D01*
X170726100Y-97658600D02*
X171361100Y-98293600D01*
X171361100Y-95753600D02*
X170726100Y-96388600D01*
X170726100Y-96388600D02*
X170726100Y-97658600D01*
X173266100Y-97658600D02*
X172631100Y-98293600D01*
X173266100Y-96388600D02*
X173266100Y-97658600D01*
X172631100Y-95753600D02*
X173266100Y-96388600D01*
X171361100Y-95753600D02*
X172631100Y-95753600D01*
G04 #@! TO.C,JP17*
X172631100Y-100833600D02*
X171361100Y-100833600D01*
X170726100Y-100198600D02*
X171361100Y-100833600D01*
X171361100Y-98293600D02*
X170726100Y-98928600D01*
X170726100Y-98928600D02*
X170726100Y-100198600D01*
X173266100Y-100198600D02*
X172631100Y-100833600D01*
X173266100Y-98928600D02*
X173266100Y-100198600D01*
X172631100Y-98293600D02*
X173266100Y-98928600D01*
X171361100Y-98293600D02*
X172631100Y-98293600D01*
G04 #@! TO.C,JP19*
X170091100Y-93213600D02*
X168821100Y-93213600D01*
X168186100Y-92578600D02*
X168821100Y-93213600D01*
X168821100Y-90673600D02*
X168186100Y-91308600D01*
X168186100Y-91308600D02*
X168186100Y-92578600D01*
X170726100Y-92578600D02*
X170091100Y-93213600D01*
X170726100Y-91308600D02*
X170726100Y-92578600D01*
X170091100Y-90673600D02*
X170726100Y-91308600D01*
X168821100Y-90673600D02*
X170091100Y-90673600D01*
G04 #@! TO.C,JP20*
X170091100Y-95753600D02*
X168821100Y-95753600D01*
X168186100Y-95118600D02*
X168821100Y-95753600D01*
X168821100Y-93213600D02*
X168186100Y-93848600D01*
X168186100Y-93848600D02*
X168186100Y-95118600D01*
X170726100Y-95118600D02*
X170091100Y-95753600D01*
X170726100Y-93848600D02*
X170726100Y-95118600D01*
X170091100Y-93213600D02*
X170726100Y-93848600D01*
X168821100Y-93213600D02*
X170091100Y-93213600D01*
G04 #@! TO.C,JP21*
X170091100Y-98293600D02*
X168821100Y-98293600D01*
X168186100Y-97658600D02*
X168821100Y-98293600D01*
X168821100Y-95753600D02*
X168186100Y-96388600D01*
X168186100Y-96388600D02*
X168186100Y-97658600D01*
X170726100Y-97658600D02*
X170091100Y-98293600D01*
X170726100Y-96388600D02*
X170726100Y-97658600D01*
X170091100Y-95753600D02*
X170726100Y-96388600D01*
X168821100Y-95753600D02*
X170091100Y-95753600D01*
G04 #@! TO.C,JP22*
X170091100Y-100833600D02*
X168821100Y-100833600D01*
X168186100Y-100198600D02*
X168821100Y-100833600D01*
X168821100Y-98293600D02*
X168186100Y-98928600D01*
X168186100Y-98928600D02*
X168186100Y-100198600D01*
X170726100Y-100198600D02*
X170091100Y-100833600D01*
X170726100Y-98928600D02*
X170726100Y-100198600D01*
X170091100Y-98293600D02*
X170726100Y-98928600D01*
X168821100Y-98293600D02*
X170091100Y-98293600D01*
G04 #@! TO.C,JP24*
X153581100Y-123693600D02*
X152311100Y-123693600D01*
X151676100Y-123058600D02*
X152311100Y-123693600D01*
X152311100Y-121153600D02*
X151676100Y-121788600D01*
X151676100Y-121788600D02*
X151676100Y-123058600D01*
X154216100Y-123058600D02*
X153581100Y-123693600D01*
X154216100Y-121788600D02*
X154216100Y-123058600D01*
X153581100Y-121153600D02*
X154216100Y-121788600D01*
X152311100Y-121153600D02*
X153581100Y-121153600D01*
G04 #@! TO.C,JP25*
X151041100Y-123693600D02*
X149771100Y-123693600D01*
X149136100Y-123058600D02*
X149771100Y-123693600D01*
X149771100Y-121153600D02*
X149136100Y-121788600D01*
X149136100Y-121788600D02*
X149136100Y-123058600D01*
X151676100Y-123058600D02*
X151041100Y-123693600D01*
X151676100Y-121788600D02*
X151676100Y-123058600D01*
X151041100Y-121153600D02*
X151676100Y-121788600D01*
X149771100Y-121153600D02*
X151041100Y-121153600D01*
G04 #@! TO.C,JP26*
X148501100Y-123693600D02*
X147231100Y-123693600D01*
X146596100Y-123058600D02*
X147231100Y-123693600D01*
X147231100Y-121153600D02*
X146596100Y-121788600D01*
X146596100Y-121788600D02*
X146596100Y-123058600D01*
X149136100Y-123058600D02*
X148501100Y-123693600D01*
X149136100Y-121788600D02*
X149136100Y-123058600D01*
X148501100Y-121153600D02*
X149136100Y-121788600D01*
X147231100Y-121153600D02*
X148501100Y-121153600D01*
G04 #@! TO.C,JP27*
X128181100Y-108453600D02*
X126911100Y-108453600D01*
X126276100Y-107818600D02*
X126911100Y-108453600D01*
X126911100Y-105913600D02*
X126276100Y-106548600D01*
X126276100Y-106548600D02*
X126276100Y-107818600D01*
X128816100Y-107818600D02*
X128181100Y-108453600D01*
X128816100Y-106548600D02*
X128816100Y-107818600D01*
X128181100Y-105913600D02*
X128816100Y-106548600D01*
X126911100Y-105913600D02*
X128181100Y-105913600D01*
G04 #@! TO.C,JP28*
X128181100Y-118613600D02*
X126911100Y-118613600D01*
X126276100Y-117978600D02*
X126911100Y-118613600D01*
X126911100Y-116073600D02*
X126276100Y-116708600D01*
X126276100Y-116708600D02*
X126276100Y-117978600D01*
X128816100Y-117978600D02*
X128181100Y-118613600D01*
X128816100Y-116708600D02*
X128816100Y-117978600D01*
X128181100Y-116073600D02*
X128816100Y-116708600D01*
X126911100Y-116073600D02*
X128181100Y-116073600D01*
G04 #@! TO.C,JP10*
X172631100Y-115438600D02*
X171361100Y-115438600D01*
X170726100Y-114803600D02*
X171361100Y-115438600D01*
X171361100Y-112898600D02*
X170726100Y-113533600D01*
X170726100Y-113533600D02*
X170726100Y-114803600D01*
X173266100Y-114803600D02*
X172631100Y-115438600D01*
X173266100Y-113533600D02*
X173266100Y-114803600D01*
X172631100Y-112898600D02*
X173266100Y-113533600D01*
X171361100Y-112898600D02*
X172631100Y-112898600D01*
G04 #@! TO.C,JP29*
X175171100Y-115438600D02*
X173901100Y-115438600D01*
X173266100Y-114803600D02*
X173901100Y-115438600D01*
X173901100Y-112898600D02*
X173266100Y-113533600D01*
X173266100Y-113533600D02*
X173266100Y-114803600D01*
X175806100Y-114803600D02*
X175171100Y-115438600D01*
X175806100Y-113533600D02*
X175806100Y-114803600D01*
X175171100Y-112898600D02*
X175806100Y-113533600D01*
X173901100Y-112898600D02*
X175171100Y-112898600D01*
D21*
G04 #@! TO.C,REF\002A\002A*
X170666100Y-126293600D02*
X175866100Y-126293600D01*
X170666100Y-118613600D02*
X170666100Y-126293600D01*
X175866100Y-116013600D02*
X175866100Y-126293600D01*
X170666100Y-118613600D02*
X173266100Y-118613600D01*
X173266100Y-118613600D02*
X173266100Y-116013600D01*
X173266100Y-116013600D02*
X175866100Y-116013600D01*
X170666100Y-117343600D02*
X170666100Y-116013600D01*
X170666100Y-116013600D02*
X171996100Y-116013600D01*
X173206100Y-100893600D02*
X175866100Y-100893600D01*
X173206100Y-93213600D02*
X173206100Y-100893600D01*
X175866100Y-93213600D02*
X175866100Y-100893600D01*
X173206100Y-93213600D02*
X175866100Y-93213600D01*
X173206100Y-91943600D02*
X173206100Y-90613600D01*
X173206100Y-90613600D02*
X174536100Y-90613600D01*
G04 #@! TD*
G04 #@! TO.C,SW1/PC5*
D22*
X127262957Y-96017695D02*
X127435314Y-96075147D01*
X127722576Y-96075147D01*
X127837480Y-96017695D01*
X127894933Y-95960242D01*
X127952385Y-95845338D01*
X127952385Y-95730433D01*
X127894933Y-95615528D01*
X127837480Y-95558076D01*
X127722576Y-95500623D01*
X127492766Y-95443171D01*
X127377861Y-95385719D01*
X127320409Y-95328266D01*
X127262957Y-95213361D01*
X127262957Y-95098457D01*
X127320409Y-94983552D01*
X127377861Y-94926100D01*
X127492766Y-94868647D01*
X127780028Y-94868647D01*
X127952385Y-94926100D01*
X128354552Y-94868647D02*
X128641814Y-96075147D01*
X128871623Y-95213361D01*
X129101433Y-96075147D01*
X129388695Y-94868647D01*
X130480290Y-96075147D02*
X129790861Y-96075147D01*
X130135576Y-96075147D02*
X130135576Y-94868647D01*
X130020671Y-95041004D01*
X129905766Y-95155909D01*
X129790861Y-95213361D01*
X131859147Y-94811195D02*
X130825004Y-96362409D01*
X132261314Y-96075147D02*
X132261314Y-94868647D01*
X132720933Y-94868647D01*
X132835838Y-94926100D01*
X132893290Y-94983552D01*
X132950742Y-95098457D01*
X132950742Y-95270814D01*
X132893290Y-95385719D01*
X132835838Y-95443171D01*
X132720933Y-95500623D01*
X132261314Y-95500623D01*
X134157242Y-95960242D02*
X134099790Y-96017695D01*
X133927433Y-96075147D01*
X133812528Y-96075147D01*
X133640171Y-96017695D01*
X133525266Y-95902790D01*
X133467814Y-95787885D01*
X133410361Y-95558076D01*
X133410361Y-95385719D01*
X133467814Y-95155909D01*
X133525266Y-95041004D01*
X133640171Y-94926100D01*
X133812528Y-94868647D01*
X133927433Y-94868647D01*
X134099790Y-94926100D01*
X134157242Y-94983552D01*
X135248838Y-94868647D02*
X134674314Y-94868647D01*
X134616861Y-95443171D01*
X134674314Y-95385719D01*
X134789219Y-95328266D01*
X135076480Y-95328266D01*
X135191385Y-95385719D01*
X135248838Y-95443171D01*
X135306290Y-95558076D01*
X135306290Y-95845338D01*
X135248838Y-95960242D01*
X135191385Y-96017695D01*
X135076480Y-96075147D01*
X134789219Y-96075147D01*
X134674314Y-96017695D01*
X134616861Y-95960242D01*
G04 #@! TO.C,IC2*
X175062847Y-106897738D02*
X173856347Y-106897738D01*
X174947942Y-105633785D02*
X175005395Y-105691238D01*
X175062847Y-105863595D01*
X175062847Y-105978500D01*
X175005395Y-106150857D01*
X174890490Y-106265761D01*
X174775585Y-106323214D01*
X174545776Y-106380666D01*
X174373419Y-106380666D01*
X174143609Y-106323214D01*
X174028704Y-106265761D01*
X173913800Y-106150857D01*
X173856347Y-105978500D01*
X173856347Y-105863595D01*
X173913800Y-105691238D01*
X173971252Y-105633785D01*
X173971252Y-105174166D02*
X173913800Y-105116714D01*
X173856347Y-105001809D01*
X173856347Y-104714547D01*
X173913800Y-104599642D01*
X173971252Y-104542190D01*
X174086157Y-104484738D01*
X174201061Y-104484738D01*
X174373419Y-104542190D01*
X175062847Y-105231619D01*
X175062847Y-104484738D01*
G04 #@! TO.C,SV1*
D23*
X154186733Y-86199133D02*
X154428033Y-86279566D01*
X154830200Y-86279566D01*
X154991066Y-86199133D01*
X155071500Y-86118700D01*
X155151933Y-85957833D01*
X155151933Y-85796966D01*
X155071500Y-85636100D01*
X154991066Y-85555666D01*
X154830200Y-85475233D01*
X154508466Y-85394800D01*
X154347600Y-85314366D01*
X154267166Y-85233933D01*
X154186733Y-85073066D01*
X154186733Y-84912200D01*
X154267166Y-84751333D01*
X154347600Y-84670900D01*
X154508466Y-84590466D01*
X154910633Y-84590466D01*
X155151933Y-84670900D01*
X155634533Y-84590466D02*
X156197566Y-86279566D01*
X156760600Y-84590466D01*
X158208400Y-86279566D02*
X157243200Y-86279566D01*
X157725800Y-86279566D02*
X157725800Y-84590466D01*
X157564933Y-84831766D01*
X157404066Y-84992633D01*
X157243200Y-85073066D01*
D18*
X162592052Y-86551240D02*
X162534600Y-86493788D01*
X162477147Y-86378883D01*
X162477147Y-86091621D01*
X162534600Y-85976716D01*
X162592052Y-85919264D01*
X162706957Y-85861811D01*
X162821861Y-85861811D01*
X162994219Y-85919264D01*
X163683647Y-86608692D01*
X163683647Y-85861811D01*
X161143647Y-85861811D02*
X161143647Y-86551240D01*
X161143647Y-86206526D02*
X159937147Y-86206526D01*
X160109504Y-86321430D01*
X160224409Y-86436335D01*
X160281861Y-86551240D01*
G04 #@! TO.C,R3*
D22*
X128741690Y-102177547D02*
X128339523Y-101603023D01*
X128052261Y-102177547D02*
X128052261Y-100971047D01*
X128511880Y-100971047D01*
X128626785Y-101028500D01*
X128684238Y-101085952D01*
X128741690Y-101200857D01*
X128741690Y-101373214D01*
X128684238Y-101488119D01*
X128626785Y-101545571D01*
X128511880Y-101603023D01*
X128052261Y-101603023D01*
X129143857Y-100971047D02*
X129890738Y-100971047D01*
X129488571Y-101430666D01*
X129660928Y-101430666D01*
X129775833Y-101488119D01*
X129833285Y-101545571D01*
X129890738Y-101660476D01*
X129890738Y-101947738D01*
X129833285Y-102062642D01*
X129775833Y-102120095D01*
X129660928Y-102177547D01*
X129316214Y-102177547D01*
X129201309Y-102120095D01*
X129143857Y-102062642D01*
G04 #@! TO.C,R4*
X158057547Y-115733309D02*
X157483023Y-116135476D01*
X158057547Y-116422738D02*
X156851047Y-116422738D01*
X156851047Y-115963119D01*
X156908500Y-115848214D01*
X156965952Y-115790761D01*
X157080857Y-115733309D01*
X157253214Y-115733309D01*
X157368119Y-115790761D01*
X157425571Y-115848214D01*
X157483023Y-115963119D01*
X157483023Y-116422738D01*
X157253214Y-114699166D02*
X158057547Y-114699166D01*
X156793595Y-114986428D02*
X157655380Y-115273690D01*
X157655380Y-114526809D01*
G04 #@! TO.C,R5*
X152342547Y-115733309D02*
X151768023Y-116135476D01*
X152342547Y-116422738D02*
X151136047Y-116422738D01*
X151136047Y-115963119D01*
X151193500Y-115848214D01*
X151250952Y-115790761D01*
X151365857Y-115733309D01*
X151538214Y-115733309D01*
X151653119Y-115790761D01*
X151710571Y-115848214D01*
X151768023Y-115963119D01*
X151768023Y-116422738D01*
X151136047Y-114641714D02*
X151136047Y-115216238D01*
X151710571Y-115273690D01*
X151653119Y-115216238D01*
X151595666Y-115101333D01*
X151595666Y-114814071D01*
X151653119Y-114699166D01*
X151710571Y-114641714D01*
X151825476Y-114584261D01*
X152112738Y-114584261D01*
X152227642Y-114641714D01*
X152285095Y-114699166D01*
X152342547Y-114814071D01*
X152342547Y-115101333D01*
X152285095Y-115216238D01*
X152227642Y-115273690D01*
G04 #@! TO.C,R6*
X133746142Y-100458647D02*
X133343976Y-99884123D01*
X133056714Y-100458647D02*
X133056714Y-99252147D01*
X133516333Y-99252147D01*
X133631238Y-99309600D01*
X133688690Y-99367052D01*
X133746142Y-99481957D01*
X133746142Y-99654314D01*
X133688690Y-99769219D01*
X133631238Y-99826671D01*
X133516333Y-99884123D01*
X133056714Y-99884123D01*
X134780285Y-99252147D02*
X134550476Y-99252147D01*
X134435571Y-99309600D01*
X134378119Y-99367052D01*
X134263214Y-99539409D01*
X134205761Y-99769219D01*
X134205761Y-100228838D01*
X134263214Y-100343742D01*
X134320666Y-100401195D01*
X134435571Y-100458647D01*
X134665380Y-100458647D01*
X134780285Y-100401195D01*
X134837738Y-100343742D01*
X134895190Y-100228838D01*
X134895190Y-99941576D01*
X134837738Y-99826671D01*
X134780285Y-99769219D01*
X134665380Y-99711766D01*
X134435571Y-99711766D01*
X134320666Y-99769219D01*
X134263214Y-99826671D01*
X134205761Y-99941576D01*
G04 #@! TO.C,LED1*
X132197952Y-113544047D02*
X131623428Y-113544047D01*
X131623428Y-112337547D01*
X132600119Y-112912071D02*
X133002285Y-112912071D01*
X133174642Y-113544047D02*
X132600119Y-113544047D01*
X132600119Y-112337547D01*
X133174642Y-112337547D01*
X133691714Y-113544047D02*
X133691714Y-112337547D01*
X133978976Y-112337547D01*
X134151333Y-112395000D01*
X134266238Y-112509904D01*
X134323690Y-112624809D01*
X134381142Y-112854619D01*
X134381142Y-113026976D01*
X134323690Y-113256785D01*
X134266238Y-113371690D01*
X134151333Y-113486595D01*
X133978976Y-113544047D01*
X133691714Y-113544047D01*
X135530190Y-113544047D02*
X134840761Y-113544047D01*
X135185476Y-113544047D02*
X135185476Y-112337547D01*
X135070571Y-112509904D01*
X134955666Y-112624809D01*
X134840761Y-112682261D01*
G04 #@! TO.C,X2*
X161612361Y-116016147D02*
X162416695Y-117222647D01*
X162416695Y-116016147D02*
X161612361Y-117222647D01*
X162818861Y-116131052D02*
X162876314Y-116073600D01*
X162991219Y-116016147D01*
X163278480Y-116016147D01*
X163393385Y-116073600D01*
X163450838Y-116131052D01*
X163508290Y-116245957D01*
X163508290Y-116360861D01*
X163450838Y-116533219D01*
X162761409Y-117222647D01*
X163508290Y-117222647D01*
D18*
X165537459Y-123179552D02*
X165594911Y-123122100D01*
X165709816Y-123064647D01*
X165997078Y-123064647D01*
X166111983Y-123122100D01*
X166169435Y-123179552D01*
X166226888Y-123294457D01*
X166226888Y-123409361D01*
X166169435Y-123581719D01*
X165480007Y-124271147D01*
X166226888Y-124271147D01*
X171179888Y-124271147D02*
X170490459Y-124271147D01*
X170835173Y-124271147D02*
X170835173Y-123064647D01*
X170720269Y-123237004D01*
X170605364Y-123351909D01*
X170490459Y-123409361D01*
G04 #@! TD*
M02*
