G04 #@! TF.GenerationSoftware,KiCad,Pcbnew,(5.0.2)-1*
G04 #@! TF.CreationDate,2019-04-02T23:20:26+04:00*
G04 #@! TF.ProjectId,M644_breakout_v1.2d,4d363434-5f62-4726-9561-6b6f75745f76,v1.2d*
G04 #@! TF.SameCoordinates,Original*
G04 #@! TF.FileFunction,Soldermask,Bot*
G04 #@! TF.FilePolarity,Negative*
%FSLAX46Y46*%
G04 Gerber Fmt 4.6, Leading zero omitted, Abs format (unit mm)*
G04 Created by KiCad (PCBNEW (5.0.2)-1) date 02/04/2019 23:20:26*
%MOMM*%
%LPD*%
G01*
G04 APERTURE LIST*
%ADD10C,0.100000*%
G04 APERTURE END LIST*
D10*
G36*
X163314949Y-120594152D02*
X163331579Y-120595790D01*
X163376165Y-120609315D01*
X163509928Y-120649892D01*
X163674296Y-120737749D01*
X163818366Y-120855984D01*
X163936601Y-121000054D01*
X164024458Y-121164422D01*
X164078560Y-121342772D01*
X164092250Y-121481769D01*
X164092250Y-123365431D01*
X164078560Y-123504428D01*
X164027872Y-123671523D01*
X164023093Y-123695547D01*
X164023093Y-123720052D01*
X164027873Y-123744085D01*
X164037251Y-123766724D01*
X164050864Y-123787099D01*
X164068191Y-123804426D01*
X164088566Y-123818040D01*
X164111205Y-123827417D01*
X164135238Y-123832198D01*
X164147491Y-123832800D01*
X164556900Y-123832800D01*
X164556900Y-126094400D01*
X162675300Y-126094400D01*
X162675300Y-124215051D01*
X162672898Y-124190665D01*
X162665785Y-124167216D01*
X162654234Y-124145605D01*
X162638688Y-124126663D01*
X162627345Y-124117353D01*
X162627421Y-124117260D01*
X162617909Y-124109454D01*
X162617904Y-124109451D01*
X162473834Y-123991216D01*
X162446521Y-123957935D01*
X162429200Y-123940614D01*
X162408825Y-123927000D01*
X162386186Y-123917623D01*
X162362153Y-123912842D01*
X162337649Y-123912842D01*
X162313615Y-123917622D01*
X162290976Y-123926999D01*
X162270601Y-123940613D01*
X162253274Y-123957940D01*
X162239660Y-123978315D01*
X162230283Y-124000954D01*
X162225502Y-124024987D01*
X162224900Y-124037240D01*
X162224900Y-124654400D01*
X159923300Y-124654400D01*
X159923300Y-122752800D01*
X162074950Y-122752800D01*
X162099336Y-122750398D01*
X162122785Y-122743285D01*
X162144396Y-122731734D01*
X162163338Y-122716188D01*
X162178884Y-122697246D01*
X162190435Y-122675635D01*
X162197548Y-122652186D01*
X162199950Y-122627800D01*
X162199950Y-121481776D01*
X162213641Y-121342771D01*
X162227166Y-121298185D01*
X162267743Y-121164422D01*
X162355600Y-121000054D01*
X162473835Y-120855984D01*
X162617905Y-120737749D01*
X162782273Y-120649892D01*
X162916036Y-120609315D01*
X162960622Y-120595790D01*
X162977252Y-120594152D01*
X163146100Y-120577522D01*
X163314949Y-120594152D01*
X163314949Y-120594152D01*
G37*
G36*
X168314949Y-120594152D02*
X168331579Y-120595790D01*
X168376165Y-120609315D01*
X168509928Y-120649892D01*
X168674296Y-120737749D01*
X168818366Y-120855984D01*
X168936601Y-121000054D01*
X169024458Y-121164422D01*
X169078560Y-121342772D01*
X169092250Y-121481769D01*
X169092250Y-123365431D01*
X169078560Y-123504428D01*
X169024458Y-123682778D01*
X168936601Y-123847146D01*
X168818366Y-123991216D01*
X168674296Y-124109451D01*
X168674292Y-124109453D01*
X168672601Y-124110841D01*
X168655274Y-124128169D01*
X168641660Y-124148543D01*
X168632283Y-124171182D01*
X168627502Y-124195216D01*
X168626900Y-124207468D01*
X168626900Y-126094400D01*
X166745300Y-126094400D01*
X166745300Y-123832800D01*
X167144709Y-123832800D01*
X167169095Y-123830398D01*
X167192544Y-123823285D01*
X167214155Y-123811734D01*
X167233097Y-123796188D01*
X167248643Y-123777246D01*
X167260194Y-123755635D01*
X167267307Y-123732186D01*
X167269709Y-123707800D01*
X167267307Y-123683414D01*
X167264329Y-123671525D01*
X167230638Y-123560461D01*
X167213640Y-123504428D01*
X167211684Y-123484570D01*
X167199950Y-123365430D01*
X167199950Y-121481776D01*
X167213641Y-121342771D01*
X167227166Y-121298185D01*
X167267743Y-121164422D01*
X167355600Y-121000054D01*
X167473835Y-120855984D01*
X167617905Y-120737749D01*
X167782273Y-120649892D01*
X167916036Y-120609315D01*
X167960622Y-120595790D01*
X167977252Y-120594152D01*
X168146100Y-120577522D01*
X168314949Y-120594152D01*
X168314949Y-120594152D01*
G37*
G36*
X148049445Y-124041858D02*
X148140229Y-124059916D01*
X148311262Y-124130760D01*
X148437412Y-124215051D01*
X148465190Y-124233612D01*
X148596088Y-124364510D01*
X148596090Y-124364513D01*
X148698940Y-124518438D01*
X148769784Y-124689471D01*
X148805900Y-124871038D01*
X148805900Y-125056162D01*
X148769784Y-125237729D01*
X148698940Y-125408762D01*
X148597479Y-125560609D01*
X148596088Y-125562690D01*
X148465190Y-125693588D01*
X148465187Y-125693590D01*
X148311262Y-125796440D01*
X148140229Y-125867284D01*
X148049446Y-125885342D01*
X147958664Y-125903400D01*
X147773536Y-125903400D01*
X147682754Y-125885342D01*
X147591971Y-125867284D01*
X147420938Y-125796440D01*
X147267013Y-125693590D01*
X147267010Y-125693588D01*
X147136112Y-125562690D01*
X147134721Y-125560609D01*
X147033260Y-125408762D01*
X146962416Y-125237729D01*
X146926300Y-125056162D01*
X146926300Y-124871038D01*
X146962416Y-124689471D01*
X147033260Y-124518438D01*
X147136110Y-124364513D01*
X147136112Y-124364510D01*
X147267010Y-124233612D01*
X147294788Y-124215051D01*
X147420938Y-124130760D01*
X147591971Y-124059916D01*
X147682755Y-124041858D01*
X147773536Y-124023800D01*
X147958664Y-124023800D01*
X148049445Y-124041858D01*
X148049445Y-124041858D01*
G37*
G36*
X130269445Y-124041858D02*
X130360229Y-124059916D01*
X130531262Y-124130760D01*
X130657412Y-124215051D01*
X130685190Y-124233612D01*
X130816088Y-124364510D01*
X130816090Y-124364513D01*
X130918940Y-124518438D01*
X130989784Y-124689471D01*
X131025900Y-124871038D01*
X131025900Y-125056162D01*
X130989784Y-125237729D01*
X130918940Y-125408762D01*
X130817479Y-125560609D01*
X130816088Y-125562690D01*
X130685190Y-125693588D01*
X130685187Y-125693590D01*
X130531262Y-125796440D01*
X130360229Y-125867284D01*
X130269446Y-125885342D01*
X130178664Y-125903400D01*
X129993536Y-125903400D01*
X129902754Y-125885342D01*
X129811971Y-125867284D01*
X129640938Y-125796440D01*
X129487013Y-125693590D01*
X129487010Y-125693588D01*
X129356112Y-125562690D01*
X129354721Y-125560609D01*
X129253260Y-125408762D01*
X129182416Y-125237729D01*
X129146300Y-125056162D01*
X129146300Y-124871038D01*
X129182416Y-124689471D01*
X129253260Y-124518438D01*
X129356110Y-124364513D01*
X129356112Y-124364510D01*
X129487010Y-124233612D01*
X129514788Y-124215051D01*
X129640938Y-124130760D01*
X129811971Y-124059916D01*
X129902755Y-124041858D01*
X129993536Y-124023800D01*
X130178664Y-124023800D01*
X130269445Y-124041858D01*
X130269445Y-124041858D01*
G37*
G36*
X132809445Y-124041858D02*
X132900229Y-124059916D01*
X133071262Y-124130760D01*
X133197412Y-124215051D01*
X133225190Y-124233612D01*
X133356088Y-124364510D01*
X133356090Y-124364513D01*
X133458940Y-124518438D01*
X133529784Y-124689471D01*
X133565900Y-124871038D01*
X133565900Y-125056162D01*
X133529784Y-125237729D01*
X133458940Y-125408762D01*
X133357479Y-125560609D01*
X133356088Y-125562690D01*
X133225190Y-125693588D01*
X133225187Y-125693590D01*
X133071262Y-125796440D01*
X132900229Y-125867284D01*
X132809446Y-125885342D01*
X132718664Y-125903400D01*
X132533536Y-125903400D01*
X132442754Y-125885342D01*
X132351971Y-125867284D01*
X132180938Y-125796440D01*
X132027013Y-125693590D01*
X132027010Y-125693588D01*
X131896112Y-125562690D01*
X131894721Y-125560609D01*
X131793260Y-125408762D01*
X131722416Y-125237729D01*
X131686300Y-125056162D01*
X131686300Y-124871038D01*
X131722416Y-124689471D01*
X131793260Y-124518438D01*
X131896110Y-124364513D01*
X131896112Y-124364510D01*
X132027010Y-124233612D01*
X132054788Y-124215051D01*
X132180938Y-124130760D01*
X132351971Y-124059916D01*
X132442755Y-124041858D01*
X132533536Y-124023800D01*
X132718664Y-124023800D01*
X132809445Y-124041858D01*
X132809445Y-124041858D01*
G37*
G36*
X135349445Y-124041858D02*
X135440229Y-124059916D01*
X135611262Y-124130760D01*
X135737412Y-124215051D01*
X135765190Y-124233612D01*
X135896088Y-124364510D01*
X135896090Y-124364513D01*
X135998940Y-124518438D01*
X136069784Y-124689471D01*
X136105900Y-124871038D01*
X136105900Y-125056162D01*
X136069784Y-125237729D01*
X135998940Y-125408762D01*
X135897479Y-125560609D01*
X135896088Y-125562690D01*
X135765190Y-125693588D01*
X135765187Y-125693590D01*
X135611262Y-125796440D01*
X135440229Y-125867284D01*
X135349446Y-125885342D01*
X135258664Y-125903400D01*
X135073536Y-125903400D01*
X134982754Y-125885342D01*
X134891971Y-125867284D01*
X134720938Y-125796440D01*
X134567013Y-125693590D01*
X134567010Y-125693588D01*
X134436112Y-125562690D01*
X134434721Y-125560609D01*
X134333260Y-125408762D01*
X134262416Y-125237729D01*
X134226300Y-125056162D01*
X134226300Y-124871038D01*
X134262416Y-124689471D01*
X134333260Y-124518438D01*
X134436110Y-124364513D01*
X134436112Y-124364510D01*
X134567010Y-124233612D01*
X134594788Y-124215051D01*
X134720938Y-124130760D01*
X134891971Y-124059916D01*
X134982755Y-124041858D01*
X135073536Y-124023800D01*
X135258664Y-124023800D01*
X135349445Y-124041858D01*
X135349445Y-124041858D01*
G37*
G36*
X137889445Y-124041858D02*
X137980229Y-124059916D01*
X138151262Y-124130760D01*
X138277412Y-124215051D01*
X138305190Y-124233612D01*
X138436088Y-124364510D01*
X138436090Y-124364513D01*
X138538940Y-124518438D01*
X138609784Y-124689471D01*
X138645900Y-124871038D01*
X138645900Y-125056162D01*
X138609784Y-125237729D01*
X138538940Y-125408762D01*
X138437479Y-125560609D01*
X138436088Y-125562690D01*
X138305190Y-125693588D01*
X138305187Y-125693590D01*
X138151262Y-125796440D01*
X137980229Y-125867284D01*
X137889446Y-125885342D01*
X137798664Y-125903400D01*
X137613536Y-125903400D01*
X137522754Y-125885342D01*
X137431971Y-125867284D01*
X137260938Y-125796440D01*
X137107013Y-125693590D01*
X137107010Y-125693588D01*
X136976112Y-125562690D01*
X136974721Y-125560609D01*
X136873260Y-125408762D01*
X136802416Y-125237729D01*
X136766300Y-125056162D01*
X136766300Y-124871038D01*
X136802416Y-124689471D01*
X136873260Y-124518438D01*
X136976110Y-124364513D01*
X136976112Y-124364510D01*
X137107010Y-124233612D01*
X137134788Y-124215051D01*
X137260938Y-124130760D01*
X137431971Y-124059916D01*
X137522755Y-124041858D01*
X137613536Y-124023800D01*
X137798664Y-124023800D01*
X137889445Y-124041858D01*
X137889445Y-124041858D01*
G37*
G36*
X140429445Y-124041858D02*
X140520229Y-124059916D01*
X140691262Y-124130760D01*
X140817412Y-124215051D01*
X140845190Y-124233612D01*
X140976088Y-124364510D01*
X140976090Y-124364513D01*
X141078940Y-124518438D01*
X141149784Y-124689471D01*
X141185900Y-124871038D01*
X141185900Y-125056162D01*
X141149784Y-125237729D01*
X141078940Y-125408762D01*
X140977479Y-125560609D01*
X140976088Y-125562690D01*
X140845190Y-125693588D01*
X140845187Y-125693590D01*
X140691262Y-125796440D01*
X140520229Y-125867284D01*
X140429446Y-125885342D01*
X140338664Y-125903400D01*
X140153536Y-125903400D01*
X140062754Y-125885342D01*
X139971971Y-125867284D01*
X139800938Y-125796440D01*
X139647013Y-125693590D01*
X139647010Y-125693588D01*
X139516112Y-125562690D01*
X139514721Y-125560609D01*
X139413260Y-125408762D01*
X139342416Y-125237729D01*
X139306300Y-125056162D01*
X139306300Y-124871038D01*
X139342416Y-124689471D01*
X139413260Y-124518438D01*
X139516110Y-124364513D01*
X139516112Y-124364510D01*
X139647010Y-124233612D01*
X139674788Y-124215051D01*
X139800938Y-124130760D01*
X139971971Y-124059916D01*
X140062755Y-124041858D01*
X140153536Y-124023800D01*
X140338664Y-124023800D01*
X140429445Y-124041858D01*
X140429445Y-124041858D01*
G37*
G36*
X145509445Y-124041858D02*
X145600229Y-124059916D01*
X145771262Y-124130760D01*
X145897412Y-124215051D01*
X145925190Y-124233612D01*
X146056088Y-124364510D01*
X146056090Y-124364513D01*
X146158940Y-124518438D01*
X146229784Y-124689471D01*
X146265900Y-124871038D01*
X146265900Y-125056162D01*
X146229784Y-125237729D01*
X146158940Y-125408762D01*
X146057479Y-125560609D01*
X146056088Y-125562690D01*
X145925190Y-125693588D01*
X145925187Y-125693590D01*
X145771262Y-125796440D01*
X145600229Y-125867284D01*
X145509446Y-125885342D01*
X145418664Y-125903400D01*
X145233536Y-125903400D01*
X145142754Y-125885342D01*
X145051971Y-125867284D01*
X144880938Y-125796440D01*
X144727013Y-125693590D01*
X144727010Y-125693588D01*
X144596112Y-125562690D01*
X144594721Y-125560609D01*
X144493260Y-125408762D01*
X144422416Y-125237729D01*
X144386300Y-125056162D01*
X144386300Y-124871038D01*
X144422416Y-124689471D01*
X144493260Y-124518438D01*
X144596110Y-124364513D01*
X144596112Y-124364510D01*
X144727010Y-124233612D01*
X144754788Y-124215051D01*
X144880938Y-124130760D01*
X145051971Y-124059916D01*
X145142755Y-124041858D01*
X145233536Y-124023800D01*
X145418664Y-124023800D01*
X145509445Y-124041858D01*
X145509445Y-124041858D01*
G37*
G36*
X150589445Y-124041858D02*
X150680229Y-124059916D01*
X150851262Y-124130760D01*
X150977412Y-124215051D01*
X151005190Y-124233612D01*
X151136088Y-124364510D01*
X151136090Y-124364513D01*
X151238940Y-124518438D01*
X151309784Y-124689471D01*
X151345900Y-124871038D01*
X151345900Y-125056162D01*
X151309784Y-125237729D01*
X151238940Y-125408762D01*
X151137479Y-125560609D01*
X151136088Y-125562690D01*
X151005190Y-125693588D01*
X151005187Y-125693590D01*
X150851262Y-125796440D01*
X150680229Y-125867284D01*
X150589446Y-125885342D01*
X150498664Y-125903400D01*
X150313536Y-125903400D01*
X150222754Y-125885342D01*
X150131971Y-125867284D01*
X149960938Y-125796440D01*
X149807013Y-125693590D01*
X149807010Y-125693588D01*
X149676112Y-125562690D01*
X149674721Y-125560609D01*
X149573260Y-125408762D01*
X149502416Y-125237729D01*
X149466300Y-125056162D01*
X149466300Y-124871038D01*
X149502416Y-124689471D01*
X149573260Y-124518438D01*
X149676110Y-124364513D01*
X149676112Y-124364510D01*
X149807010Y-124233612D01*
X149834788Y-124215051D01*
X149960938Y-124130760D01*
X150131971Y-124059916D01*
X150222755Y-124041858D01*
X150313536Y-124023800D01*
X150498664Y-124023800D01*
X150589445Y-124041858D01*
X150589445Y-124041858D01*
G37*
G36*
X153129445Y-124041858D02*
X153220229Y-124059916D01*
X153391262Y-124130760D01*
X153517412Y-124215051D01*
X153545190Y-124233612D01*
X153676088Y-124364510D01*
X153676090Y-124364513D01*
X153778940Y-124518438D01*
X153849784Y-124689471D01*
X153885900Y-124871038D01*
X153885900Y-125056162D01*
X153849784Y-125237729D01*
X153778940Y-125408762D01*
X153677479Y-125560609D01*
X153676088Y-125562690D01*
X153545190Y-125693588D01*
X153545187Y-125693590D01*
X153391262Y-125796440D01*
X153220229Y-125867284D01*
X153129446Y-125885342D01*
X153038664Y-125903400D01*
X152853536Y-125903400D01*
X152762754Y-125885342D01*
X152671971Y-125867284D01*
X152500938Y-125796440D01*
X152347013Y-125693590D01*
X152347010Y-125693588D01*
X152216112Y-125562690D01*
X152214721Y-125560609D01*
X152113260Y-125408762D01*
X152042416Y-125237729D01*
X152006300Y-125056162D01*
X152006300Y-124871038D01*
X152042416Y-124689471D01*
X152113260Y-124518438D01*
X152216110Y-124364513D01*
X152216112Y-124364510D01*
X152347010Y-124233612D01*
X152374788Y-124215051D01*
X152500938Y-124130760D01*
X152671971Y-124059916D01*
X152762755Y-124041858D01*
X152853536Y-124023800D01*
X153038664Y-124023800D01*
X153129445Y-124041858D01*
X153129445Y-124041858D01*
G37*
G36*
X155669445Y-124041858D02*
X155760229Y-124059916D01*
X155931262Y-124130760D01*
X156057412Y-124215051D01*
X156085190Y-124233612D01*
X156216088Y-124364510D01*
X156216090Y-124364513D01*
X156318940Y-124518438D01*
X156389784Y-124689471D01*
X156425900Y-124871038D01*
X156425900Y-125056162D01*
X156389784Y-125237729D01*
X156318940Y-125408762D01*
X156217479Y-125560609D01*
X156216088Y-125562690D01*
X156085190Y-125693588D01*
X156085187Y-125693590D01*
X155931262Y-125796440D01*
X155760229Y-125867284D01*
X155669446Y-125885342D01*
X155578664Y-125903400D01*
X155393536Y-125903400D01*
X155302754Y-125885342D01*
X155211971Y-125867284D01*
X155040938Y-125796440D01*
X154887013Y-125693590D01*
X154887010Y-125693588D01*
X154756112Y-125562690D01*
X154754721Y-125560609D01*
X154653260Y-125408762D01*
X154582416Y-125237729D01*
X154546300Y-125056162D01*
X154546300Y-124871038D01*
X154582416Y-124689471D01*
X154653260Y-124518438D01*
X154756110Y-124364513D01*
X154756112Y-124364510D01*
X154887010Y-124233612D01*
X154914788Y-124215051D01*
X155040938Y-124130760D01*
X155211971Y-124059916D01*
X155302755Y-124041858D01*
X155393536Y-124023800D01*
X155578664Y-124023800D01*
X155669445Y-124041858D01*
X155669445Y-124041858D01*
G37*
G36*
X158209445Y-124041858D02*
X158300229Y-124059916D01*
X158471262Y-124130760D01*
X158597412Y-124215051D01*
X158625190Y-124233612D01*
X158756088Y-124364510D01*
X158756090Y-124364513D01*
X158858940Y-124518438D01*
X158929784Y-124689471D01*
X158965900Y-124871038D01*
X158965900Y-125056162D01*
X158929784Y-125237729D01*
X158858940Y-125408762D01*
X158757479Y-125560609D01*
X158756088Y-125562690D01*
X158625190Y-125693588D01*
X158625187Y-125693590D01*
X158471262Y-125796440D01*
X158300229Y-125867284D01*
X158209446Y-125885342D01*
X158118664Y-125903400D01*
X157933536Y-125903400D01*
X157842754Y-125885342D01*
X157751971Y-125867284D01*
X157580938Y-125796440D01*
X157427013Y-125693590D01*
X157427010Y-125693588D01*
X157296112Y-125562690D01*
X157294721Y-125560609D01*
X157193260Y-125408762D01*
X157122416Y-125237729D01*
X157086300Y-125056162D01*
X157086300Y-124871038D01*
X157122416Y-124689471D01*
X157193260Y-124518438D01*
X157296110Y-124364513D01*
X157296112Y-124364510D01*
X157427010Y-124233612D01*
X157454788Y-124215051D01*
X157580938Y-124130760D01*
X157751971Y-124059916D01*
X157842755Y-124041858D01*
X157933536Y-124023800D01*
X158118664Y-124023800D01*
X158209445Y-124041858D01*
X158209445Y-124041858D01*
G37*
G36*
X142969445Y-124041858D02*
X143060229Y-124059916D01*
X143231262Y-124130760D01*
X143357412Y-124215051D01*
X143385190Y-124233612D01*
X143516088Y-124364510D01*
X143516090Y-124364513D01*
X143618940Y-124518438D01*
X143689784Y-124689471D01*
X143725900Y-124871038D01*
X143725900Y-125056162D01*
X143689784Y-125237729D01*
X143618940Y-125408762D01*
X143517479Y-125560609D01*
X143516088Y-125562690D01*
X143385190Y-125693588D01*
X143385187Y-125693590D01*
X143231262Y-125796440D01*
X143060229Y-125867284D01*
X142969446Y-125885342D01*
X142878664Y-125903400D01*
X142693536Y-125903400D01*
X142602754Y-125885342D01*
X142511971Y-125867284D01*
X142340938Y-125796440D01*
X142187013Y-125693590D01*
X142187010Y-125693588D01*
X142056112Y-125562690D01*
X142054721Y-125560609D01*
X141953260Y-125408762D01*
X141882416Y-125237729D01*
X141846300Y-125056162D01*
X141846300Y-124871038D01*
X141882416Y-124689471D01*
X141953260Y-124518438D01*
X142056110Y-124364513D01*
X142056112Y-124364510D01*
X142187010Y-124233612D01*
X142214788Y-124215051D01*
X142340938Y-124130760D01*
X142511971Y-124059916D01*
X142602755Y-124041858D01*
X142693536Y-124023800D01*
X142878664Y-124023800D01*
X142969445Y-124041858D01*
X142969445Y-124041858D01*
G37*
G36*
X172106543Y-124069119D02*
X172172727Y-124075637D01*
X172284197Y-124109451D01*
X172342567Y-124127157D01*
X172473808Y-124197308D01*
X172499091Y-124210822D01*
X172526858Y-124233610D01*
X172636286Y-124323414D01*
X172719548Y-124424871D01*
X172748878Y-124460609D01*
X172748879Y-124460611D01*
X172832543Y-124617133D01*
X172849716Y-124673747D01*
X172884063Y-124786973D01*
X172901459Y-124963600D01*
X172884063Y-125140227D01*
X172854487Y-125237727D01*
X172832543Y-125310067D01*
X172779788Y-125408763D01*
X172748878Y-125466591D01*
X172719548Y-125502329D01*
X172636286Y-125603786D01*
X172534829Y-125687048D01*
X172499091Y-125716378D01*
X172499089Y-125716379D01*
X172342567Y-125800043D01*
X172285953Y-125817216D01*
X172172727Y-125851563D01*
X172106542Y-125858082D01*
X172040360Y-125864600D01*
X171951840Y-125864600D01*
X171885658Y-125858082D01*
X171819473Y-125851563D01*
X171706247Y-125817216D01*
X171649633Y-125800043D01*
X171493111Y-125716379D01*
X171493109Y-125716378D01*
X171457371Y-125687048D01*
X171355914Y-125603786D01*
X171272652Y-125502329D01*
X171243322Y-125466591D01*
X171212412Y-125408763D01*
X171159657Y-125310067D01*
X171137713Y-125237727D01*
X171108137Y-125140227D01*
X171090741Y-124963600D01*
X171108137Y-124786973D01*
X171142484Y-124673747D01*
X171159657Y-124617133D01*
X171243321Y-124460611D01*
X171243322Y-124460609D01*
X171272652Y-124424871D01*
X171355914Y-124323414D01*
X171465342Y-124233610D01*
X171493109Y-124210822D01*
X171518392Y-124197308D01*
X171649633Y-124127157D01*
X171708003Y-124109451D01*
X171819473Y-124075637D01*
X171885657Y-124069119D01*
X171951840Y-124062600D01*
X172040360Y-124062600D01*
X172106543Y-124069119D01*
X172106543Y-124069119D01*
G37*
G36*
X174646543Y-124069119D02*
X174712727Y-124075637D01*
X174824197Y-124109451D01*
X174882567Y-124127157D01*
X175013808Y-124197308D01*
X175039091Y-124210822D01*
X175066858Y-124233610D01*
X175176286Y-124323414D01*
X175259548Y-124424871D01*
X175288878Y-124460609D01*
X175288879Y-124460611D01*
X175372543Y-124617133D01*
X175389716Y-124673747D01*
X175424063Y-124786973D01*
X175441459Y-124963600D01*
X175424063Y-125140227D01*
X175394487Y-125237727D01*
X175372543Y-125310067D01*
X175319788Y-125408763D01*
X175288878Y-125466591D01*
X175259548Y-125502329D01*
X175176286Y-125603786D01*
X175074829Y-125687048D01*
X175039091Y-125716378D01*
X175039089Y-125716379D01*
X174882567Y-125800043D01*
X174825953Y-125817216D01*
X174712727Y-125851563D01*
X174646542Y-125858082D01*
X174580360Y-125864600D01*
X174491840Y-125864600D01*
X174425658Y-125858082D01*
X174359473Y-125851563D01*
X174246247Y-125817216D01*
X174189633Y-125800043D01*
X174033111Y-125716379D01*
X174033109Y-125716378D01*
X173997371Y-125687048D01*
X173895914Y-125603786D01*
X173812652Y-125502329D01*
X173783322Y-125466591D01*
X173752412Y-125408763D01*
X173699657Y-125310067D01*
X173677713Y-125237727D01*
X173648137Y-125140227D01*
X173630741Y-124963600D01*
X173648137Y-124786973D01*
X173682484Y-124673747D01*
X173699657Y-124617133D01*
X173783321Y-124460611D01*
X173783322Y-124460609D01*
X173812652Y-124424871D01*
X173895914Y-124323414D01*
X174005342Y-124233610D01*
X174033109Y-124210822D01*
X174058392Y-124197308D01*
X174189633Y-124127157D01*
X174248003Y-124109451D01*
X174359473Y-124075637D01*
X174425657Y-124069119D01*
X174491840Y-124062600D01*
X174580360Y-124062600D01*
X174646543Y-124069119D01*
X174646543Y-124069119D01*
G37*
G36*
X151206900Y-121434400D02*
X151049121Y-121434400D01*
X151024735Y-121436802D01*
X151001286Y-121443915D01*
X150979675Y-121455466D01*
X150960733Y-121471012D01*
X150945187Y-121489954D01*
X150933636Y-121511565D01*
X150926523Y-121535014D01*
X150924121Y-121559400D01*
X150926523Y-121583786D01*
X150933636Y-121607235D01*
X150945187Y-121628846D01*
X150960733Y-121647788D01*
X150979666Y-121663326D01*
X151012200Y-121685065D01*
X151144635Y-121817500D01*
X151248688Y-121973227D01*
X151320362Y-122146262D01*
X151356900Y-122329954D01*
X151356900Y-122517246D01*
X151320362Y-122700938D01*
X151248688Y-122873973D01*
X151144635Y-123029700D01*
X151012200Y-123162135D01*
X150856473Y-123266188D01*
X150683438Y-123337862D01*
X150499746Y-123374400D01*
X150312454Y-123374400D01*
X150128762Y-123337862D01*
X149955727Y-123266188D01*
X149800000Y-123162135D01*
X149667565Y-123029700D01*
X149563512Y-122873973D01*
X149491838Y-122700938D01*
X149455300Y-122517246D01*
X149455300Y-122329954D01*
X149491838Y-122146262D01*
X149563512Y-121973227D01*
X149667565Y-121817500D01*
X149800000Y-121685065D01*
X149832534Y-121663326D01*
X149851467Y-121647788D01*
X149867013Y-121628846D01*
X149878564Y-121607235D01*
X149885677Y-121583786D01*
X149888079Y-121559400D01*
X149885677Y-121535014D01*
X149878564Y-121511565D01*
X149867013Y-121489954D01*
X149851467Y-121471012D01*
X149832525Y-121455466D01*
X149810914Y-121443915D01*
X149787465Y-121436802D01*
X149763079Y-121434400D01*
X149605300Y-121434400D01*
X149605300Y-120032800D01*
X151206900Y-120032800D01*
X151206900Y-121434400D01*
X151206900Y-121434400D01*
G37*
G36*
X153223438Y-121509338D02*
X153396473Y-121581012D01*
X153552200Y-121685065D01*
X153684635Y-121817500D01*
X153770572Y-121946114D01*
X153786112Y-121965049D01*
X153805054Y-121980595D01*
X153826665Y-121992146D01*
X153836679Y-121995184D01*
X153829875Y-122017614D01*
X153827473Y-122042000D01*
X153829875Y-122066386D01*
X153836985Y-122089826D01*
X153860362Y-122146262D01*
X153896900Y-122329954D01*
X153896900Y-122517246D01*
X153860362Y-122700938D01*
X153788688Y-122873973D01*
X153684635Y-123029700D01*
X153552200Y-123162135D01*
X153396473Y-123266188D01*
X153223438Y-123337862D01*
X153039746Y-123374400D01*
X152852454Y-123374400D01*
X152668762Y-123337862D01*
X152495727Y-123266188D01*
X152340000Y-123162135D01*
X152207565Y-123029700D01*
X152103512Y-122873973D01*
X152031838Y-122700938D01*
X151995300Y-122517246D01*
X151995300Y-122329954D01*
X152031838Y-122146262D01*
X152103512Y-121973227D01*
X152207565Y-121817500D01*
X152340000Y-121685065D01*
X152495727Y-121581012D01*
X152668762Y-121509338D01*
X152852454Y-121472800D01*
X153039746Y-121472800D01*
X153223438Y-121509338D01*
X153223438Y-121509338D01*
G37*
G36*
X148143438Y-121509338D02*
X148316473Y-121581012D01*
X148472200Y-121685065D01*
X148604635Y-121817500D01*
X148708688Y-121973227D01*
X148780362Y-122146262D01*
X148816900Y-122329954D01*
X148816900Y-122517246D01*
X148780362Y-122700938D01*
X148708688Y-122873973D01*
X148604635Y-123029700D01*
X148472200Y-123162135D01*
X148316473Y-123266188D01*
X148143438Y-123337862D01*
X147959746Y-123374400D01*
X147772454Y-123374400D01*
X147588762Y-123337862D01*
X147415727Y-123266188D01*
X147260000Y-123162135D01*
X147127565Y-123029700D01*
X147023512Y-122873973D01*
X146951838Y-122700938D01*
X146915300Y-122517246D01*
X146915300Y-122329954D01*
X146951838Y-122146262D01*
X147023512Y-121973227D01*
X147127565Y-121817500D01*
X147260000Y-121685065D01*
X147415727Y-121581012D01*
X147588762Y-121509338D01*
X147772454Y-121472800D01*
X147959746Y-121472800D01*
X148143438Y-121509338D01*
X148143438Y-121509338D01*
G37*
G36*
X172106543Y-121529119D02*
X172172727Y-121535637D01*
X172251063Y-121559400D01*
X172342567Y-121587157D01*
X172420560Y-121628846D01*
X172499091Y-121670822D01*
X172534829Y-121700152D01*
X172636286Y-121783414D01*
X172712811Y-121876661D01*
X172748878Y-121920609D01*
X172748879Y-121920611D01*
X172832543Y-122077133D01*
X172832543Y-122077134D01*
X172884063Y-122246973D01*
X172901459Y-122423600D01*
X172884063Y-122600227D01*
X172868301Y-122652186D01*
X172832543Y-122770067D01*
X172777004Y-122873971D01*
X172748878Y-122926591D01*
X172719548Y-122962329D01*
X172636286Y-123063786D01*
X172534829Y-123147048D01*
X172499091Y-123176378D01*
X172499089Y-123176379D01*
X172342567Y-123260043D01*
X172322309Y-123266188D01*
X172172727Y-123311563D01*
X172106543Y-123318081D01*
X172040360Y-123324600D01*
X171951840Y-123324600D01*
X171885657Y-123318081D01*
X171819473Y-123311563D01*
X171669891Y-123266188D01*
X171649633Y-123260043D01*
X171493111Y-123176379D01*
X171493109Y-123176378D01*
X171457371Y-123147048D01*
X171355914Y-123063786D01*
X171272652Y-122962329D01*
X171243322Y-122926591D01*
X171215196Y-122873971D01*
X171159657Y-122770067D01*
X171123899Y-122652186D01*
X171108137Y-122600227D01*
X171090741Y-122423600D01*
X171108137Y-122246973D01*
X171159657Y-122077134D01*
X171159657Y-122077133D01*
X171243321Y-121920611D01*
X171243322Y-121920609D01*
X171279389Y-121876661D01*
X171355914Y-121783414D01*
X171457371Y-121700152D01*
X171493109Y-121670822D01*
X171571640Y-121628846D01*
X171649633Y-121587157D01*
X171741137Y-121559400D01*
X171819473Y-121535637D01*
X171885657Y-121529119D01*
X171951840Y-121522600D01*
X172040360Y-121522600D01*
X172106543Y-121529119D01*
X172106543Y-121529119D01*
G37*
G36*
X174646543Y-121529119D02*
X174712727Y-121535637D01*
X174791063Y-121559400D01*
X174882567Y-121587157D01*
X174960560Y-121628846D01*
X175039091Y-121670822D01*
X175074829Y-121700152D01*
X175176286Y-121783414D01*
X175252811Y-121876661D01*
X175288878Y-121920609D01*
X175288879Y-121920611D01*
X175372543Y-122077133D01*
X175372543Y-122077134D01*
X175424063Y-122246973D01*
X175441459Y-122423600D01*
X175424063Y-122600227D01*
X175408301Y-122652186D01*
X175372543Y-122770067D01*
X175317004Y-122873971D01*
X175288878Y-122926591D01*
X175259548Y-122962329D01*
X175176286Y-123063786D01*
X175074829Y-123147048D01*
X175039091Y-123176378D01*
X175039089Y-123176379D01*
X174882567Y-123260043D01*
X174862309Y-123266188D01*
X174712727Y-123311563D01*
X174646543Y-123318081D01*
X174580360Y-123324600D01*
X174491840Y-123324600D01*
X174425657Y-123318081D01*
X174359473Y-123311563D01*
X174209891Y-123266188D01*
X174189633Y-123260043D01*
X174033111Y-123176379D01*
X174033109Y-123176378D01*
X173997371Y-123147048D01*
X173895914Y-123063786D01*
X173812652Y-122962329D01*
X173783322Y-122926591D01*
X173755196Y-122873971D01*
X173699657Y-122770067D01*
X173663899Y-122652186D01*
X173648137Y-122600227D01*
X173630741Y-122423600D01*
X173648137Y-122246973D01*
X173699657Y-122077134D01*
X173699657Y-122077133D01*
X173783321Y-121920611D01*
X173783322Y-121920609D01*
X173819389Y-121876661D01*
X173895914Y-121783414D01*
X173997371Y-121700152D01*
X174033109Y-121670822D01*
X174111640Y-121628846D01*
X174189633Y-121587157D01*
X174281137Y-121559400D01*
X174359473Y-121535637D01*
X174425657Y-121529119D01*
X174491840Y-121522600D01*
X174580360Y-121522600D01*
X174646543Y-121529119D01*
X174646543Y-121529119D01*
G37*
G36*
X155622166Y-120361446D02*
X155637712Y-120380388D01*
X155656654Y-120395934D01*
X155678265Y-120407485D01*
X155701714Y-120414598D01*
X155726100Y-120417000D01*
X156425900Y-120417000D01*
X156425900Y-121941000D01*
X155561121Y-121941000D01*
X155557546Y-121938066D01*
X155535935Y-121926515D01*
X155512486Y-121919402D01*
X155488100Y-121917000D01*
X153992259Y-121917000D01*
X153997098Y-121901047D01*
X153999500Y-121876661D01*
X153999500Y-120515400D01*
X155488100Y-120515400D01*
X155512486Y-120512998D01*
X155535935Y-120505885D01*
X155557546Y-120494334D01*
X155576488Y-120478788D01*
X155592034Y-120459846D01*
X155603585Y-120438235D01*
X155610698Y-120414786D01*
X155613100Y-120390400D01*
X155613100Y-120344484D01*
X155622166Y-120361446D01*
X155622166Y-120361446D01*
G37*
G36*
X158711900Y-121941000D02*
X157899100Y-121941000D01*
X157899100Y-120417000D01*
X158711900Y-120417000D01*
X158711900Y-121941000D01*
X158711900Y-121941000D01*
G37*
G36*
X174646542Y-118989118D02*
X174712727Y-118995637D01*
X174825953Y-119029984D01*
X174882567Y-119047157D01*
X175021187Y-119121252D01*
X175039091Y-119130822D01*
X175074829Y-119160152D01*
X175176286Y-119243414D01*
X175259548Y-119344871D01*
X175288878Y-119380609D01*
X175288879Y-119380611D01*
X175372543Y-119537133D01*
X175372543Y-119537134D01*
X175424063Y-119706973D01*
X175441459Y-119883600D01*
X175424063Y-120060227D01*
X175389716Y-120173453D01*
X175372543Y-120230067D01*
X175349833Y-120272554D01*
X175288878Y-120386591D01*
X175265893Y-120414598D01*
X175176286Y-120523786D01*
X175074829Y-120607048D01*
X175039091Y-120636378D01*
X175039089Y-120636379D01*
X174882567Y-120720043D01*
X174825953Y-120737216D01*
X174712727Y-120771563D01*
X174646543Y-120778081D01*
X174580360Y-120784600D01*
X174491840Y-120784600D01*
X174425657Y-120778081D01*
X174359473Y-120771563D01*
X174246247Y-120737216D01*
X174189633Y-120720043D01*
X174033111Y-120636379D01*
X174033109Y-120636378D01*
X173997371Y-120607048D01*
X173895914Y-120523786D01*
X173806307Y-120414598D01*
X173783322Y-120386591D01*
X173722367Y-120272554D01*
X173699657Y-120230067D01*
X173682484Y-120173453D01*
X173648137Y-120060227D01*
X173630741Y-119883600D01*
X173648137Y-119706973D01*
X173699657Y-119537134D01*
X173699657Y-119537133D01*
X173783321Y-119380611D01*
X173783322Y-119380609D01*
X173812652Y-119344871D01*
X173895914Y-119243414D01*
X173997371Y-119160152D01*
X174033109Y-119130822D01*
X174051013Y-119121252D01*
X174189633Y-119047157D01*
X174246247Y-119029984D01*
X174359473Y-118995637D01*
X174425658Y-118989118D01*
X174491840Y-118982600D01*
X174580360Y-118982600D01*
X174646542Y-118989118D01*
X174646542Y-118989118D01*
G37*
G36*
X172106542Y-118989118D02*
X172172727Y-118995637D01*
X172285953Y-119029984D01*
X172342567Y-119047157D01*
X172481187Y-119121252D01*
X172499091Y-119130822D01*
X172534829Y-119160152D01*
X172636286Y-119243414D01*
X172719548Y-119344871D01*
X172748878Y-119380609D01*
X172748879Y-119380611D01*
X172832543Y-119537133D01*
X172832543Y-119537134D01*
X172884063Y-119706973D01*
X172901459Y-119883600D01*
X172884063Y-120060227D01*
X172849716Y-120173453D01*
X172832543Y-120230067D01*
X172809833Y-120272554D01*
X172748878Y-120386591D01*
X172725893Y-120414598D01*
X172636286Y-120523786D01*
X172534829Y-120607048D01*
X172499091Y-120636378D01*
X172499089Y-120636379D01*
X172342567Y-120720043D01*
X172285953Y-120737216D01*
X172172727Y-120771563D01*
X172106543Y-120778081D01*
X172040360Y-120784600D01*
X171951840Y-120784600D01*
X171885657Y-120778081D01*
X171819473Y-120771563D01*
X171706247Y-120737216D01*
X171649633Y-120720043D01*
X171493111Y-120636379D01*
X171493109Y-120636378D01*
X171457371Y-120607048D01*
X171355914Y-120523786D01*
X171266307Y-120414598D01*
X171243322Y-120386591D01*
X171182367Y-120272554D01*
X171159657Y-120230067D01*
X171142484Y-120173453D01*
X171108137Y-120060227D01*
X171090741Y-119883600D01*
X171108137Y-119706973D01*
X171159657Y-119537134D01*
X171159657Y-119537133D01*
X171243321Y-119380611D01*
X171243322Y-119380609D01*
X171272652Y-119344871D01*
X171355914Y-119243414D01*
X171457371Y-119160152D01*
X171493109Y-119130822D01*
X171511013Y-119121252D01*
X171649633Y-119047157D01*
X171706247Y-119029984D01*
X171819473Y-118995637D01*
X171885658Y-118989118D01*
X171951840Y-118982600D01*
X172040360Y-118982600D01*
X172106542Y-118989118D01*
X172106542Y-118989118D01*
G37*
G36*
X155601100Y-120289516D02*
X155592034Y-120272554D01*
X155576488Y-120253612D01*
X155557546Y-120238066D01*
X155535935Y-120226515D01*
X155512486Y-120219402D01*
X155488100Y-120217000D01*
X153999500Y-120217000D01*
X153999500Y-118815400D01*
X155601100Y-118815400D01*
X155601100Y-120289516D01*
X155601100Y-120289516D01*
G37*
G36*
X151206900Y-119734400D02*
X149605300Y-119734400D01*
X149605300Y-118332800D01*
X151206900Y-118332800D01*
X151206900Y-119734400D01*
X151206900Y-119734400D01*
G37*
G36*
X169463900Y-117288400D02*
X169398900Y-117288400D01*
X169374514Y-117290802D01*
X169351065Y-117297915D01*
X169329454Y-117309466D01*
X169310512Y-117325012D01*
X169294966Y-117343954D01*
X169283415Y-117365565D01*
X169276302Y-117389014D01*
X169273900Y-117413400D01*
X169273900Y-119637400D01*
X167372300Y-119637400D01*
X167372300Y-117413400D01*
X167369898Y-117389014D01*
X167362785Y-117365565D01*
X167351234Y-117343954D01*
X167335688Y-117325012D01*
X167316746Y-117309466D01*
X167295135Y-117297915D01*
X167271686Y-117290802D01*
X167247300Y-117288400D01*
X167162300Y-117288400D01*
X167162300Y-115386800D01*
X169463900Y-115386800D01*
X169463900Y-117288400D01*
X169463900Y-117288400D01*
G37*
G36*
X164173900Y-119637400D02*
X162264555Y-119637400D01*
X162262785Y-119631565D01*
X162251234Y-119609954D01*
X162235688Y-119591012D01*
X162216746Y-119575466D01*
X162195135Y-119563915D01*
X162171686Y-119556802D01*
X162147300Y-119554400D01*
X159923300Y-119554400D01*
X159923300Y-117652800D01*
X162147300Y-117652800D01*
X162171686Y-117650398D01*
X162195135Y-117643285D01*
X162216746Y-117631734D01*
X162235688Y-117616188D01*
X162251234Y-117597246D01*
X162262785Y-117575635D01*
X162269898Y-117552186D01*
X162272300Y-117527800D01*
X162272300Y-117335800D01*
X164173900Y-117335800D01*
X164173900Y-119637400D01*
X164173900Y-119637400D01*
G37*
G36*
X127823438Y-116429338D02*
X127996473Y-116501012D01*
X128152200Y-116605065D01*
X128284635Y-116737500D01*
X128388688Y-116893227D01*
X128460362Y-117066262D01*
X128496900Y-117249954D01*
X128496900Y-117437246D01*
X128460362Y-117620938D01*
X128388688Y-117793973D01*
X128284635Y-117949700D01*
X128152200Y-118082135D01*
X127996473Y-118186188D01*
X127823438Y-118257862D01*
X127639746Y-118294400D01*
X127452454Y-118294400D01*
X127268762Y-118257862D01*
X127095727Y-118186188D01*
X126940000Y-118082135D01*
X126807565Y-117949700D01*
X126703512Y-117793973D01*
X126631838Y-117620938D01*
X126595300Y-117437246D01*
X126595300Y-117249954D01*
X126631838Y-117066262D01*
X126703512Y-116893227D01*
X126807565Y-116737500D01*
X126940000Y-116605065D01*
X127095727Y-116501012D01*
X127268762Y-116429338D01*
X127452454Y-116392800D01*
X127639746Y-116392800D01*
X127823438Y-116429338D01*
X127823438Y-116429338D01*
G37*
G36*
X125189446Y-116421858D02*
X125280229Y-116439916D01*
X125451262Y-116510760D01*
X125592399Y-116605065D01*
X125605190Y-116613612D01*
X125736088Y-116744510D01*
X125736090Y-116744513D01*
X125838940Y-116898438D01*
X125909784Y-117069471D01*
X125909784Y-117069473D01*
X125945900Y-117251036D01*
X125945900Y-117436164D01*
X125929179Y-117520225D01*
X125909784Y-117617729D01*
X125838940Y-117788762D01*
X125737479Y-117940609D01*
X125736088Y-117942690D01*
X125605190Y-118073588D01*
X125605187Y-118073590D01*
X125451262Y-118176440D01*
X125280229Y-118247284D01*
X125189445Y-118265342D01*
X125098664Y-118283400D01*
X124913536Y-118283400D01*
X124822755Y-118265342D01*
X124731971Y-118247284D01*
X124560938Y-118176440D01*
X124407013Y-118073590D01*
X124407010Y-118073588D01*
X124276112Y-117942690D01*
X124274721Y-117940609D01*
X124173260Y-117788762D01*
X124102416Y-117617729D01*
X124083021Y-117520225D01*
X124066300Y-117436164D01*
X124066300Y-117251036D01*
X124102416Y-117069473D01*
X124102416Y-117069471D01*
X124173260Y-116898438D01*
X124276110Y-116744513D01*
X124276112Y-116744510D01*
X124407010Y-116613612D01*
X124419801Y-116605065D01*
X124560938Y-116510760D01*
X124731971Y-116439916D01*
X124822754Y-116421858D01*
X124913536Y-116403800D01*
X125098664Y-116403800D01*
X125189446Y-116421858D01*
X125189446Y-116421858D01*
G37*
G36*
X174646542Y-116449118D02*
X174712727Y-116455637D01*
X174825953Y-116489984D01*
X174882567Y-116507157D01*
X175021187Y-116581252D01*
X175039091Y-116590822D01*
X175066858Y-116613610D01*
X175176286Y-116703414D01*
X175259548Y-116804871D01*
X175288878Y-116840609D01*
X175288879Y-116840611D01*
X175372543Y-116997133D01*
X175372543Y-116997134D01*
X175424063Y-117166973D01*
X175441459Y-117343600D01*
X175424063Y-117520227D01*
X175394954Y-117616188D01*
X175372543Y-117690067D01*
X175319788Y-117788763D01*
X175288878Y-117846591D01*
X175259548Y-117882329D01*
X175176286Y-117983786D01*
X175074829Y-118067048D01*
X175039091Y-118096378D01*
X175039089Y-118096379D01*
X174882567Y-118180043D01*
X174862309Y-118186188D01*
X174712727Y-118231563D01*
X174646542Y-118238082D01*
X174580360Y-118244600D01*
X174491840Y-118244600D01*
X174425658Y-118238082D01*
X174359473Y-118231563D01*
X174209891Y-118186188D01*
X174189633Y-118180043D01*
X174033111Y-118096379D01*
X174033109Y-118096378D01*
X173997371Y-118067048D01*
X173895914Y-117983786D01*
X173812652Y-117882329D01*
X173783322Y-117846591D01*
X173752412Y-117788763D01*
X173699657Y-117690067D01*
X173677246Y-117616188D01*
X173648137Y-117520227D01*
X173630741Y-117343600D01*
X173648137Y-117166973D01*
X173699657Y-116997134D01*
X173699657Y-116997133D01*
X173783321Y-116840611D01*
X173783322Y-116840609D01*
X173812652Y-116804871D01*
X173895914Y-116703414D01*
X174005342Y-116613610D01*
X174033109Y-116590822D01*
X174051013Y-116581252D01*
X174189633Y-116507157D01*
X174246247Y-116489984D01*
X174359473Y-116455637D01*
X174425658Y-116449118D01*
X174491840Y-116442600D01*
X174580360Y-116442600D01*
X174646542Y-116449118D01*
X174646542Y-116449118D01*
G37*
G36*
X172897100Y-118244600D02*
X171095100Y-118244600D01*
X171095100Y-116442600D01*
X172897100Y-116442600D01*
X172897100Y-118244600D01*
X172897100Y-118244600D01*
G37*
G36*
X142786100Y-117686500D02*
X141262100Y-117686500D01*
X141262100Y-116873700D01*
X142786100Y-116873700D01*
X142786100Y-117686500D01*
X142786100Y-117686500D01*
G37*
G36*
X151168100Y-117623000D02*
X149644100Y-117623000D01*
X149644100Y-116810200D01*
X151168100Y-116810200D01*
X151168100Y-117623000D01*
X151168100Y-117623000D01*
G37*
G36*
X125189446Y-113881858D02*
X125280229Y-113899916D01*
X125451262Y-113970760D01*
X125451263Y-113970761D01*
X125605190Y-114073612D01*
X125736088Y-114204510D01*
X125736090Y-114204513D01*
X125838940Y-114358438D01*
X125909784Y-114529471D01*
X125909784Y-114529473D01*
X125945900Y-114711036D01*
X125945900Y-114896164D01*
X125927842Y-114986945D01*
X125909784Y-115077729D01*
X125838940Y-115248762D01*
X125838939Y-115248763D01*
X125736088Y-115402690D01*
X125605190Y-115533588D01*
X125605187Y-115533590D01*
X125451262Y-115636440D01*
X125280229Y-115707284D01*
X125189445Y-115725342D01*
X125098664Y-115743400D01*
X124913536Y-115743400D01*
X124822755Y-115725342D01*
X124731971Y-115707284D01*
X124560938Y-115636440D01*
X124407013Y-115533590D01*
X124407010Y-115533588D01*
X124276112Y-115402690D01*
X124173261Y-115248763D01*
X124173260Y-115248762D01*
X124102416Y-115077729D01*
X124084358Y-114986945D01*
X124066300Y-114896164D01*
X124066300Y-114711036D01*
X124102416Y-114529473D01*
X124102416Y-114529471D01*
X124173260Y-114358438D01*
X124276110Y-114204513D01*
X124276112Y-114204510D01*
X124407010Y-114073612D01*
X124560937Y-113970761D01*
X124560938Y-113970760D01*
X124731971Y-113899916D01*
X124822754Y-113881858D01*
X124913536Y-113863800D01*
X125098664Y-113863800D01*
X125189446Y-113881858D01*
X125189446Y-113881858D01*
G37*
G36*
X128765300Y-115565600D02*
X127952500Y-115565600D01*
X127952500Y-114041600D01*
X128765300Y-114041600D01*
X128765300Y-115565600D01*
X128765300Y-115565600D01*
G37*
G36*
X131051300Y-115565600D02*
X130238500Y-115565600D01*
X130238500Y-114041600D01*
X131051300Y-114041600D01*
X131051300Y-115565600D01*
X131051300Y-115565600D01*
G37*
G36*
X142786100Y-115400500D02*
X141262100Y-115400500D01*
X141262100Y-114587700D01*
X142786100Y-114587700D01*
X142786100Y-115400500D01*
X142786100Y-115400500D01*
G37*
G36*
X151168100Y-115337000D02*
X149644100Y-115337000D01*
X149644100Y-114524200D01*
X151168100Y-114524200D01*
X151168100Y-115337000D01*
X151168100Y-115337000D01*
G37*
G36*
X172273438Y-113254338D02*
X172446473Y-113326012D01*
X172602200Y-113430065D01*
X172734635Y-113562500D01*
X172838688Y-113718227D01*
X172910362Y-113891262D01*
X172946900Y-114074954D01*
X172946900Y-114262246D01*
X172910362Y-114445938D01*
X172838688Y-114618973D01*
X172734635Y-114774700D01*
X172602200Y-114907135D01*
X172446473Y-115011188D01*
X172273438Y-115082862D01*
X172089746Y-115119400D01*
X171902454Y-115119400D01*
X171718762Y-115082862D01*
X171545727Y-115011188D01*
X171390000Y-114907135D01*
X171257565Y-114774700D01*
X171153512Y-114618973D01*
X171081838Y-114445938D01*
X171045300Y-114262246D01*
X171045300Y-114074954D01*
X171081838Y-113891262D01*
X171153512Y-113718227D01*
X171257565Y-113562500D01*
X171390000Y-113430065D01*
X171545727Y-113326012D01*
X171718762Y-113254338D01*
X171902454Y-113217800D01*
X172089746Y-113217800D01*
X172273438Y-113254338D01*
X172273438Y-113254338D01*
G37*
G36*
X174813438Y-113254338D02*
X174986473Y-113326012D01*
X175142200Y-113430065D01*
X175274635Y-113562500D01*
X175378688Y-113718227D01*
X175450362Y-113891262D01*
X175486900Y-114074954D01*
X175486900Y-114262246D01*
X175450362Y-114445938D01*
X175378688Y-114618973D01*
X175274635Y-114774700D01*
X175142200Y-114907135D01*
X174986473Y-115011188D01*
X174813438Y-115082862D01*
X174629746Y-115119400D01*
X174442454Y-115119400D01*
X174258762Y-115082862D01*
X174085727Y-115011188D01*
X173930000Y-114907135D01*
X173797565Y-114774700D01*
X173693512Y-114618973D01*
X173621838Y-114445938D01*
X173585300Y-114262246D01*
X173585300Y-114074954D01*
X173621838Y-113891262D01*
X173693512Y-113718227D01*
X173797565Y-113562500D01*
X173930000Y-113430065D01*
X174085727Y-113326012D01*
X174258762Y-113254338D01*
X174442454Y-113217800D01*
X174629746Y-113217800D01*
X174813438Y-113254338D01*
X174813438Y-113254338D01*
G37*
G36*
X125189445Y-111341858D02*
X125280229Y-111359916D01*
X125451262Y-111430760D01*
X125476095Y-111447353D01*
X125605190Y-111533612D01*
X125736088Y-111664510D01*
X125736090Y-111664513D01*
X125838940Y-111818438D01*
X125909784Y-111989471D01*
X125945900Y-112171038D01*
X125945900Y-112356162D01*
X125909784Y-112537729D01*
X125838940Y-112708762D01*
X125838939Y-112708763D01*
X125736088Y-112862690D01*
X125605190Y-112993588D01*
X125605187Y-112993590D01*
X125451262Y-113096440D01*
X125280229Y-113167284D01*
X125189446Y-113185342D01*
X125098664Y-113203400D01*
X124913536Y-113203400D01*
X124822754Y-113185342D01*
X124731971Y-113167284D01*
X124560938Y-113096440D01*
X124407013Y-112993590D01*
X124407010Y-112993588D01*
X124276112Y-112862690D01*
X124173261Y-112708763D01*
X124173260Y-112708762D01*
X124102416Y-112537729D01*
X124066300Y-112356162D01*
X124066300Y-112171038D01*
X124102416Y-111989471D01*
X124173260Y-111818438D01*
X124276110Y-111664513D01*
X124276112Y-111664510D01*
X124407010Y-111533612D01*
X124536105Y-111447353D01*
X124560938Y-111430760D01*
X124731971Y-111359916D01*
X124822755Y-111341858D01*
X124913536Y-111323800D01*
X125098664Y-111323800D01*
X125189445Y-111341858D01*
X125189445Y-111341858D01*
G37*
G36*
X129075412Y-111408764D02*
X129237198Y-111475778D01*
X129382807Y-111573071D01*
X129506629Y-111696893D01*
X129603922Y-111842502D01*
X129670936Y-112004288D01*
X129705100Y-112176041D01*
X129705100Y-112351159D01*
X129670936Y-112522912D01*
X129603922Y-112684698D01*
X129506629Y-112830307D01*
X129382807Y-112954129D01*
X129237198Y-113051422D01*
X129128517Y-113096439D01*
X129075412Y-113118436D01*
X128903659Y-113152600D01*
X128728541Y-113152600D01*
X128556788Y-113118436D01*
X128503683Y-113096439D01*
X128395002Y-113051422D01*
X128249393Y-112954129D01*
X128125571Y-112830307D01*
X128028278Y-112684698D01*
X127961264Y-112522912D01*
X127927100Y-112351159D01*
X127927100Y-112176041D01*
X127961264Y-112004288D01*
X128028278Y-111842502D01*
X128125571Y-111696893D01*
X128249393Y-111573071D01*
X128395002Y-111475778D01*
X128556788Y-111408764D01*
X128728541Y-111374600D01*
X128903659Y-111374600D01*
X129075412Y-111408764D01*
X129075412Y-111408764D01*
G37*
G36*
X147086900Y-112514400D02*
X138485300Y-112514400D01*
X138485300Y-110912800D01*
X147086900Y-110912800D01*
X147086900Y-112514400D01*
X147086900Y-112514400D01*
G37*
G36*
X169463900Y-112188400D02*
X167162300Y-112188400D01*
X167162300Y-110286800D01*
X169463900Y-110286800D01*
X169463900Y-112188400D01*
X169463900Y-112188400D01*
G37*
G36*
X172456828Y-110184720D02*
X172536437Y-110192561D01*
X172638579Y-110223546D01*
X172689651Y-110239038D01*
X172838201Y-110318440D01*
X172860840Y-110327818D01*
X172884874Y-110332598D01*
X172897126Y-110333200D01*
X175298100Y-110333200D01*
X175298100Y-111146000D01*
X173272949Y-111146000D01*
X173248563Y-111148402D01*
X173225114Y-111155515D01*
X173203503Y-111167066D01*
X173184561Y-111182612D01*
X173169015Y-111201554D01*
X173157464Y-111223165D01*
X173153336Y-111234702D01*
X173138017Y-111285200D01*
X173131662Y-111306151D01*
X173095075Y-111374600D01*
X173056188Y-111447352D01*
X172954617Y-111571117D01*
X172830852Y-111672688D01*
X172785562Y-111696896D01*
X172689651Y-111748162D01*
X172638579Y-111763654D01*
X172536437Y-111794639D01*
X172456828Y-111802480D01*
X172417024Y-111806400D01*
X170813176Y-111806400D01*
X170773372Y-111802480D01*
X170693763Y-111794639D01*
X170591621Y-111763654D01*
X170540549Y-111748162D01*
X170444638Y-111696896D01*
X170399348Y-111672688D01*
X170275583Y-111571117D01*
X170174012Y-111447352D01*
X170135125Y-111374600D01*
X170098538Y-111306151D01*
X170061063Y-111182612D01*
X170052061Y-111152937D01*
X170036368Y-110993600D01*
X170052061Y-110834263D01*
X170098538Y-110681050D01*
X170098538Y-110681049D01*
X170153386Y-110578436D01*
X170174012Y-110539848D01*
X170275583Y-110416083D01*
X170399348Y-110314512D01*
X170465075Y-110279380D01*
X170540549Y-110239038D01*
X170591621Y-110223546D01*
X170693763Y-110192561D01*
X170773372Y-110184720D01*
X170813176Y-110180800D01*
X172417024Y-110180800D01*
X172456828Y-110184720D01*
X172456828Y-110184720D01*
G37*
G36*
X157542043Y-110235275D02*
X157616678Y-110242626D01*
X157712436Y-110271674D01*
X157760316Y-110286198D01*
X157808599Y-110312006D01*
X157892692Y-110356955D01*
X158008722Y-110452178D01*
X158103945Y-110568208D01*
X158127673Y-110612600D01*
X158174702Y-110700584D01*
X158174702Y-110700585D01*
X158218274Y-110844222D01*
X158232986Y-110993600D01*
X158218274Y-111142978D01*
X158206251Y-111182612D01*
X158174702Y-111286616D01*
X158164260Y-111306151D01*
X158103945Y-111418992D01*
X158008722Y-111535022D01*
X157892692Y-111630245D01*
X157828581Y-111664513D01*
X157760316Y-111701002D01*
X157712436Y-111715526D01*
X157616678Y-111744574D01*
X157542043Y-111751925D01*
X157504727Y-111755600D01*
X156007473Y-111755600D01*
X155970157Y-111751925D01*
X155895522Y-111744574D01*
X155799764Y-111715526D01*
X155751884Y-111701002D01*
X155683619Y-111664513D01*
X155619508Y-111630245D01*
X155503478Y-111535022D01*
X155408255Y-111418992D01*
X155347940Y-111306151D01*
X155337498Y-111286616D01*
X155305949Y-111182612D01*
X155293926Y-111142978D01*
X155279214Y-110993600D01*
X155293926Y-110844222D01*
X155337498Y-110700585D01*
X155337498Y-110700584D01*
X155384527Y-110612600D01*
X155408255Y-110568208D01*
X155503478Y-110452178D01*
X155619508Y-110356955D01*
X155703601Y-110312006D01*
X155751884Y-110286198D01*
X155799764Y-110271674D01*
X155895522Y-110242626D01*
X155970157Y-110235275D01*
X156007473Y-110231600D01*
X157504727Y-110231600D01*
X157542043Y-110235275D01*
X157542043Y-110235275D01*
G37*
G36*
X160896300Y-111590500D02*
X159372300Y-111590500D01*
X159372300Y-110777700D01*
X160896300Y-110777700D01*
X160896300Y-111590500D01*
X160896300Y-111590500D01*
G37*
G36*
X134912100Y-110815800D02*
X133388100Y-110815800D01*
X133388100Y-110003000D01*
X134912100Y-110003000D01*
X134912100Y-110815800D01*
X134912100Y-110815800D01*
G37*
G36*
X125189445Y-108801858D02*
X125280229Y-108819916D01*
X125451262Y-108890760D01*
X125476095Y-108907353D01*
X125605190Y-108993612D01*
X125736088Y-109124510D01*
X125736090Y-109124513D01*
X125838940Y-109278438D01*
X125909784Y-109449471D01*
X125909784Y-109449473D01*
X125942273Y-109612800D01*
X125945900Y-109631038D01*
X125945900Y-109816162D01*
X125909784Y-109997729D01*
X125838940Y-110168762D01*
X125838939Y-110168763D01*
X125736088Y-110322690D01*
X125605190Y-110453588D01*
X125605187Y-110453590D01*
X125451262Y-110556440D01*
X125280229Y-110627284D01*
X125189446Y-110645342D01*
X125098664Y-110663400D01*
X124913536Y-110663400D01*
X124822754Y-110645342D01*
X124731971Y-110627284D01*
X124560938Y-110556440D01*
X124407013Y-110453590D01*
X124407010Y-110453588D01*
X124276112Y-110322690D01*
X124173261Y-110168763D01*
X124173260Y-110168762D01*
X124102416Y-109997729D01*
X124066300Y-109816162D01*
X124066300Y-109631038D01*
X124069928Y-109612800D01*
X124102416Y-109449473D01*
X124102416Y-109449471D01*
X124173260Y-109278438D01*
X124276110Y-109124513D01*
X124276112Y-109124510D01*
X124407010Y-108993612D01*
X124536105Y-108907353D01*
X124560938Y-108890760D01*
X124731971Y-108819916D01*
X124822755Y-108801858D01*
X124913536Y-108783800D01*
X125098664Y-108783800D01*
X125189445Y-108801858D01*
X125189445Y-108801858D01*
G37*
G36*
X129075412Y-108868764D02*
X129237198Y-108935778D01*
X129382807Y-109033071D01*
X129506629Y-109156893D01*
X129603922Y-109302502D01*
X129670936Y-109464288D01*
X129705100Y-109636041D01*
X129705100Y-109811159D01*
X129670936Y-109982912D01*
X129603922Y-110144698D01*
X129506629Y-110290307D01*
X129382807Y-110414129D01*
X129237198Y-110511422D01*
X129075412Y-110578436D01*
X128903659Y-110612600D01*
X128728541Y-110612600D01*
X128556788Y-110578436D01*
X128395002Y-110511422D01*
X128249393Y-110414129D01*
X128125571Y-110290307D01*
X128028278Y-110144698D01*
X127961264Y-109982912D01*
X127927100Y-109811159D01*
X127927100Y-109636041D01*
X127961264Y-109464288D01*
X128028278Y-109302502D01*
X128125571Y-109156893D01*
X128249393Y-109033071D01*
X128395002Y-108935778D01*
X128556788Y-108868764D01*
X128728541Y-108834600D01*
X128903659Y-108834600D01*
X129075412Y-108868764D01*
X129075412Y-108868764D01*
G37*
G36*
X137786900Y-110214400D02*
X136185300Y-110214400D01*
X136185300Y-101612800D01*
X137786900Y-101612800D01*
X137786900Y-110214400D01*
X137786900Y-110214400D01*
G37*
G36*
X149386900Y-110214400D02*
X147785300Y-110214400D01*
X147785300Y-101612800D01*
X149386900Y-101612800D01*
X149386900Y-110214400D01*
X149386900Y-110214400D01*
G37*
G36*
X160896300Y-109304500D02*
X159372300Y-109304500D01*
X159372300Y-108491700D01*
X160896300Y-108491700D01*
X160896300Y-109304500D01*
X160896300Y-109304500D01*
G37*
G36*
X172456828Y-107644720D02*
X172536437Y-107652561D01*
X172638579Y-107683546D01*
X172689651Y-107699038D01*
X172723255Y-107717000D01*
X172830852Y-107774512D01*
X172954617Y-107876083D01*
X173057544Y-108001499D01*
X173074871Y-108018826D01*
X173095246Y-108032440D01*
X173117885Y-108041818D01*
X173154170Y-108047200D01*
X175298100Y-108047200D01*
X175298100Y-108860000D01*
X173154170Y-108860000D01*
X173129784Y-108862402D01*
X173106335Y-108869515D01*
X173084724Y-108881066D01*
X173057544Y-108905701D01*
X172954617Y-109031117D01*
X172830852Y-109132688D01*
X172785562Y-109156896D01*
X172689651Y-109208162D01*
X172638579Y-109223654D01*
X172536437Y-109254639D01*
X172456828Y-109262480D01*
X172417024Y-109266400D01*
X170813176Y-109266400D01*
X170773372Y-109262480D01*
X170693763Y-109254639D01*
X170591621Y-109223654D01*
X170540549Y-109208162D01*
X170444638Y-109156896D01*
X170399348Y-109132688D01*
X170275583Y-109031117D01*
X170174012Y-108907352D01*
X170135125Y-108834600D01*
X170098538Y-108766151D01*
X170083046Y-108715079D01*
X170052061Y-108612937D01*
X170036368Y-108453600D01*
X170052061Y-108294263D01*
X170098538Y-108141050D01*
X170098538Y-108141049D01*
X170163868Y-108018826D01*
X170174012Y-107999848D01*
X170275583Y-107876083D01*
X170399348Y-107774512D01*
X170506945Y-107717000D01*
X170540549Y-107699038D01*
X170591621Y-107683546D01*
X170693763Y-107652561D01*
X170773372Y-107644720D01*
X170813176Y-107640800D01*
X172417024Y-107640800D01*
X172456828Y-107644720D01*
X172456828Y-107644720D01*
G37*
G36*
X166259500Y-109093600D02*
X163457900Y-109093600D01*
X163457900Y-106442000D01*
X166259500Y-106442000D01*
X166259500Y-109093600D01*
X166259500Y-109093600D01*
G37*
G36*
X154152600Y-108644100D02*
X152628600Y-108644100D01*
X152628600Y-107831300D01*
X154152600Y-107831300D01*
X154152600Y-108644100D01*
X154152600Y-108644100D01*
G37*
G36*
X134912100Y-108529800D02*
X133388100Y-108529800D01*
X133388100Y-107717000D01*
X134912100Y-107717000D01*
X134912100Y-108529800D01*
X134912100Y-108529800D01*
G37*
G36*
X131952900Y-108445400D02*
X130251300Y-108445400D01*
X130251300Y-107143800D01*
X131952900Y-107143800D01*
X131952900Y-108445400D01*
X131952900Y-108445400D01*
G37*
G36*
X127823438Y-106269338D02*
X127996473Y-106341012D01*
X128152200Y-106445065D01*
X128284635Y-106577500D01*
X128388688Y-106733227D01*
X128460362Y-106906262D01*
X128496900Y-107089954D01*
X128496900Y-107277246D01*
X128460362Y-107460938D01*
X128388688Y-107633973D01*
X128284635Y-107789700D01*
X128152200Y-107922135D01*
X127996473Y-108026188D01*
X127823438Y-108097862D01*
X127639746Y-108134400D01*
X127452454Y-108134400D01*
X127268762Y-108097862D01*
X127095727Y-108026188D01*
X126940000Y-107922135D01*
X126807565Y-107789700D01*
X126703512Y-107633973D01*
X126631838Y-107460938D01*
X126595300Y-107277246D01*
X126595300Y-107089954D01*
X126631838Y-106906262D01*
X126703512Y-106733227D01*
X126807565Y-106577500D01*
X126940000Y-106445065D01*
X127095727Y-106341012D01*
X127268762Y-106269338D01*
X127452454Y-106232800D01*
X127639746Y-106232800D01*
X127823438Y-106269338D01*
X127823438Y-106269338D01*
G37*
G36*
X125189446Y-106261858D02*
X125280229Y-106279916D01*
X125451262Y-106350760D01*
X125592399Y-106445065D01*
X125605190Y-106453612D01*
X125736088Y-106584510D01*
X125736090Y-106584513D01*
X125838940Y-106738438D01*
X125909784Y-106909471D01*
X125909784Y-106909473D01*
X125945900Y-107091036D01*
X125945900Y-107276164D01*
X125927842Y-107366946D01*
X125909784Y-107457729D01*
X125838940Y-107628762D01*
X125838939Y-107628763D01*
X125736088Y-107782690D01*
X125605190Y-107913588D01*
X125605187Y-107913590D01*
X125451262Y-108016440D01*
X125280229Y-108087284D01*
X125189446Y-108105342D01*
X125098664Y-108123400D01*
X124913536Y-108123400D01*
X124822754Y-108105342D01*
X124731971Y-108087284D01*
X124560938Y-108016440D01*
X124407013Y-107913590D01*
X124407010Y-107913588D01*
X124276112Y-107782690D01*
X124173261Y-107628763D01*
X124173260Y-107628762D01*
X124102416Y-107457729D01*
X124084358Y-107366945D01*
X124066300Y-107276164D01*
X124066300Y-107091036D01*
X124102416Y-106909473D01*
X124102416Y-106909471D01*
X124173260Y-106738438D01*
X124276110Y-106584513D01*
X124276112Y-106584510D01*
X124407010Y-106453612D01*
X124419801Y-106445065D01*
X124560938Y-106350760D01*
X124731971Y-106279916D01*
X124822754Y-106261858D01*
X124913536Y-106243800D01*
X125098664Y-106243800D01*
X125189446Y-106261858D01*
X125189446Y-106261858D01*
G37*
G36*
X172456828Y-105104720D02*
X172536437Y-105112561D01*
X172638579Y-105143546D01*
X172689651Y-105159038D01*
X172765125Y-105199380D01*
X172830852Y-105234512D01*
X172954617Y-105336083D01*
X173056188Y-105459848D01*
X173091320Y-105525575D01*
X173131662Y-105601049D01*
X173137588Y-105620584D01*
X173178139Y-105754263D01*
X173193832Y-105913600D01*
X173178139Y-106072937D01*
X173147154Y-106175079D01*
X173131662Y-106226151D01*
X173091320Y-106301625D01*
X173056188Y-106367352D01*
X172954617Y-106491117D01*
X172830852Y-106592688D01*
X172777880Y-106621002D01*
X172689651Y-106668162D01*
X172638579Y-106683654D01*
X172536437Y-106714639D01*
X172456828Y-106722480D01*
X172417024Y-106726400D01*
X170813176Y-106726400D01*
X170773372Y-106722480D01*
X170693763Y-106714639D01*
X170591621Y-106683654D01*
X170540549Y-106668162D01*
X170452320Y-106621002D01*
X170399348Y-106592688D01*
X170275583Y-106491117D01*
X170174012Y-106367352D01*
X170138880Y-106301625D01*
X170098538Y-106226151D01*
X170083046Y-106175079D01*
X170052061Y-106072937D01*
X170036368Y-105913600D01*
X170052061Y-105754263D01*
X170092612Y-105620584D01*
X170098538Y-105601049D01*
X170138880Y-105525575D01*
X170174012Y-105459848D01*
X170275583Y-105336083D01*
X170399348Y-105234512D01*
X170465075Y-105199380D01*
X170540549Y-105159038D01*
X170591621Y-105143546D01*
X170693763Y-105112561D01*
X170773372Y-105104720D01*
X170813176Y-105100800D01*
X172417024Y-105100800D01*
X172456828Y-105104720D01*
X172456828Y-105104720D01*
G37*
G36*
X135445500Y-106675600D02*
X134632700Y-106675600D01*
X134632700Y-105151600D01*
X135445500Y-105151600D01*
X135445500Y-106675600D01*
X135445500Y-106675600D01*
G37*
G36*
X133159500Y-106675600D02*
X132346700Y-106675600D01*
X132346700Y-105151600D01*
X133159500Y-105151600D01*
X133159500Y-106675600D01*
X133159500Y-106675600D01*
G37*
G36*
X157542043Y-105155275D02*
X157616678Y-105162626D01*
X157712436Y-105191674D01*
X157760316Y-105206198D01*
X157808599Y-105232006D01*
X157892692Y-105276955D01*
X158008722Y-105372178D01*
X158103945Y-105488208D01*
X158134461Y-105545300D01*
X158174702Y-105620584D01*
X158174702Y-105620585D01*
X158218274Y-105764222D01*
X158232986Y-105913600D01*
X158218274Y-106062978D01*
X158189226Y-106158736D01*
X158174702Y-106206616D01*
X158164260Y-106226151D01*
X158103945Y-106338992D01*
X158008722Y-106455022D01*
X157892692Y-106550245D01*
X157828581Y-106584513D01*
X157760316Y-106621002D01*
X157712436Y-106635526D01*
X157616678Y-106664574D01*
X157542043Y-106671925D01*
X157504727Y-106675600D01*
X156007473Y-106675600D01*
X155970157Y-106671925D01*
X155895522Y-106664574D01*
X155799764Y-106635526D01*
X155751884Y-106621002D01*
X155683619Y-106584513D01*
X155619508Y-106550245D01*
X155503478Y-106455022D01*
X155408255Y-106338992D01*
X155347940Y-106226151D01*
X155337498Y-106206616D01*
X155322974Y-106158736D01*
X155293926Y-106062978D01*
X155279214Y-105913600D01*
X155293926Y-105764222D01*
X155337498Y-105620585D01*
X155337498Y-105620584D01*
X155377739Y-105545300D01*
X155408255Y-105488208D01*
X155503478Y-105372178D01*
X155619508Y-105276955D01*
X155703601Y-105232006D01*
X155751884Y-105206198D01*
X155799764Y-105191674D01*
X155895522Y-105162626D01*
X155970157Y-105155275D01*
X156007473Y-105151600D01*
X157504727Y-105151600D01*
X157542043Y-105155275D01*
X157542043Y-105155275D01*
G37*
G36*
X154152600Y-106358100D02*
X152628600Y-106358100D01*
X152628600Y-105545300D01*
X154152600Y-105545300D01*
X154152600Y-106358100D01*
X154152600Y-106358100D01*
G37*
G36*
X162699700Y-106193000D02*
X159473900Y-106193000D01*
X159473900Y-105380200D01*
X162699700Y-105380200D01*
X162699700Y-106193000D01*
X162699700Y-106193000D01*
G37*
G36*
X125189446Y-103721858D02*
X125280229Y-103739916D01*
X125451262Y-103810760D01*
X125595294Y-103907000D01*
X125605190Y-103913612D01*
X125736088Y-104044510D01*
X125736090Y-104044513D01*
X125838940Y-104198438D01*
X125909784Y-104369471D01*
X125945900Y-104551038D01*
X125945900Y-104736162D01*
X125909784Y-104917729D01*
X125838940Y-105088762D01*
X125838939Y-105088763D01*
X125736088Y-105242690D01*
X125605190Y-105373588D01*
X125605187Y-105373590D01*
X125451262Y-105476440D01*
X125280229Y-105547284D01*
X125189446Y-105565342D01*
X125098664Y-105583400D01*
X124913536Y-105583400D01*
X124822754Y-105565342D01*
X124731971Y-105547284D01*
X124560938Y-105476440D01*
X124407013Y-105373590D01*
X124407010Y-105373588D01*
X124276112Y-105242690D01*
X124173261Y-105088763D01*
X124173260Y-105088762D01*
X124102416Y-104917729D01*
X124066300Y-104736162D01*
X124066300Y-104551038D01*
X124102416Y-104369471D01*
X124173260Y-104198438D01*
X124276110Y-104044513D01*
X124276112Y-104044510D01*
X124407010Y-103913612D01*
X124416906Y-103907000D01*
X124560938Y-103810760D01*
X124731971Y-103739916D01*
X124822755Y-103721858D01*
X124913536Y-103703800D01*
X125098664Y-103703800D01*
X125189446Y-103721858D01*
X125189446Y-103721858D01*
G37*
G36*
X131952900Y-105445400D02*
X130251300Y-105445400D01*
X130251300Y-104143800D01*
X131952900Y-104143800D01*
X131952900Y-105445400D01*
X131952900Y-105445400D01*
G37*
G36*
X133159500Y-104707100D02*
X132346700Y-104707100D01*
X132346700Y-103183100D01*
X133159500Y-103183100D01*
X133159500Y-104707100D01*
X133159500Y-104707100D01*
G37*
G36*
X135445500Y-104707100D02*
X134632700Y-104707100D01*
X134632700Y-103183100D01*
X135445500Y-103183100D01*
X135445500Y-104707100D01*
X135445500Y-104707100D01*
G37*
G36*
X162699700Y-103907000D02*
X159473900Y-103907000D01*
X159473900Y-103094200D01*
X162699700Y-103094200D01*
X162699700Y-103907000D01*
X162699700Y-103907000D01*
G37*
G36*
X125189446Y-101181858D02*
X125280229Y-101199916D01*
X125451262Y-101270760D01*
X125451263Y-101270761D01*
X125605190Y-101373612D01*
X125736088Y-101504510D01*
X125736090Y-101504513D01*
X125838940Y-101658438D01*
X125909784Y-101829471D01*
X125909784Y-101829473D01*
X125945900Y-102011036D01*
X125945900Y-102196164D01*
X125927842Y-102286946D01*
X125909784Y-102377729D01*
X125838940Y-102548762D01*
X125838939Y-102548763D01*
X125736088Y-102702690D01*
X125605190Y-102833588D01*
X125605187Y-102833590D01*
X125451262Y-102936440D01*
X125280229Y-103007284D01*
X125189446Y-103025342D01*
X125098664Y-103043400D01*
X124913536Y-103043400D01*
X124822754Y-103025342D01*
X124731971Y-103007284D01*
X124560938Y-102936440D01*
X124407013Y-102833590D01*
X124407010Y-102833588D01*
X124276112Y-102702690D01*
X124173261Y-102548763D01*
X124173260Y-102548762D01*
X124102416Y-102377729D01*
X124084358Y-102286946D01*
X124066300Y-102196164D01*
X124066300Y-102011036D01*
X124102416Y-101829473D01*
X124102416Y-101829471D01*
X124173260Y-101658438D01*
X124276110Y-101504513D01*
X124276112Y-101504510D01*
X124407010Y-101373612D01*
X124560937Y-101270761D01*
X124560938Y-101270760D01*
X124731971Y-101199916D01*
X124822754Y-101181858D01*
X124913536Y-101163800D01*
X125098664Y-101163800D01*
X125189446Y-101181858D01*
X125189446Y-101181858D01*
G37*
G36*
X166259500Y-102743600D02*
X163457900Y-102743600D01*
X163457900Y-100092000D01*
X166259500Y-100092000D01*
X166259500Y-102743600D01*
X166259500Y-102743600D01*
G37*
G36*
X160058100Y-102383000D02*
X158534100Y-102383000D01*
X158534100Y-101570200D01*
X160058100Y-101570200D01*
X160058100Y-102383000D01*
X160058100Y-102383000D01*
G37*
G36*
X147086900Y-100914400D02*
X138485300Y-100914400D01*
X138485300Y-99312800D01*
X147086900Y-99312800D01*
X147086900Y-100914400D01*
X147086900Y-100914400D01*
G37*
G36*
X172273438Y-98649338D02*
X172446473Y-98721012D01*
X172602200Y-98825065D01*
X172734635Y-98957500D01*
X172838688Y-99113227D01*
X172910362Y-99286262D01*
X172946900Y-99469954D01*
X172946900Y-99657246D01*
X172910362Y-99840938D01*
X172838688Y-100013973D01*
X172734635Y-100169700D01*
X172602200Y-100302135D01*
X172446473Y-100406188D01*
X172273438Y-100477862D01*
X172089746Y-100514400D01*
X171902454Y-100514400D01*
X171718762Y-100477862D01*
X171545727Y-100406188D01*
X171390000Y-100302135D01*
X171257565Y-100169700D01*
X171153512Y-100013973D01*
X171081838Y-99840938D01*
X171045300Y-99657246D01*
X171045300Y-99469954D01*
X171081838Y-99286262D01*
X171153512Y-99113227D01*
X171257565Y-98957500D01*
X171390000Y-98825065D01*
X171545727Y-98721012D01*
X171718762Y-98649338D01*
X171902454Y-98612800D01*
X172089746Y-98612800D01*
X172273438Y-98649338D01*
X172273438Y-98649338D01*
G37*
G36*
X169733438Y-98649338D02*
X169906473Y-98721012D01*
X170062200Y-98825065D01*
X170194635Y-98957500D01*
X170298688Y-99113227D01*
X170370362Y-99286262D01*
X170406900Y-99469954D01*
X170406900Y-99657246D01*
X170370362Y-99840938D01*
X170298688Y-100013973D01*
X170194635Y-100169700D01*
X170062200Y-100302135D01*
X169906473Y-100406188D01*
X169733438Y-100477862D01*
X169549746Y-100514400D01*
X169362454Y-100514400D01*
X169178762Y-100477862D01*
X169005727Y-100406188D01*
X168850000Y-100302135D01*
X168717565Y-100169700D01*
X168613512Y-100013973D01*
X168541838Y-99840938D01*
X168505300Y-99657246D01*
X168505300Y-99469954D01*
X168541838Y-99286262D01*
X168613512Y-99113227D01*
X168717565Y-98957500D01*
X168850000Y-98825065D01*
X169005727Y-98721012D01*
X169178762Y-98649338D01*
X169362454Y-98612800D01*
X169549746Y-98612800D01*
X169733438Y-98649338D01*
X169733438Y-98649338D01*
G37*
G36*
X125189445Y-98641858D02*
X125280229Y-98659916D01*
X125451262Y-98730760D01*
X125592399Y-98825065D01*
X125605190Y-98833612D01*
X125736088Y-98964510D01*
X125736090Y-98964513D01*
X125838940Y-99118438D01*
X125909784Y-99289471D01*
X125909784Y-99289473D01*
X125945900Y-99471036D01*
X125945900Y-99656164D01*
X125929179Y-99740225D01*
X125909784Y-99837729D01*
X125838940Y-100008762D01*
X125783322Y-100092000D01*
X125736088Y-100162690D01*
X125605190Y-100293588D01*
X125605187Y-100293590D01*
X125451262Y-100396440D01*
X125280229Y-100467284D01*
X125189445Y-100485342D01*
X125098664Y-100503400D01*
X124913536Y-100503400D01*
X124822755Y-100485342D01*
X124731971Y-100467284D01*
X124560938Y-100396440D01*
X124407013Y-100293590D01*
X124407010Y-100293588D01*
X124276112Y-100162690D01*
X124228878Y-100092000D01*
X124173260Y-100008762D01*
X124102416Y-99837729D01*
X124083021Y-99740225D01*
X124066300Y-99656164D01*
X124066300Y-99471036D01*
X124102416Y-99289473D01*
X124102416Y-99289471D01*
X124173260Y-99118438D01*
X124276110Y-98964513D01*
X124276112Y-98964510D01*
X124407010Y-98833612D01*
X124419801Y-98825065D01*
X124560938Y-98730760D01*
X124731971Y-98659916D01*
X124822755Y-98641858D01*
X124913536Y-98623800D01*
X125098664Y-98623800D01*
X125189445Y-98641858D01*
X125189445Y-98641858D01*
G37*
G36*
X174646543Y-98669119D02*
X174712727Y-98675637D01*
X174825953Y-98709984D01*
X174882567Y-98727157D01*
X175021187Y-98801252D01*
X175039091Y-98810822D01*
X175066858Y-98833610D01*
X175176286Y-98923414D01*
X175259548Y-99024871D01*
X175288878Y-99060609D01*
X175288879Y-99060611D01*
X175372543Y-99217133D01*
X175372543Y-99217134D01*
X175424063Y-99386973D01*
X175441459Y-99563600D01*
X175424063Y-99740227D01*
X175394487Y-99837727D01*
X175372543Y-99910067D01*
X175319788Y-100008763D01*
X175288878Y-100066591D01*
X175268025Y-100092000D01*
X175176286Y-100203786D01*
X175074829Y-100287048D01*
X175039091Y-100316378D01*
X175039089Y-100316379D01*
X174882567Y-100400043D01*
X174862309Y-100406188D01*
X174712727Y-100451563D01*
X174646543Y-100458081D01*
X174580360Y-100464600D01*
X174491840Y-100464600D01*
X174425657Y-100458081D01*
X174359473Y-100451563D01*
X174209891Y-100406188D01*
X174189633Y-100400043D01*
X174033111Y-100316379D01*
X174033109Y-100316378D01*
X173997371Y-100287048D01*
X173895914Y-100203786D01*
X173804175Y-100092000D01*
X173783322Y-100066591D01*
X173752412Y-100008763D01*
X173699657Y-99910067D01*
X173677713Y-99837727D01*
X173648137Y-99740227D01*
X173630741Y-99563600D01*
X173648137Y-99386973D01*
X173699657Y-99217134D01*
X173699657Y-99217133D01*
X173783321Y-99060611D01*
X173783322Y-99060609D01*
X173812652Y-99024871D01*
X173895914Y-98923414D01*
X174005342Y-98833610D01*
X174033109Y-98810822D01*
X174051013Y-98801252D01*
X174189633Y-98727157D01*
X174246247Y-98709984D01*
X174359473Y-98675637D01*
X174425657Y-98669119D01*
X174491840Y-98662600D01*
X174580360Y-98662600D01*
X174646543Y-98669119D01*
X174646543Y-98669119D01*
G37*
G36*
X160058100Y-100097000D02*
X158534100Y-100097000D01*
X158534100Y-99284200D01*
X160058100Y-99284200D01*
X160058100Y-100097000D01*
X160058100Y-100097000D01*
G37*
G36*
X150683438Y-96109338D02*
X150856473Y-96181012D01*
X151012200Y-96285065D01*
X151144635Y-96417500D01*
X151248688Y-96573227D01*
X151320362Y-96746262D01*
X151356900Y-96929954D01*
X151356900Y-97117246D01*
X151320362Y-97300938D01*
X151248688Y-97473973D01*
X151144635Y-97629700D01*
X151012200Y-97762135D01*
X150856473Y-97866188D01*
X150683438Y-97937862D01*
X150499746Y-97974400D01*
X150312454Y-97974400D01*
X150128762Y-97937862D01*
X149955727Y-97866188D01*
X149800000Y-97762135D01*
X149667565Y-97629700D01*
X149563512Y-97473973D01*
X149491838Y-97300938D01*
X149455300Y-97117246D01*
X149455300Y-96929954D01*
X149491838Y-96746262D01*
X149563512Y-96573227D01*
X149667565Y-96417500D01*
X149800000Y-96285065D01*
X149955727Y-96181012D01*
X150128762Y-96109338D01*
X150312454Y-96072800D01*
X150499746Y-96072800D01*
X150683438Y-96109338D01*
X150683438Y-96109338D01*
G37*
G36*
X172273438Y-96109338D02*
X172446473Y-96181012D01*
X172602200Y-96285065D01*
X172734635Y-96417500D01*
X172838688Y-96573227D01*
X172910362Y-96746262D01*
X172946900Y-96929954D01*
X172946900Y-97117246D01*
X172910362Y-97300938D01*
X172838688Y-97473973D01*
X172734635Y-97629700D01*
X172602200Y-97762135D01*
X172446473Y-97866188D01*
X172273438Y-97937862D01*
X172089746Y-97974400D01*
X171902454Y-97974400D01*
X171718762Y-97937862D01*
X171545727Y-97866188D01*
X171390000Y-97762135D01*
X171257565Y-97629700D01*
X171153512Y-97473973D01*
X171081838Y-97300938D01*
X171045300Y-97117246D01*
X171045300Y-96929954D01*
X171081838Y-96746262D01*
X171153512Y-96573227D01*
X171257565Y-96417500D01*
X171390000Y-96285065D01*
X171545727Y-96181012D01*
X171718762Y-96109338D01*
X171902454Y-96072800D01*
X172089746Y-96072800D01*
X172273438Y-96109338D01*
X172273438Y-96109338D01*
G37*
G36*
X169733438Y-96109338D02*
X169906473Y-96181012D01*
X170062200Y-96285065D01*
X170194635Y-96417500D01*
X170298688Y-96573227D01*
X170370362Y-96746262D01*
X170406900Y-96929954D01*
X170406900Y-97117246D01*
X170370362Y-97300938D01*
X170298688Y-97473973D01*
X170194635Y-97629700D01*
X170062200Y-97762135D01*
X169906473Y-97866188D01*
X169733438Y-97937862D01*
X169549746Y-97974400D01*
X169362454Y-97974400D01*
X169178762Y-97937862D01*
X169005727Y-97866188D01*
X168850000Y-97762135D01*
X168717565Y-97629700D01*
X168613512Y-97473973D01*
X168541838Y-97300938D01*
X168505300Y-97117246D01*
X168505300Y-96929954D01*
X168541838Y-96746262D01*
X168613512Y-96573227D01*
X168717565Y-96417500D01*
X168850000Y-96285065D01*
X169005727Y-96181012D01*
X169178762Y-96109338D01*
X169362454Y-96072800D01*
X169549746Y-96072800D01*
X169733438Y-96109338D01*
X169733438Y-96109338D01*
G37*
G36*
X155763438Y-96109338D02*
X155936473Y-96181012D01*
X156092200Y-96285065D01*
X156224635Y-96417500D01*
X156328688Y-96573227D01*
X156400362Y-96746262D01*
X156436900Y-96929954D01*
X156436900Y-97117246D01*
X156400362Y-97300938D01*
X156328688Y-97473973D01*
X156224635Y-97629700D01*
X156092200Y-97762135D01*
X155936473Y-97866188D01*
X155763438Y-97937862D01*
X155579746Y-97974400D01*
X155392454Y-97974400D01*
X155208762Y-97937862D01*
X155035727Y-97866188D01*
X154880000Y-97762135D01*
X154747565Y-97629700D01*
X154643512Y-97473973D01*
X154571838Y-97300938D01*
X154535300Y-97117246D01*
X154535300Y-96929954D01*
X154571838Y-96746262D01*
X154643512Y-96573227D01*
X154747565Y-96417500D01*
X154880000Y-96285065D01*
X155035727Y-96181012D01*
X155208762Y-96109338D01*
X155392454Y-96072800D01*
X155579746Y-96072800D01*
X155763438Y-96109338D01*
X155763438Y-96109338D01*
G37*
G36*
X153223438Y-96109338D02*
X153396473Y-96181012D01*
X153552200Y-96285065D01*
X153684635Y-96417500D01*
X153788688Y-96573227D01*
X153860362Y-96746262D01*
X153896900Y-96929954D01*
X153896900Y-97117246D01*
X153860362Y-97300938D01*
X153788688Y-97473973D01*
X153684635Y-97629700D01*
X153552200Y-97762135D01*
X153396473Y-97866188D01*
X153223438Y-97937862D01*
X153039746Y-97974400D01*
X152852454Y-97974400D01*
X152668762Y-97937862D01*
X152495727Y-97866188D01*
X152340000Y-97762135D01*
X152207565Y-97629700D01*
X152103512Y-97473973D01*
X152031838Y-97300938D01*
X151995300Y-97117246D01*
X151995300Y-96929954D01*
X152031838Y-96746262D01*
X152103512Y-96573227D01*
X152207565Y-96417500D01*
X152340000Y-96285065D01*
X152495727Y-96181012D01*
X152668762Y-96109338D01*
X152852454Y-96072800D01*
X153039746Y-96072800D01*
X153223438Y-96109338D01*
X153223438Y-96109338D01*
G37*
G36*
X125189445Y-96101858D02*
X125280229Y-96119916D01*
X125451262Y-96190760D01*
X125592399Y-96285065D01*
X125605190Y-96293612D01*
X125736088Y-96424510D01*
X125736090Y-96424513D01*
X125838940Y-96578438D01*
X125909784Y-96749471D01*
X125909784Y-96749473D01*
X125945900Y-96931036D01*
X125945900Y-97116164D01*
X125929179Y-97200225D01*
X125909784Y-97297729D01*
X125838940Y-97468762D01*
X125737479Y-97620609D01*
X125736088Y-97622690D01*
X125605190Y-97753588D01*
X125605187Y-97753590D01*
X125451262Y-97856440D01*
X125280229Y-97927284D01*
X125189446Y-97945342D01*
X125098664Y-97963400D01*
X124913536Y-97963400D01*
X124822754Y-97945342D01*
X124731971Y-97927284D01*
X124560938Y-97856440D01*
X124407013Y-97753590D01*
X124407010Y-97753588D01*
X124276112Y-97622690D01*
X124274721Y-97620609D01*
X124173260Y-97468762D01*
X124102416Y-97297729D01*
X124083021Y-97200225D01*
X124066300Y-97116164D01*
X124066300Y-96931036D01*
X124102416Y-96749473D01*
X124102416Y-96749471D01*
X124173260Y-96578438D01*
X124276110Y-96424513D01*
X124276112Y-96424510D01*
X124407010Y-96293612D01*
X124419801Y-96285065D01*
X124560938Y-96190760D01*
X124731971Y-96119916D01*
X124822754Y-96101858D01*
X124913536Y-96083800D01*
X125098664Y-96083800D01*
X125189445Y-96101858D01*
X125189445Y-96101858D01*
G37*
G36*
X174646543Y-96129119D02*
X174712727Y-96135637D01*
X174825953Y-96169984D01*
X174882567Y-96187157D01*
X175021187Y-96261252D01*
X175039091Y-96270822D01*
X175066858Y-96293610D01*
X175176286Y-96383414D01*
X175259548Y-96484871D01*
X175288878Y-96520609D01*
X175288879Y-96520611D01*
X175372543Y-96677133D01*
X175372543Y-96677134D01*
X175424063Y-96846973D01*
X175441459Y-97023600D01*
X175424063Y-97200227D01*
X175394487Y-97297727D01*
X175372543Y-97370067D01*
X175319788Y-97468763D01*
X175288878Y-97526591D01*
X175259548Y-97562329D01*
X175176286Y-97663786D01*
X175074829Y-97747048D01*
X175039091Y-97776378D01*
X175039089Y-97776379D01*
X174882567Y-97860043D01*
X174862309Y-97866188D01*
X174712727Y-97911563D01*
X174646542Y-97918082D01*
X174580360Y-97924600D01*
X174491840Y-97924600D01*
X174425658Y-97918082D01*
X174359473Y-97911563D01*
X174209891Y-97866188D01*
X174189633Y-97860043D01*
X174033111Y-97776379D01*
X174033109Y-97776378D01*
X173997371Y-97747048D01*
X173895914Y-97663786D01*
X173812652Y-97562329D01*
X173783322Y-97526591D01*
X173752412Y-97468763D01*
X173699657Y-97370067D01*
X173677713Y-97297727D01*
X173648137Y-97200227D01*
X173630741Y-97023600D01*
X173648137Y-96846973D01*
X173699657Y-96677134D01*
X173699657Y-96677133D01*
X173783321Y-96520611D01*
X173783322Y-96520609D01*
X173812652Y-96484871D01*
X173895914Y-96383414D01*
X174005342Y-96293610D01*
X174033109Y-96270822D01*
X174051013Y-96261252D01*
X174189633Y-96187157D01*
X174246247Y-96169984D01*
X174359473Y-96135637D01*
X174425658Y-96129118D01*
X174491840Y-96122600D01*
X174580360Y-96122600D01*
X174646543Y-96129119D01*
X174646543Y-96129119D01*
G37*
G36*
X143548100Y-97430000D02*
X142024100Y-97430000D01*
X142024100Y-96617200D01*
X143548100Y-96617200D01*
X143548100Y-97430000D01*
X143548100Y-97430000D01*
G37*
G36*
X172273438Y-93569338D02*
X172446473Y-93641012D01*
X172602200Y-93745065D01*
X172734635Y-93877500D01*
X172838688Y-94033227D01*
X172910362Y-94206262D01*
X172946900Y-94389954D01*
X172946900Y-94577246D01*
X172910362Y-94760938D01*
X172838688Y-94933973D01*
X172734635Y-95089700D01*
X172602200Y-95222135D01*
X172446473Y-95326188D01*
X172273438Y-95397862D01*
X172089746Y-95434400D01*
X171902454Y-95434400D01*
X171718762Y-95397862D01*
X171545727Y-95326188D01*
X171390000Y-95222135D01*
X171257565Y-95089700D01*
X171153512Y-94933973D01*
X171081838Y-94760938D01*
X171045300Y-94577246D01*
X171045300Y-94389954D01*
X171081838Y-94206262D01*
X171153512Y-94033227D01*
X171257565Y-93877500D01*
X171390000Y-93745065D01*
X171545727Y-93641012D01*
X171718762Y-93569338D01*
X171902454Y-93532800D01*
X172089746Y-93532800D01*
X172273438Y-93569338D01*
X172273438Y-93569338D01*
G37*
G36*
X169733438Y-93569338D02*
X169906473Y-93641012D01*
X170062200Y-93745065D01*
X170194635Y-93877500D01*
X170298688Y-94033227D01*
X170370362Y-94206262D01*
X170406900Y-94389954D01*
X170406900Y-94577246D01*
X170370362Y-94760938D01*
X170298688Y-94933973D01*
X170194635Y-95089700D01*
X170062200Y-95222135D01*
X169906473Y-95326188D01*
X169733438Y-95397862D01*
X169549746Y-95434400D01*
X169362454Y-95434400D01*
X169178762Y-95397862D01*
X169005727Y-95326188D01*
X168850000Y-95222135D01*
X168717565Y-95089700D01*
X168613512Y-94933973D01*
X168541838Y-94760938D01*
X168505300Y-94577246D01*
X168505300Y-94389954D01*
X168541838Y-94206262D01*
X168613512Y-94033227D01*
X168717565Y-93877500D01*
X168850000Y-93745065D01*
X169005727Y-93641012D01*
X169178762Y-93569338D01*
X169362454Y-93532800D01*
X169549746Y-93532800D01*
X169733438Y-93569338D01*
X169733438Y-93569338D01*
G37*
G36*
X155763438Y-93569338D02*
X155936473Y-93641012D01*
X156092200Y-93745065D01*
X156224635Y-93877500D01*
X156328688Y-94033227D01*
X156400362Y-94206262D01*
X156436900Y-94389954D01*
X156436900Y-94577246D01*
X156400362Y-94760938D01*
X156328688Y-94933973D01*
X156224635Y-95089700D01*
X156092200Y-95222135D01*
X155936473Y-95326188D01*
X155763438Y-95397862D01*
X155579746Y-95434400D01*
X155392454Y-95434400D01*
X155208762Y-95397862D01*
X155035727Y-95326188D01*
X154880000Y-95222135D01*
X154747565Y-95089700D01*
X154643512Y-94933973D01*
X154571838Y-94760938D01*
X154535300Y-94577246D01*
X154535300Y-94389954D01*
X154571838Y-94206262D01*
X154643512Y-94033227D01*
X154747565Y-93877500D01*
X154880000Y-93745065D01*
X155035727Y-93641012D01*
X155208762Y-93569338D01*
X155392454Y-93532800D01*
X155579746Y-93532800D01*
X155763438Y-93569338D01*
X155763438Y-93569338D01*
G37*
G36*
X153223438Y-93569338D02*
X153396473Y-93641012D01*
X153552200Y-93745065D01*
X153684635Y-93877500D01*
X153788688Y-94033227D01*
X153860362Y-94206262D01*
X153896900Y-94389954D01*
X153896900Y-94577246D01*
X153860362Y-94760938D01*
X153788688Y-94933973D01*
X153684635Y-95089700D01*
X153552200Y-95222135D01*
X153396473Y-95326188D01*
X153223438Y-95397862D01*
X153039746Y-95434400D01*
X152852454Y-95434400D01*
X152668762Y-95397862D01*
X152495727Y-95326188D01*
X152340000Y-95222135D01*
X152207565Y-95089700D01*
X152103512Y-94933973D01*
X152031838Y-94760938D01*
X151995300Y-94577246D01*
X151995300Y-94389954D01*
X152031838Y-94206262D01*
X152103512Y-94033227D01*
X152207565Y-93877500D01*
X152340000Y-93745065D01*
X152495727Y-93641012D01*
X152668762Y-93569338D01*
X152852454Y-93532800D01*
X153039746Y-93532800D01*
X153223438Y-93569338D01*
X153223438Y-93569338D01*
G37*
G36*
X150683438Y-93569338D02*
X150856473Y-93641012D01*
X151012200Y-93745065D01*
X151144635Y-93877500D01*
X151248688Y-94033227D01*
X151320362Y-94206262D01*
X151356900Y-94389954D01*
X151356900Y-94577246D01*
X151320362Y-94760938D01*
X151248688Y-94933973D01*
X151144635Y-95089700D01*
X151012200Y-95222135D01*
X150856473Y-95326188D01*
X150683438Y-95397862D01*
X150499746Y-95434400D01*
X150312454Y-95434400D01*
X150128762Y-95397862D01*
X149955727Y-95326188D01*
X149800000Y-95222135D01*
X149667565Y-95089700D01*
X149563512Y-94933973D01*
X149491838Y-94760938D01*
X149455300Y-94577246D01*
X149455300Y-94389954D01*
X149491838Y-94206262D01*
X149563512Y-94033227D01*
X149667565Y-93877500D01*
X149800000Y-93745065D01*
X149955727Y-93641012D01*
X150128762Y-93569338D01*
X150312454Y-93532800D01*
X150499746Y-93532800D01*
X150683438Y-93569338D01*
X150683438Y-93569338D01*
G37*
G36*
X174646542Y-93589118D02*
X174712727Y-93595637D01*
X174821932Y-93628764D01*
X174882567Y-93647157D01*
X174973529Y-93695778D01*
X175039091Y-93730822D01*
X175074829Y-93760152D01*
X175176286Y-93843414D01*
X175236590Y-93916896D01*
X175288878Y-93980609D01*
X175288879Y-93980611D01*
X175372543Y-94137133D01*
X175372543Y-94137134D01*
X175424063Y-94306973D01*
X175441459Y-94483600D01*
X175424063Y-94660227D01*
X175398981Y-94742912D01*
X175372543Y-94830067D01*
X175332651Y-94904698D01*
X175288878Y-94986591D01*
X175259548Y-95022329D01*
X175176286Y-95123786D01*
X175074829Y-95207048D01*
X175039091Y-95236378D01*
X175039089Y-95236379D01*
X174882567Y-95320043D01*
X174862309Y-95326188D01*
X174712727Y-95371563D01*
X174646542Y-95378082D01*
X174580360Y-95384600D01*
X174491840Y-95384600D01*
X174425657Y-95378081D01*
X174359473Y-95371563D01*
X174209891Y-95326188D01*
X174189633Y-95320043D01*
X174033111Y-95236379D01*
X174033109Y-95236378D01*
X173997371Y-95207048D01*
X173895914Y-95123786D01*
X173812652Y-95022329D01*
X173783322Y-94986591D01*
X173739549Y-94904698D01*
X173699657Y-94830067D01*
X173673219Y-94742912D01*
X173648137Y-94660227D01*
X173630741Y-94483600D01*
X173648137Y-94306973D01*
X173699657Y-94137134D01*
X173699657Y-94137133D01*
X173783321Y-93980611D01*
X173783322Y-93980609D01*
X173835610Y-93916896D01*
X173895914Y-93843414D01*
X173997371Y-93760152D01*
X174033109Y-93730822D01*
X174098671Y-93695778D01*
X174189633Y-93647157D01*
X174250268Y-93628764D01*
X174359473Y-93595637D01*
X174425658Y-93589118D01*
X174491840Y-93582600D01*
X174580360Y-93582600D01*
X174646542Y-93589118D01*
X174646542Y-93589118D01*
G37*
G36*
X162095412Y-93628764D02*
X162257198Y-93695778D01*
X162402807Y-93793071D01*
X162526629Y-93916893D01*
X162623922Y-94062502D01*
X162690936Y-94224288D01*
X162725100Y-94396041D01*
X162725100Y-94571159D01*
X162690936Y-94742912D01*
X162623922Y-94904698D01*
X162526629Y-95050307D01*
X162402807Y-95174129D01*
X162257198Y-95271422D01*
X162095412Y-95338436D01*
X161923659Y-95372600D01*
X161748541Y-95372600D01*
X161576788Y-95338436D01*
X161415002Y-95271422D01*
X161269393Y-95174129D01*
X161145571Y-95050307D01*
X161048278Y-94904698D01*
X160981264Y-94742912D01*
X160947100Y-94571159D01*
X160947100Y-94396041D01*
X160981264Y-94224288D01*
X161048278Y-94062502D01*
X161145571Y-93916893D01*
X161269393Y-93793071D01*
X161415002Y-93695778D01*
X161576788Y-93628764D01*
X161748541Y-93594600D01*
X161923659Y-93594600D01*
X162095412Y-93628764D01*
X162095412Y-93628764D01*
G37*
G36*
X164635412Y-93628764D02*
X164797198Y-93695778D01*
X164942807Y-93793071D01*
X165066629Y-93916893D01*
X165163922Y-94062502D01*
X165230936Y-94224288D01*
X165265100Y-94396041D01*
X165265100Y-94571159D01*
X165230936Y-94742912D01*
X165163922Y-94904698D01*
X165066629Y-95050307D01*
X164942807Y-95174129D01*
X164797198Y-95271422D01*
X164635412Y-95338436D01*
X164463659Y-95372600D01*
X164288541Y-95372600D01*
X164116788Y-95338436D01*
X163955002Y-95271422D01*
X163809393Y-95174129D01*
X163685571Y-95050307D01*
X163588278Y-94904698D01*
X163521264Y-94742912D01*
X163487100Y-94571159D01*
X163487100Y-94396041D01*
X163521264Y-94224288D01*
X163588278Y-94062502D01*
X163685571Y-93916893D01*
X163809393Y-93793071D01*
X163955002Y-93695778D01*
X164116788Y-93628764D01*
X164288541Y-93594600D01*
X164463659Y-93594600D01*
X164635412Y-93628764D01*
X164635412Y-93628764D01*
G37*
G36*
X143548100Y-95144000D02*
X142024100Y-95144000D01*
X142024100Y-94331200D01*
X143548100Y-94331200D01*
X143548100Y-95144000D01*
X143548100Y-95144000D01*
G37*
G36*
X153223438Y-91029338D02*
X153396473Y-91101012D01*
X153552200Y-91205065D01*
X153684635Y-91337500D01*
X153788688Y-91493227D01*
X153860362Y-91666262D01*
X153896900Y-91849954D01*
X153896900Y-92037246D01*
X153860362Y-92220938D01*
X153788688Y-92393973D01*
X153684635Y-92549700D01*
X153552200Y-92682135D01*
X153396473Y-92786188D01*
X153223438Y-92857862D01*
X153039746Y-92894400D01*
X152852454Y-92894400D01*
X152668762Y-92857862D01*
X152495727Y-92786188D01*
X152340000Y-92682135D01*
X152207565Y-92549700D01*
X152103512Y-92393973D01*
X152031838Y-92220938D01*
X151995300Y-92037246D01*
X151995300Y-91849954D01*
X152031838Y-91666262D01*
X152103512Y-91493227D01*
X152207565Y-91337500D01*
X152340000Y-91205065D01*
X152495727Y-91101012D01*
X152668762Y-91029338D01*
X152852454Y-90992800D01*
X153039746Y-90992800D01*
X153223438Y-91029338D01*
X153223438Y-91029338D01*
G37*
G36*
X150683438Y-91029338D02*
X150856473Y-91101012D01*
X151012200Y-91205065D01*
X151144635Y-91337500D01*
X151248688Y-91493227D01*
X151320362Y-91666262D01*
X151356900Y-91849954D01*
X151356900Y-92037246D01*
X151320362Y-92220938D01*
X151248688Y-92393973D01*
X151144635Y-92549700D01*
X151012200Y-92682135D01*
X150856473Y-92786188D01*
X150683438Y-92857862D01*
X150499746Y-92894400D01*
X150312454Y-92894400D01*
X150128762Y-92857862D01*
X149955727Y-92786188D01*
X149800000Y-92682135D01*
X149667565Y-92549700D01*
X149563512Y-92393973D01*
X149491838Y-92220938D01*
X149455300Y-92037246D01*
X149455300Y-91849954D01*
X149491838Y-91666262D01*
X149563512Y-91493227D01*
X149667565Y-91337500D01*
X149800000Y-91205065D01*
X149955727Y-91101012D01*
X150128762Y-91029338D01*
X150312454Y-90992800D01*
X150499746Y-90992800D01*
X150683438Y-91029338D01*
X150683438Y-91029338D01*
G37*
G36*
X169733438Y-91029338D02*
X169906473Y-91101012D01*
X170062200Y-91205065D01*
X170194635Y-91337500D01*
X170298688Y-91493227D01*
X170370362Y-91666262D01*
X170406900Y-91849954D01*
X170406900Y-92037246D01*
X170370362Y-92220938D01*
X170298688Y-92393973D01*
X170194635Y-92549700D01*
X170062200Y-92682135D01*
X169906473Y-92786188D01*
X169733438Y-92857862D01*
X169549746Y-92894400D01*
X169362454Y-92894400D01*
X169178762Y-92857862D01*
X169005727Y-92786188D01*
X168850000Y-92682135D01*
X168717565Y-92549700D01*
X168613512Y-92393973D01*
X168541838Y-92220938D01*
X168505300Y-92037246D01*
X168505300Y-91849954D01*
X168541838Y-91666262D01*
X168613512Y-91493227D01*
X168717565Y-91337500D01*
X168850000Y-91205065D01*
X169005727Y-91101012D01*
X169178762Y-91029338D01*
X169362454Y-90992800D01*
X169549746Y-90992800D01*
X169733438Y-91029338D01*
X169733438Y-91029338D01*
G37*
G36*
X172273438Y-91029338D02*
X172446473Y-91101012D01*
X172602200Y-91205065D01*
X172734635Y-91337500D01*
X172838688Y-91493227D01*
X172910362Y-91666262D01*
X172946900Y-91849954D01*
X172946900Y-92037246D01*
X172910362Y-92220938D01*
X172838688Y-92393973D01*
X172734635Y-92549700D01*
X172602200Y-92682135D01*
X172446473Y-92786188D01*
X172273438Y-92857862D01*
X172089746Y-92894400D01*
X171902454Y-92894400D01*
X171718762Y-92857862D01*
X171545727Y-92786188D01*
X171390000Y-92682135D01*
X171257565Y-92549700D01*
X171153512Y-92393973D01*
X171081838Y-92220938D01*
X171045300Y-92037246D01*
X171045300Y-91849954D01*
X171081838Y-91666262D01*
X171153512Y-91493227D01*
X171257565Y-91337500D01*
X171390000Y-91205065D01*
X171545727Y-91101012D01*
X171718762Y-91029338D01*
X171902454Y-90992800D01*
X172089746Y-90992800D01*
X172273438Y-91029338D01*
X172273438Y-91029338D01*
G37*
G36*
X155763438Y-91029338D02*
X155936473Y-91101012D01*
X156092200Y-91205065D01*
X156224635Y-91337500D01*
X156328688Y-91493227D01*
X156400362Y-91666262D01*
X156436900Y-91849954D01*
X156436900Y-92037246D01*
X156400362Y-92220938D01*
X156328688Y-92393973D01*
X156224635Y-92549700D01*
X156092200Y-92682135D01*
X155936473Y-92786188D01*
X155763438Y-92857862D01*
X155579746Y-92894400D01*
X155392454Y-92894400D01*
X155208762Y-92857862D01*
X155035727Y-92786188D01*
X154880000Y-92682135D01*
X154747565Y-92549700D01*
X154643512Y-92393973D01*
X154571838Y-92220938D01*
X154535300Y-92037246D01*
X154535300Y-91849954D01*
X154571838Y-91666262D01*
X154643512Y-91493227D01*
X154747565Y-91337500D01*
X154880000Y-91205065D01*
X155035727Y-91101012D01*
X155208762Y-91029338D01*
X155392454Y-90992800D01*
X155579746Y-90992800D01*
X155763438Y-91029338D01*
X155763438Y-91029338D01*
G37*
G36*
X175437100Y-92844600D02*
X173635100Y-92844600D01*
X173635100Y-91042600D01*
X175437100Y-91042600D01*
X175437100Y-92844600D01*
X175437100Y-92844600D01*
G37*
G36*
X162095412Y-91088764D02*
X162257198Y-91155778D01*
X162402807Y-91253071D01*
X162526629Y-91376893D01*
X162623922Y-91522502D01*
X162690936Y-91684288D01*
X162725100Y-91856041D01*
X162725100Y-92031159D01*
X162690936Y-92202912D01*
X162623922Y-92364698D01*
X162526629Y-92510307D01*
X162402807Y-92634129D01*
X162257198Y-92731422D01*
X162095412Y-92798436D01*
X161923659Y-92832600D01*
X161748541Y-92832600D01*
X161576788Y-92798436D01*
X161415002Y-92731422D01*
X161269393Y-92634129D01*
X161145571Y-92510307D01*
X161048278Y-92364698D01*
X160981264Y-92202912D01*
X160947100Y-92031159D01*
X160947100Y-91856041D01*
X160981264Y-91684288D01*
X161048278Y-91522502D01*
X161145571Y-91376893D01*
X161269393Y-91253071D01*
X161415002Y-91155778D01*
X161576788Y-91088764D01*
X161748541Y-91054600D01*
X161923659Y-91054600D01*
X162095412Y-91088764D01*
X162095412Y-91088764D01*
G37*
G36*
X164635412Y-91088764D02*
X164797198Y-91155778D01*
X164942807Y-91253071D01*
X165066629Y-91376893D01*
X165163922Y-91522502D01*
X165230936Y-91684288D01*
X165265100Y-91856041D01*
X165265100Y-92031159D01*
X165230936Y-92202912D01*
X165163922Y-92364698D01*
X165066629Y-92510307D01*
X164942807Y-92634129D01*
X164797198Y-92731422D01*
X164664981Y-92786188D01*
X164635412Y-92798436D01*
X164463659Y-92832600D01*
X164288541Y-92832600D01*
X164116788Y-92798436D01*
X164087219Y-92786188D01*
X163955002Y-92731422D01*
X163809393Y-92634129D01*
X163685571Y-92510307D01*
X163588278Y-92364698D01*
X163521264Y-92202912D01*
X163487100Y-92031159D01*
X163487100Y-91856041D01*
X163521264Y-91684288D01*
X163588278Y-91522502D01*
X163685571Y-91376893D01*
X163809393Y-91253071D01*
X163955002Y-91155778D01*
X164116788Y-91088764D01*
X164288541Y-91054600D01*
X164463659Y-91054600D01*
X164635412Y-91088764D01*
X164635412Y-91088764D01*
G37*
G36*
X164635412Y-88548764D02*
X164797198Y-88615778D01*
X164942807Y-88713071D01*
X165066629Y-88836893D01*
X165163922Y-88982502D01*
X165230936Y-89144288D01*
X165265100Y-89316041D01*
X165265100Y-89491159D01*
X165230936Y-89662912D01*
X165163922Y-89824698D01*
X165066629Y-89970307D01*
X164942807Y-90094129D01*
X164797198Y-90191422D01*
X164635412Y-90258436D01*
X164463659Y-90292600D01*
X164288541Y-90292600D01*
X164116788Y-90258436D01*
X163955002Y-90191422D01*
X163809393Y-90094129D01*
X163685571Y-89970307D01*
X163588278Y-89824698D01*
X163521264Y-89662912D01*
X163487100Y-89491159D01*
X163487100Y-89316041D01*
X163521264Y-89144288D01*
X163588278Y-88982502D01*
X163685571Y-88836893D01*
X163809393Y-88713071D01*
X163955002Y-88615778D01*
X164116788Y-88548764D01*
X164288541Y-88514600D01*
X164463659Y-88514600D01*
X164635412Y-88548764D01*
X164635412Y-88548764D01*
G37*
G36*
X162095412Y-88548764D02*
X162257198Y-88615778D01*
X162402807Y-88713071D01*
X162526629Y-88836893D01*
X162623922Y-88982502D01*
X162690936Y-89144288D01*
X162725100Y-89316041D01*
X162725100Y-89491159D01*
X162690936Y-89662912D01*
X162623922Y-89824698D01*
X162526629Y-89970307D01*
X162402807Y-90094129D01*
X162257198Y-90191422D01*
X162095412Y-90258436D01*
X161923659Y-90292600D01*
X161748541Y-90292600D01*
X161576788Y-90258436D01*
X161415002Y-90191422D01*
X161269393Y-90094129D01*
X161145571Y-89970307D01*
X161048278Y-89824698D01*
X160981264Y-89662912D01*
X160947100Y-89491159D01*
X160947100Y-89316041D01*
X160981264Y-89144288D01*
X161048278Y-88982502D01*
X161145571Y-88836893D01*
X161269393Y-88713071D01*
X161415002Y-88615778D01*
X161576788Y-88548764D01*
X161748541Y-88514600D01*
X161923659Y-88514600D01*
X162095412Y-88548764D01*
X162095412Y-88548764D01*
G37*
G36*
X135349445Y-85941858D02*
X135440229Y-85959916D01*
X135611262Y-86030760D01*
X135611263Y-86030761D01*
X135765190Y-86133612D01*
X135896088Y-86264510D01*
X135896090Y-86264513D01*
X135998940Y-86418438D01*
X136069784Y-86589471D01*
X136105900Y-86771038D01*
X136105900Y-86956162D01*
X136069784Y-87137729D01*
X135998940Y-87308762D01*
X135998939Y-87308763D01*
X135896088Y-87462690D01*
X135765190Y-87593588D01*
X135765187Y-87593590D01*
X135611262Y-87696440D01*
X135440229Y-87767284D01*
X135349445Y-87785342D01*
X135258664Y-87803400D01*
X135073536Y-87803400D01*
X134982755Y-87785342D01*
X134891971Y-87767284D01*
X134720938Y-87696440D01*
X134567013Y-87593590D01*
X134567010Y-87593588D01*
X134436112Y-87462690D01*
X134333261Y-87308763D01*
X134333260Y-87308762D01*
X134262416Y-87137729D01*
X134226300Y-86956162D01*
X134226300Y-86771038D01*
X134262416Y-86589471D01*
X134333260Y-86418438D01*
X134436110Y-86264513D01*
X134436112Y-86264510D01*
X134567010Y-86133612D01*
X134720937Y-86030761D01*
X134720938Y-86030760D01*
X134891971Y-85959916D01*
X134982755Y-85941858D01*
X135073536Y-85923800D01*
X135258664Y-85923800D01*
X135349445Y-85941858D01*
X135349445Y-85941858D01*
G37*
G36*
X132809445Y-85941858D02*
X132900229Y-85959916D01*
X133071262Y-86030760D01*
X133071263Y-86030761D01*
X133225190Y-86133612D01*
X133356088Y-86264510D01*
X133356090Y-86264513D01*
X133458940Y-86418438D01*
X133529784Y-86589471D01*
X133565900Y-86771038D01*
X133565900Y-86956162D01*
X133529784Y-87137729D01*
X133458940Y-87308762D01*
X133458939Y-87308763D01*
X133356088Y-87462690D01*
X133225190Y-87593588D01*
X133225187Y-87593590D01*
X133071262Y-87696440D01*
X132900229Y-87767284D01*
X132809445Y-87785342D01*
X132718664Y-87803400D01*
X132533536Y-87803400D01*
X132442755Y-87785342D01*
X132351971Y-87767284D01*
X132180938Y-87696440D01*
X132027013Y-87593590D01*
X132027010Y-87593588D01*
X131896112Y-87462690D01*
X131793261Y-87308763D01*
X131793260Y-87308762D01*
X131722416Y-87137729D01*
X131686300Y-86956162D01*
X131686300Y-86771038D01*
X131722416Y-86589471D01*
X131793260Y-86418438D01*
X131896110Y-86264513D01*
X131896112Y-86264510D01*
X132027010Y-86133612D01*
X132180937Y-86030761D01*
X132180938Y-86030760D01*
X132351971Y-85959916D01*
X132442755Y-85941858D01*
X132533536Y-85923800D01*
X132718664Y-85923800D01*
X132809445Y-85941858D01*
X132809445Y-85941858D01*
G37*
G36*
X130269445Y-85941858D02*
X130360229Y-85959916D01*
X130531262Y-86030760D01*
X130531263Y-86030761D01*
X130685190Y-86133612D01*
X130816088Y-86264510D01*
X130816090Y-86264513D01*
X130918940Y-86418438D01*
X130989784Y-86589471D01*
X131025900Y-86771038D01*
X131025900Y-86956162D01*
X130989784Y-87137729D01*
X130918940Y-87308762D01*
X130918939Y-87308763D01*
X130816088Y-87462690D01*
X130685190Y-87593588D01*
X130685187Y-87593590D01*
X130531262Y-87696440D01*
X130360229Y-87767284D01*
X130269445Y-87785342D01*
X130178664Y-87803400D01*
X129993536Y-87803400D01*
X129902755Y-87785342D01*
X129811971Y-87767284D01*
X129640938Y-87696440D01*
X129487013Y-87593590D01*
X129487010Y-87593588D01*
X129356112Y-87462690D01*
X129253261Y-87308763D01*
X129253260Y-87308762D01*
X129182416Y-87137729D01*
X129146300Y-86956162D01*
X129146300Y-86771038D01*
X129182416Y-86589471D01*
X129253260Y-86418438D01*
X129356110Y-86264513D01*
X129356112Y-86264510D01*
X129487010Y-86133612D01*
X129640937Y-86030761D01*
X129640938Y-86030760D01*
X129811971Y-85959916D01*
X129902755Y-85941858D01*
X129993536Y-85923800D01*
X130178664Y-85923800D01*
X130269445Y-85941858D01*
X130269445Y-85941858D01*
G37*
G36*
X150589445Y-85941858D02*
X150680229Y-85959916D01*
X150851262Y-86030760D01*
X150851263Y-86030761D01*
X151005190Y-86133612D01*
X151136088Y-86264510D01*
X151136090Y-86264513D01*
X151238940Y-86418438D01*
X151309784Y-86589471D01*
X151345900Y-86771038D01*
X151345900Y-86956162D01*
X151309784Y-87137729D01*
X151238940Y-87308762D01*
X151238939Y-87308763D01*
X151136088Y-87462690D01*
X151005190Y-87593588D01*
X151005187Y-87593590D01*
X150851262Y-87696440D01*
X150680229Y-87767284D01*
X150589445Y-87785342D01*
X150498664Y-87803400D01*
X150313536Y-87803400D01*
X150222755Y-87785342D01*
X150131971Y-87767284D01*
X149960938Y-87696440D01*
X149807013Y-87593590D01*
X149807010Y-87593588D01*
X149676112Y-87462690D01*
X149573261Y-87308763D01*
X149573260Y-87308762D01*
X149502416Y-87137729D01*
X149466300Y-86956162D01*
X149466300Y-86771038D01*
X149502416Y-86589471D01*
X149573260Y-86418438D01*
X149676110Y-86264513D01*
X149676112Y-86264510D01*
X149807010Y-86133612D01*
X149960937Y-86030761D01*
X149960938Y-86030760D01*
X150131971Y-85959916D01*
X150222755Y-85941858D01*
X150313536Y-85923800D01*
X150498664Y-85923800D01*
X150589445Y-85941858D01*
X150589445Y-85941858D01*
G37*
G36*
X137889445Y-85941858D02*
X137980229Y-85959916D01*
X138151262Y-86030760D01*
X138151263Y-86030761D01*
X138305190Y-86133612D01*
X138436088Y-86264510D01*
X138436090Y-86264513D01*
X138538940Y-86418438D01*
X138609784Y-86589471D01*
X138645900Y-86771038D01*
X138645900Y-86956162D01*
X138609784Y-87137729D01*
X138538940Y-87308762D01*
X138538939Y-87308763D01*
X138436088Y-87462690D01*
X138305190Y-87593588D01*
X138305187Y-87593590D01*
X138151262Y-87696440D01*
X137980229Y-87767284D01*
X137889445Y-87785342D01*
X137798664Y-87803400D01*
X137613536Y-87803400D01*
X137522755Y-87785342D01*
X137431971Y-87767284D01*
X137260938Y-87696440D01*
X137107013Y-87593590D01*
X137107010Y-87593588D01*
X136976112Y-87462690D01*
X136873261Y-87308763D01*
X136873260Y-87308762D01*
X136802416Y-87137729D01*
X136766300Y-86956162D01*
X136766300Y-86771038D01*
X136802416Y-86589471D01*
X136873260Y-86418438D01*
X136976110Y-86264513D01*
X136976112Y-86264510D01*
X137107010Y-86133612D01*
X137260937Y-86030761D01*
X137260938Y-86030760D01*
X137431971Y-85959916D01*
X137522755Y-85941858D01*
X137613536Y-85923800D01*
X137798664Y-85923800D01*
X137889445Y-85941858D01*
X137889445Y-85941858D01*
G37*
G36*
X148049445Y-85941858D02*
X148140229Y-85959916D01*
X148311262Y-86030760D01*
X148311263Y-86030761D01*
X148465190Y-86133612D01*
X148596088Y-86264510D01*
X148596090Y-86264513D01*
X148698940Y-86418438D01*
X148769784Y-86589471D01*
X148805900Y-86771038D01*
X148805900Y-86956162D01*
X148769784Y-87137729D01*
X148698940Y-87308762D01*
X148698939Y-87308763D01*
X148596088Y-87462690D01*
X148465190Y-87593588D01*
X148465187Y-87593590D01*
X148311262Y-87696440D01*
X148140229Y-87767284D01*
X148049445Y-87785342D01*
X147958664Y-87803400D01*
X147773536Y-87803400D01*
X147682755Y-87785342D01*
X147591971Y-87767284D01*
X147420938Y-87696440D01*
X147267013Y-87593590D01*
X147267010Y-87593588D01*
X147136112Y-87462690D01*
X147033261Y-87308763D01*
X147033260Y-87308762D01*
X146962416Y-87137729D01*
X146926300Y-86956162D01*
X146926300Y-86771038D01*
X146962416Y-86589471D01*
X147033260Y-86418438D01*
X147136110Y-86264513D01*
X147136112Y-86264510D01*
X147267010Y-86133612D01*
X147420937Y-86030761D01*
X147420938Y-86030760D01*
X147591971Y-85959916D01*
X147682755Y-85941858D01*
X147773536Y-85923800D01*
X147958664Y-85923800D01*
X148049445Y-85941858D01*
X148049445Y-85941858D01*
G37*
G36*
X145509445Y-85941858D02*
X145600229Y-85959916D01*
X145771262Y-86030760D01*
X145771263Y-86030761D01*
X145925190Y-86133612D01*
X146056088Y-86264510D01*
X146056090Y-86264513D01*
X146158940Y-86418438D01*
X146229784Y-86589471D01*
X146265900Y-86771038D01*
X146265900Y-86956162D01*
X146229784Y-87137729D01*
X146158940Y-87308762D01*
X146158939Y-87308763D01*
X146056088Y-87462690D01*
X145925190Y-87593588D01*
X145925187Y-87593590D01*
X145771262Y-87696440D01*
X145600229Y-87767284D01*
X145509445Y-87785342D01*
X145418664Y-87803400D01*
X145233536Y-87803400D01*
X145142755Y-87785342D01*
X145051971Y-87767284D01*
X144880938Y-87696440D01*
X144727013Y-87593590D01*
X144727010Y-87593588D01*
X144596112Y-87462690D01*
X144493261Y-87308763D01*
X144493260Y-87308762D01*
X144422416Y-87137729D01*
X144386300Y-86956162D01*
X144386300Y-86771038D01*
X144422416Y-86589471D01*
X144493260Y-86418438D01*
X144596110Y-86264513D01*
X144596112Y-86264510D01*
X144727010Y-86133612D01*
X144880937Y-86030761D01*
X144880938Y-86030760D01*
X145051971Y-85959916D01*
X145142755Y-85941858D01*
X145233536Y-85923800D01*
X145418664Y-85923800D01*
X145509445Y-85941858D01*
X145509445Y-85941858D01*
G37*
G36*
X142969445Y-85941858D02*
X143060229Y-85959916D01*
X143231262Y-86030760D01*
X143231263Y-86030761D01*
X143385190Y-86133612D01*
X143516088Y-86264510D01*
X143516090Y-86264513D01*
X143618940Y-86418438D01*
X143689784Y-86589471D01*
X143725900Y-86771038D01*
X143725900Y-86956162D01*
X143689784Y-87137729D01*
X143618940Y-87308762D01*
X143618939Y-87308763D01*
X143516088Y-87462690D01*
X143385190Y-87593588D01*
X143385187Y-87593590D01*
X143231262Y-87696440D01*
X143060229Y-87767284D01*
X142969445Y-87785342D01*
X142878664Y-87803400D01*
X142693536Y-87803400D01*
X142602755Y-87785342D01*
X142511971Y-87767284D01*
X142340938Y-87696440D01*
X142187013Y-87593590D01*
X142187010Y-87593588D01*
X142056112Y-87462690D01*
X141953261Y-87308763D01*
X141953260Y-87308762D01*
X141882416Y-87137729D01*
X141846300Y-86956162D01*
X141846300Y-86771038D01*
X141882416Y-86589471D01*
X141953260Y-86418438D01*
X142056110Y-86264513D01*
X142056112Y-86264510D01*
X142187010Y-86133612D01*
X142340937Y-86030761D01*
X142340938Y-86030760D01*
X142511971Y-85959916D01*
X142602755Y-85941858D01*
X142693536Y-85923800D01*
X142878664Y-85923800D01*
X142969445Y-85941858D01*
X142969445Y-85941858D01*
G37*
G36*
X140429445Y-85941858D02*
X140520229Y-85959916D01*
X140691262Y-86030760D01*
X140691263Y-86030761D01*
X140845190Y-86133612D01*
X140976088Y-86264510D01*
X140976090Y-86264513D01*
X141078940Y-86418438D01*
X141149784Y-86589471D01*
X141185900Y-86771038D01*
X141185900Y-86956162D01*
X141149784Y-87137729D01*
X141078940Y-87308762D01*
X141078939Y-87308763D01*
X140976088Y-87462690D01*
X140845190Y-87593588D01*
X140845187Y-87593590D01*
X140691262Y-87696440D01*
X140520229Y-87767284D01*
X140429445Y-87785342D01*
X140338664Y-87803400D01*
X140153536Y-87803400D01*
X140062755Y-87785342D01*
X139971971Y-87767284D01*
X139800938Y-87696440D01*
X139647013Y-87593590D01*
X139647010Y-87593588D01*
X139516112Y-87462690D01*
X139413261Y-87308763D01*
X139413260Y-87308762D01*
X139342416Y-87137729D01*
X139306300Y-86956162D01*
X139306300Y-86771038D01*
X139342416Y-86589471D01*
X139413260Y-86418438D01*
X139516110Y-86264513D01*
X139516112Y-86264510D01*
X139647010Y-86133612D01*
X139800937Y-86030761D01*
X139800938Y-86030760D01*
X139971971Y-85959916D01*
X140062755Y-85941858D01*
X140153536Y-85923800D01*
X140338664Y-85923800D01*
X140429445Y-85941858D01*
X140429445Y-85941858D01*
G37*
M02*
