G75*
G70*
%OFA0B0*%
%FSLAX24Y24*%
%IPPOS*%
%LPD*%
%AMOC8*
5,1,8,0,0,1.08239X$1,22.5*
%
%ADD10C,0.0000*%
%ADD11R,0.0631X0.0237*%
%ADD12R,0.0237X0.0631*%
%ADD13C,0.0600*%
%ADD14R,0.0600X0.0320*%
%ADD15R,0.0320X0.0600*%
%ADD16R,0.0700X0.0700*%
%ADD17OC8,0.0700*%
%ADD18C,0.0640*%
%ADD19R,0.0670X0.0512*%
%ADD20OC8,0.0740*%
%ADD21C,0.0745*%
%ADD22R,0.0741X0.0890*%
%ADD23R,0.1103X0.1044*%
%ADD24OC8,0.0749*%
%ADD25R,0.0906X0.0749*%
%ADD26R,0.0749X0.0906*%
%ADD27R,0.0631X0.0552*%
%ADD28OC8,0.0760*%
%ADD29OC8,0.0500*%
%ADD30OC8,0.3000*%
%ADD31OC8,0.3040*%
D10*
X005060Y005553D02*
X005060Y023270D01*
X026560Y023270D01*
X026560Y005553D01*
X005060Y005553D01*
D11*
X011276Y012479D03*
X011276Y012794D03*
X011276Y013109D03*
X011276Y013423D03*
X011276Y013738D03*
X011276Y014053D03*
X011276Y014368D03*
X011276Y014683D03*
X011276Y014998D03*
X011276Y015313D03*
X011276Y015628D03*
X015843Y015628D03*
X015843Y015313D03*
X015843Y014998D03*
X015843Y014683D03*
X015843Y014368D03*
X015843Y014053D03*
X015843Y013738D03*
X015843Y013423D03*
X015843Y013109D03*
X015843Y012794D03*
X015843Y012479D03*
D12*
X015134Y011770D03*
X014819Y011770D03*
X014504Y011770D03*
X014189Y011770D03*
X013874Y011770D03*
X013560Y011770D03*
X013245Y011770D03*
X012930Y011770D03*
X012615Y011770D03*
X012300Y011770D03*
X011985Y011770D03*
X011985Y016337D03*
X012300Y016337D03*
X012615Y016337D03*
X012930Y016337D03*
X013245Y016337D03*
X013560Y016337D03*
X013874Y016337D03*
X014189Y016337D03*
X014504Y016337D03*
X014819Y016337D03*
X015134Y016337D03*
D13*
X018780Y014053D02*
X019340Y014053D01*
X019340Y012053D02*
X018780Y012053D01*
D14*
X017735Y013138D03*
X017735Y014038D03*
X020060Y015603D03*
X020430Y015003D03*
X021100Y015003D03*
X021100Y014103D03*
X020430Y014103D03*
X020390Y012878D03*
X020390Y011978D03*
X016560Y010503D03*
X016560Y009603D03*
X013260Y009578D03*
X013260Y010478D03*
X010160Y012283D03*
X010160Y013183D03*
X013560Y017553D03*
X013560Y018453D03*
X020060Y016503D03*
X025490Y013053D03*
X026060Y013053D03*
X026060Y012153D03*
X025490Y012153D03*
D15*
X019670Y008043D03*
X018770Y008043D03*
X010510Y014053D03*
X010510Y014828D03*
X009610Y014828D03*
X009610Y014053D03*
X008780Y010553D03*
X007880Y010553D03*
D16*
X021060Y020553D03*
D17*
X022060Y020553D03*
X022060Y019553D03*
X022060Y018553D03*
X021060Y018553D03*
X021060Y019553D03*
X008060Y012553D03*
X008060Y011553D03*
D18*
X024610Y012053D02*
X025210Y012053D01*
X025210Y013053D02*
X024610Y013053D01*
X024610Y014053D02*
X025210Y014053D01*
D19*
X008960Y014494D03*
X008960Y013313D03*
D20*
X006560Y013553D03*
X006560Y014553D03*
X006560Y015553D03*
X006560Y016553D03*
X006560Y017553D03*
X008560Y022053D03*
X009560Y022053D03*
X010560Y022053D03*
X011560Y022053D03*
X012560Y022053D03*
X013560Y022053D03*
X014560Y022053D03*
X015560Y022053D03*
X016560Y022053D03*
X006560Y012553D03*
X006560Y011553D03*
X006560Y010553D03*
X006560Y009553D03*
X008560Y006553D03*
X009560Y006553D03*
X010560Y006553D03*
X011560Y006553D03*
X012560Y006553D03*
X013560Y006553D03*
X014560Y006553D03*
X015560Y006553D03*
X016560Y006553D03*
X017560Y006553D03*
X018560Y006553D03*
X019560Y006553D03*
D21*
X021575Y007201D02*
X021575Y007906D01*
X023544Y007906D02*
X023544Y007201D01*
D22*
X023363Y006553D03*
X021760Y006553D03*
D23*
X022250Y013323D03*
X022250Y015823D03*
D24*
X024060Y016553D03*
X025060Y016553D03*
X025060Y017553D03*
X025060Y018553D03*
X025060Y019553D03*
X024060Y019553D03*
X024060Y018553D03*
X024060Y017553D03*
X019060Y018053D03*
X018060Y018053D03*
X017060Y018053D03*
X017060Y016553D03*
X018060Y016553D03*
X019060Y016553D03*
X019060Y019553D03*
X018060Y019553D03*
X017060Y019553D03*
X025060Y010803D03*
X026060Y010803D03*
X017560Y007553D03*
X016560Y007553D03*
X015560Y007553D03*
X008060Y009553D03*
X008060Y013553D03*
D25*
X020760Y009057D03*
X020760Y007049D03*
X023610Y009949D03*
X023610Y011957D03*
D26*
X023613Y009103D03*
X021606Y009103D03*
D27*
X018290Y008698D03*
X018290Y008029D03*
X016560Y008219D03*
X016560Y008888D03*
D28*
X013060Y008803D03*
X008060Y014553D03*
X013560Y019053D03*
X021185Y016053D03*
X023060Y016053D03*
X023060Y017053D03*
X023060Y018053D03*
X026060Y017553D03*
X026060Y018553D03*
X026060Y019553D03*
X026060Y016553D03*
X021185Y013053D03*
X025060Y009553D03*
X026060Y009553D03*
X026060Y008553D03*
X026060Y007553D03*
X026060Y006553D03*
X025060Y006553D03*
X025060Y007553D03*
X025060Y008553D03*
D29*
X012710Y013123D03*
X012260Y013603D03*
X012240Y014673D03*
X010060Y015403D03*
D30*
X006560Y021763D03*
X006560Y007053D03*
X025050Y021763D03*
D31*
X025050Y021763D03*
X006560Y021763D03*
X006560Y007053D03*
M02*
