%
M48
M72
T01C0.0236
T02C0.0276
T03C0.0320
T04C0.0354
T05C0.0360
T06C0.0400
T07C0.0470
T08C0.1260
%
T01
X5000Y9850
X7180Y9120
X7200Y8050
X7650Y7570
T02
X14000Y6500
X14000Y8500
X16125Y7500
X16125Y10500
X8500Y13500
X8000Y3250
X3000Y9000
X18000Y10500
X18000Y11500
X18000Y12500
T03
X3000Y6000
X3000Y7000
T04
X12000Y11000
X13000Y11000
X13000Y12500
X12000Y12500
X12000Y14000
X13000Y14000
X14000Y11000
X14000Y12500
X14000Y14000
X20000Y14000
X20000Y13000
X20000Y12000
X20000Y11000
X19000Y14000
X19000Y13000
X19000Y12000
X19000Y11000
X12500Y2000
X11500Y2000
X10500Y2000
X3000Y8000
X3000Y4000
X20000Y5250
X21000Y5250
X21000Y3000
X21000Y2000
X21000Y1000
X21000Y4000
X20000Y1000
X20000Y2000
X20000Y3000
X20000Y4000
X21000Y13000
X21000Y12000
X21000Y11000
X21000Y14000
T05
X16000Y15000
X17000Y15000
X16000Y14000
X17000Y14000
X16000Y13000
X17000Y13000
T06
X19850Y6500
X19850Y7500
X19850Y8500
X11500Y16500
X10500Y16500
X9500Y16500
X8500Y16500
X7500Y16500
X6500Y16500
X5500Y16500
X4500Y16500
X3500Y16500
X1500Y12000
X1500Y11000
X1500Y10000
X1500Y9000
X1500Y8000
X1500Y7000
X1500Y6000
X1500Y5000
X1500Y4000
X14500Y1000
X13500Y1000
X12500Y1000
X11500Y1000
X10500Y1000
X9500Y1000
X8500Y1000
X7500Y1000
X6500Y1000
X5500Y1000
X4500Y1000
X3500Y1000
T07
X18484Y2000
X16516Y2000
T08
X1500Y16210
X1500Y1500
X19990Y16210
M30
