G75*
G70*
%OFA0B0*%
%FSLAX24Y24*%
%IPPOS*%
%LPD*%
%AMOC8*
5,1,8,0,0,1.08239X$1,22.5*
%
%ADD10C,0.0000*%
%ADD11C,0.0600*%
%ADD12R,0.0700X0.0700*%
%ADD13OC8,0.0700*%
%ADD14C,0.0640*%
%ADD15OC8,0.0740*%
%ADD16C,0.0745*%
%ADD17OC8,0.0749*%
%ADD18R,0.0709X0.0434*%
%ADD19R,0.0600X0.0320*%
%ADD20R,0.0320X0.0600*%
%ADD21R,0.0631X0.0631*%
%ADD22OC8,0.0760*%
%ADD23OC8,0.0500*%
%ADD24OC8,0.3000*%
%ADD25OC8,0.3040*%
D10*
X005060Y005553D02*
X005060Y023270D01*
X026560Y023270D01*
X026560Y005553D01*
X005060Y005553D01*
D11*
X018780Y012053D02*
X019340Y012053D01*
X019340Y014053D02*
X018780Y014053D01*
D12*
X021060Y020553D03*
D13*
X022060Y020553D03*
X022060Y019553D03*
X022060Y018553D03*
X021060Y018553D03*
X021060Y019553D03*
X008060Y012553D03*
X008060Y011553D03*
D14*
X024610Y012053D02*
X025210Y012053D01*
X025210Y013053D02*
X024610Y013053D01*
X024610Y014053D02*
X025210Y014053D01*
D15*
X019560Y006553D03*
X018560Y006553D03*
X017560Y006553D03*
X016560Y006553D03*
X015560Y006553D03*
X014560Y006553D03*
X013560Y006553D03*
X012560Y006553D03*
X011560Y006553D03*
X010560Y006553D03*
X009560Y006553D03*
X008560Y006553D03*
X006560Y009553D03*
X006560Y010553D03*
X006560Y011553D03*
X006560Y012553D03*
X006560Y013553D03*
X006560Y014553D03*
X006560Y015553D03*
X006560Y016553D03*
X006560Y017553D03*
X008560Y022053D03*
X009560Y022053D03*
X010560Y022053D03*
X011560Y022053D03*
X012560Y022053D03*
X013560Y022053D03*
X014560Y022053D03*
X015560Y022053D03*
X016560Y022053D03*
D16*
X021575Y007906D02*
X021575Y007201D01*
X023544Y007201D02*
X023544Y007906D01*
D17*
X025060Y010803D03*
X026060Y010803D03*
X025060Y016553D03*
X024060Y016553D03*
X024060Y017553D03*
X025060Y017553D03*
X025060Y018553D03*
X025060Y019553D03*
X024060Y019553D03*
X024060Y018553D03*
X019060Y018053D03*
X018060Y018053D03*
X017060Y018053D03*
X017060Y016553D03*
X018060Y016553D03*
X019060Y016553D03*
X019060Y019553D03*
X018060Y019553D03*
X017060Y019553D03*
X008060Y013553D03*
X008060Y009553D03*
X015560Y007553D03*
X016560Y007553D03*
X017560Y007553D03*
D18*
X010800Y018305D03*
X010800Y019801D03*
X008319Y019801D03*
X008319Y018305D03*
D19*
X007810Y017253D03*
X007810Y016353D03*
X017060Y009503D03*
X017060Y008603D03*
X019310Y008603D03*
X019310Y009503D03*
D20*
X009510Y017053D03*
X008610Y017053D03*
D21*
X008720Y012562D03*
X008720Y011184D03*
D22*
X008060Y014553D03*
X013560Y019053D03*
X021185Y016053D03*
X023060Y016053D03*
X023060Y017053D03*
X023060Y018053D03*
X026060Y017553D03*
X026060Y018553D03*
X026060Y019553D03*
X026060Y016553D03*
X021185Y013053D03*
X025060Y009553D03*
X026060Y009553D03*
X026060Y008553D03*
X026060Y007553D03*
X026060Y006553D03*
X025060Y006553D03*
X025060Y007553D03*
X025060Y008553D03*
X013060Y008803D03*
D23*
X012710Y013123D03*
X012260Y013603D03*
X012240Y014673D03*
X010060Y015403D03*
D24*
X006560Y021763D03*
X006560Y007053D03*
X025050Y021763D03*
D25*
X025050Y021763D03*
X006560Y021763D03*
X006560Y007053D03*
M02*
