G75*
G70*
%OFA0B0*%
%FSLAX24Y24*%
%IPPOS*%
%LPD*%
%AMOC8*
5,1,8,0,0,1.08239X$1,22.5*
%
%ADD10C,0.0000*%
%ADD11C,0.0130*%
%ADD12C,0.0100*%
%ADD13C,0.0080*%
%ADD14C,0.0160*%
D10*
X005060Y005553D02*
X005060Y023270D01*
X026560Y023270D01*
X026560Y005553D01*
X005060Y005553D01*
D11*
X012625Y011548D02*
X013005Y011928D01*
X013005Y012023D01*
X012910Y012118D01*
X012720Y012118D01*
X012625Y012023D01*
X012625Y011548D02*
X013005Y011548D01*
X013269Y011643D02*
X013269Y011833D01*
X013554Y011833D01*
X013649Y011738D01*
X013649Y011643D01*
X013554Y011548D01*
X013364Y011548D01*
X013269Y011643D01*
X013269Y011833D02*
X013459Y012023D01*
X013649Y012118D01*
X013914Y011548D02*
X014294Y012118D01*
X014558Y012023D02*
X014653Y012118D01*
X014843Y012118D01*
X014938Y012023D01*
X014558Y011643D01*
X014653Y011548D01*
X014843Y011548D01*
X014938Y011643D01*
X014938Y012023D01*
X015203Y011928D02*
X015393Y012118D01*
X015393Y011548D01*
X015203Y011548D02*
X015583Y011548D01*
X015847Y011548D02*
X016227Y012118D01*
X016492Y011928D02*
X016682Y012118D01*
X016682Y011548D01*
X016492Y011548D02*
X016872Y011548D01*
X017136Y011643D02*
X017231Y011548D01*
X017421Y011548D01*
X017517Y011643D01*
X017517Y012023D01*
X017421Y012118D01*
X017231Y012118D01*
X017136Y012023D01*
X017136Y011928D01*
X017231Y011833D01*
X017517Y011833D01*
X014558Y011643D02*
X014558Y012023D01*
X014566Y020618D02*
X014376Y020618D01*
X014281Y020713D01*
X014281Y020809D01*
X014376Y020904D01*
X014566Y020904D01*
X014661Y020809D01*
X014661Y020713D01*
X014566Y020618D01*
X014566Y020904D02*
X014661Y020999D01*
X014661Y021094D01*
X014566Y021189D01*
X014376Y021189D01*
X014281Y021094D01*
X014281Y020999D01*
X014376Y020904D01*
X014017Y020999D02*
X014017Y021094D01*
X013921Y021189D01*
X013731Y021189D01*
X013636Y021094D01*
X013182Y021189D02*
X013182Y020618D01*
X012992Y020618D02*
X013372Y020618D01*
X013636Y020618D02*
X014017Y020999D01*
X014017Y020618D02*
X013636Y020618D01*
X013182Y021189D02*
X012992Y020999D01*
X012727Y021189D02*
X012727Y020618D01*
X012347Y020618D02*
X012347Y021189D01*
X012537Y020999D01*
X012727Y021189D01*
X012083Y021189D02*
X011703Y020618D01*
X011343Y020618D02*
X011343Y021189D01*
X011058Y020904D01*
X011438Y020904D01*
X010794Y020904D02*
X010414Y020904D01*
X010699Y021189D01*
X010699Y020618D01*
X010149Y020713D02*
X010054Y020618D01*
X009864Y020618D01*
X009769Y020713D01*
X009769Y020904D01*
X010054Y020904D01*
X010149Y020809D01*
X010149Y020713D01*
X009959Y021094D02*
X009769Y020904D01*
X009959Y021094D02*
X010149Y021189D01*
X009505Y021189D02*
X009505Y020618D01*
X009125Y020618D02*
X009125Y021189D01*
X009315Y020999D01*
X009505Y021189D01*
X014925Y020904D02*
X015306Y020904D01*
X015211Y021189D02*
X015211Y020618D01*
X014925Y020904D02*
X015211Y021189D01*
X016214Y020999D02*
X016404Y020618D01*
X016595Y020999D01*
X016859Y020999D02*
X017049Y021189D01*
X017049Y020618D01*
X016859Y020618D02*
X017239Y020618D01*
X017503Y020618D02*
X017503Y020713D01*
X017598Y020713D01*
X017598Y020618D01*
X017503Y020618D01*
X017826Y020618D02*
X018206Y020999D01*
X018206Y021094D01*
X018111Y021189D01*
X017921Y021189D01*
X017826Y021094D01*
X017826Y020618D02*
X018206Y020618D01*
X018470Y020713D02*
X018470Y020904D01*
X018565Y020999D01*
X018850Y020999D01*
X018850Y021189D02*
X018850Y020618D01*
X018565Y020618D01*
X018470Y020713D01*
D12*
X020060Y020303D02*
X020060Y022303D01*
X022560Y022303D01*
X022560Y016803D01*
X020060Y016803D01*
X020060Y018803D01*
X020560Y018803D01*
X020560Y020303D01*
X020060Y020303D01*
X020060Y018803D01*
X023453Y015727D02*
X023453Y015420D01*
X023529Y015343D01*
X023683Y015343D01*
X023760Y015420D01*
X023760Y015574D01*
X023606Y015574D01*
X023453Y015727D02*
X023529Y015804D01*
X023683Y015804D01*
X023760Y015727D01*
X023968Y015804D02*
X024275Y015343D01*
X024275Y015804D01*
X024484Y015804D02*
X024484Y015343D01*
X024714Y015343D01*
X024791Y015420D01*
X024791Y015727D01*
X024714Y015804D01*
X024484Y015804D01*
X023968Y015804D02*
X023968Y015343D01*
X025043Y015594D02*
X025350Y015594D01*
X025558Y015594D02*
X025558Y015824D01*
X025865Y015824D01*
X025788Y015670D02*
X025865Y015594D01*
X025865Y015440D01*
X025788Y015363D01*
X025635Y015363D01*
X025558Y015440D01*
X025558Y015594D02*
X025712Y015670D01*
X025788Y015670D01*
X026074Y015517D02*
X026227Y015363D01*
X026381Y015517D01*
X026381Y015824D01*
X026074Y015824D02*
X026074Y015517D01*
X025196Y015440D02*
X025196Y015747D01*
X024308Y010664D02*
X024308Y010357D01*
X024154Y010203D01*
X024001Y010357D01*
X024001Y010664D01*
X023792Y010587D02*
X023715Y010664D01*
X023562Y010664D01*
X023485Y010587D01*
X023485Y010510D01*
X023562Y010434D01*
X023792Y010434D01*
X023792Y010587D02*
X023792Y010280D01*
X023715Y010203D01*
X023562Y010203D01*
X023485Y010280D01*
X023276Y010434D02*
X022970Y010434D01*
X023123Y010587D02*
X023123Y010280D01*
X023296Y009764D02*
X023220Y009687D01*
X023220Y009380D01*
X023296Y009303D01*
X023450Y009303D01*
X023526Y009380D01*
X023526Y009534D01*
X023373Y009534D01*
X023526Y009687D02*
X023450Y009764D01*
X023296Y009764D01*
X023735Y009764D02*
X023735Y009303D01*
X024042Y009303D02*
X023735Y009764D01*
X024042Y009764D02*
X024042Y009303D01*
X024251Y009303D02*
X024481Y009303D01*
X024558Y009380D01*
X024558Y009687D01*
X024481Y009764D01*
X024251Y009764D01*
X024251Y009303D01*
X024510Y006403D02*
X024510Y005703D01*
X020560Y005703D01*
X020560Y006453D01*
X020140Y008272D02*
X019833Y008272D01*
X019986Y008272D02*
X019833Y008426D01*
X019833Y008503D01*
X019833Y008702D02*
X020140Y009009D01*
X020063Y009218D02*
X019756Y009525D01*
X020063Y009525D01*
X020140Y009448D01*
X020140Y009294D01*
X020063Y009218D01*
X019756Y009218D01*
X019679Y009294D01*
X019679Y009448D01*
X019756Y009525D01*
X019833Y009009D02*
X020140Y008702D01*
X018760Y008552D02*
X018453Y008859D01*
X018376Y009068D02*
X018299Y009144D01*
X018299Y009298D01*
X018376Y009375D01*
X018683Y009068D01*
X018760Y009144D01*
X018760Y009298D01*
X018683Y009375D01*
X018376Y009375D01*
X018376Y009068D02*
X018683Y009068D01*
X018760Y008859D02*
X018453Y008552D01*
X018453Y008362D02*
X018453Y008208D01*
X018376Y008285D02*
X018683Y008285D01*
X018760Y008362D01*
X017880Y008283D02*
X017573Y008283D01*
X017726Y008283D02*
X017573Y008437D01*
X017573Y008514D01*
X017573Y008713D02*
X017880Y009020D01*
X017880Y009229D02*
X017880Y009536D01*
X017880Y009382D02*
X017419Y009382D01*
X017573Y009229D01*
X017573Y009020D02*
X017880Y008713D01*
X016640Y008642D02*
X016333Y008949D01*
X016333Y009158D02*
X016179Y009311D01*
X016640Y009311D01*
X016640Y009158D02*
X016640Y009465D01*
X016640Y008949D02*
X016333Y008642D01*
X016333Y008452D02*
X016333Y008298D01*
X016256Y008375D02*
X016563Y008375D01*
X016640Y008452D01*
X015720Y008554D02*
X015413Y008247D01*
X015720Y008247D02*
X015413Y008554D01*
X015489Y008762D02*
X015643Y008762D01*
X015720Y008839D01*
X015720Y009069D01*
X015720Y009278D02*
X015259Y009278D01*
X015413Y009069D02*
X015413Y008839D01*
X015489Y008762D01*
X015566Y009278D02*
X015413Y009508D01*
X015413Y009708D02*
X015259Y009861D01*
X015720Y009861D01*
X015720Y009708D02*
X015720Y010015D01*
X015720Y009508D02*
X015566Y009278D01*
X011680Y008568D02*
X011680Y008415D01*
X011680Y008491D02*
X011219Y008491D01*
X011219Y008415D01*
X011373Y008206D02*
X011373Y007976D01*
X011449Y007899D01*
X011603Y007899D01*
X011680Y007976D01*
X011680Y008206D01*
X011603Y007690D02*
X011526Y007614D01*
X011526Y007460D01*
X011449Y007383D01*
X011373Y007460D01*
X011373Y007690D01*
X011603Y007690D02*
X011680Y007614D01*
X011680Y007383D01*
X010650Y007276D02*
X010650Y007507D01*
X010573Y007583D01*
X010496Y007507D01*
X010496Y007353D01*
X010419Y007276D01*
X010343Y007353D01*
X010343Y007583D01*
X010419Y007792D02*
X010343Y007869D01*
X010343Y008099D01*
X010189Y008099D02*
X010650Y008099D01*
X010650Y007869D01*
X010573Y007792D01*
X010419Y007792D01*
X010573Y008308D02*
X010496Y008384D01*
X010496Y008615D01*
X010419Y008615D02*
X010650Y008615D01*
X010650Y008384D01*
X010573Y008308D01*
X010343Y008384D02*
X010343Y008538D01*
X010419Y008615D01*
X009700Y009393D02*
X009700Y009700D01*
X009700Y009909D02*
X009239Y009909D01*
X009239Y010216D01*
X009239Y010425D02*
X009239Y010655D01*
X009316Y010732D01*
X009623Y010732D01*
X009700Y010655D01*
X009700Y010425D01*
X009239Y010425D01*
X009700Y010216D02*
X009700Y009909D01*
X009469Y009909D02*
X009469Y010062D01*
X009239Y009393D02*
X009700Y009393D01*
X009700Y010940D02*
X009239Y011247D01*
X009239Y011456D02*
X009239Y011686D01*
X009316Y011763D01*
X009469Y011763D01*
X009546Y011686D01*
X009546Y011456D01*
X009700Y011456D02*
X009239Y011456D01*
X009316Y011972D02*
X009623Y011972D01*
X009700Y012048D01*
X009700Y012202D01*
X009623Y012278D01*
X009469Y012487D02*
X009469Y012794D01*
X009239Y012717D02*
X009469Y012487D01*
X009316Y012278D02*
X009239Y012202D01*
X009239Y012048D01*
X009316Y011972D01*
X009239Y012717D02*
X009700Y012717D01*
X009243Y013194D02*
X009320Y013271D01*
X009320Y013424D01*
X009243Y013501D01*
X009166Y013501D01*
X009089Y013424D01*
X009089Y013271D01*
X009013Y013194D01*
X008936Y013194D01*
X008859Y013271D01*
X008859Y013424D01*
X008936Y013501D01*
X008859Y013710D02*
X009320Y013710D01*
X009166Y013863D01*
X009320Y014016D01*
X008859Y014016D01*
X009013Y014225D02*
X008859Y014379D01*
X009320Y014379D01*
X009320Y014532D02*
X009320Y014225D01*
X009320Y014741D02*
X008859Y015048D01*
X008859Y015256D02*
X008859Y015487D01*
X008936Y015563D01*
X009089Y015563D01*
X009166Y015487D01*
X009166Y015256D01*
X009320Y015256D02*
X008859Y015256D01*
X008936Y015772D02*
X009243Y015772D01*
X009320Y015849D01*
X009320Y016002D01*
X009243Y016079D01*
X009243Y016288D02*
X009320Y016364D01*
X009320Y016518D01*
X009243Y016595D01*
X009089Y016595D01*
X009013Y016518D01*
X009013Y016441D01*
X009089Y016288D01*
X008859Y016288D01*
X008859Y016595D01*
X008936Y016079D02*
X008859Y016002D01*
X008859Y015849D01*
X008936Y015772D01*
X005810Y013225D02*
X005733Y013302D01*
X005426Y013302D01*
X005349Y013225D01*
X005349Y012995D01*
X005810Y012995D01*
X005810Y013225D01*
X005810Y012786D02*
X005349Y012786D01*
X005349Y012479D02*
X005810Y012786D01*
X005810Y012479D02*
X005349Y012479D01*
X005426Y012270D02*
X005349Y012194D01*
X005349Y012040D01*
X005426Y011963D01*
X005733Y011963D01*
X005810Y012040D01*
X005810Y012194D01*
X005733Y012270D01*
X005579Y012270D01*
X005579Y012117D01*
X012443Y018457D02*
X012750Y018764D01*
X012673Y018972D02*
X012750Y019049D01*
X012750Y019279D01*
X012750Y019488D02*
X012289Y019488D01*
X012443Y019279D02*
X012443Y019049D01*
X012519Y018972D01*
X012673Y018972D01*
X012443Y018764D02*
X012750Y018457D01*
X012596Y019488D02*
X012443Y019718D01*
X012366Y019918D02*
X012289Y019994D01*
X012289Y020148D01*
X012366Y020225D01*
X012673Y019918D01*
X012750Y019994D01*
X012750Y020148D01*
X012673Y020225D01*
X012366Y020225D01*
X012366Y019918D02*
X012673Y019918D01*
X012750Y019718D02*
X012596Y019488D01*
X014359Y019304D02*
X014359Y018843D01*
X014666Y018843D02*
X014666Y019304D01*
X014512Y019150D01*
X014359Y019304D01*
X014874Y019227D02*
X014874Y018920D01*
X014951Y018843D01*
X015105Y018843D01*
X015181Y018920D01*
X015181Y019227D01*
X015105Y019304D01*
X014951Y019304D01*
X014874Y019227D01*
X015390Y019227D02*
X015390Y019150D01*
X015467Y019074D01*
X015620Y019074D01*
X015697Y018997D01*
X015697Y018920D01*
X015620Y018843D01*
X015467Y018843D01*
X015390Y018920D01*
X015390Y019227D02*
X015467Y019304D01*
X015620Y019304D01*
X015697Y019227D01*
X015906Y019304D02*
X016059Y019304D01*
X015982Y019304D02*
X015982Y018843D01*
X015906Y018843D02*
X016059Y018843D01*
X015964Y017804D02*
X015811Y017804D01*
X015734Y017727D01*
X015734Y017420D01*
X015811Y017343D01*
X015964Y017343D01*
X016041Y017420D01*
X016041Y017727D01*
X015964Y017804D01*
X015525Y017727D02*
X015448Y017804D01*
X015295Y017804D01*
X015218Y017727D01*
X015218Y017650D01*
X015295Y017574D01*
X015448Y017574D01*
X015525Y017497D01*
X015525Y017420D01*
X015448Y017343D01*
X015295Y017343D01*
X015218Y017420D01*
X015028Y017343D02*
X014874Y017343D01*
X014951Y017343D02*
X014951Y017804D01*
X014874Y017804D02*
X015028Y017804D01*
X014666Y017804D02*
X014666Y017343D01*
X014359Y017343D02*
X014359Y017804D01*
X014512Y017650D01*
X014666Y017804D01*
X014779Y016804D02*
X014703Y016727D01*
X014703Y016650D01*
X014779Y016574D01*
X014933Y016574D01*
X015010Y016497D01*
X015010Y016420D01*
X014933Y016343D01*
X014779Y016343D01*
X014703Y016420D01*
X014779Y016804D02*
X014933Y016804D01*
X015010Y016727D01*
X015218Y016727D02*
X015218Y016420D01*
X015295Y016343D01*
X015448Y016343D01*
X015525Y016420D01*
X015734Y016343D02*
X015734Y016804D01*
X015525Y016727D02*
X015448Y016804D01*
X015295Y016804D01*
X015218Y016727D01*
X015734Y016497D02*
X016041Y016804D01*
X015811Y016574D02*
X016041Y016343D01*
D13*
X005830Y014988D02*
X005669Y014828D01*
X005349Y014828D01*
X005349Y014632D02*
X005349Y014312D01*
X005589Y014312D01*
X005509Y014472D01*
X005509Y014552D01*
X005589Y014632D01*
X005749Y014632D01*
X005830Y014552D01*
X005830Y014392D01*
X005749Y014312D01*
X005589Y014117D02*
X005589Y013796D01*
X005429Y013957D02*
X005749Y013957D01*
X005830Y014988D02*
X005669Y015148D01*
X005349Y015148D01*
D14*
X019110Y021853D02*
X019112Y021884D01*
X019118Y021915D01*
X019128Y021945D01*
X019141Y021973D01*
X019158Y022000D01*
X019178Y022024D01*
X019201Y022046D01*
X019226Y022064D01*
X019254Y022079D01*
X019283Y022091D01*
X019313Y022099D01*
X019344Y022103D01*
X019376Y022103D01*
X019407Y022099D01*
X019437Y022091D01*
X019466Y022079D01*
X019494Y022064D01*
X019519Y022046D01*
X019542Y022024D01*
X019562Y022000D01*
X019579Y021973D01*
X019592Y021945D01*
X019602Y021915D01*
X019608Y021884D01*
X019610Y021853D01*
X019608Y021822D01*
X019602Y021791D01*
X019592Y021761D01*
X019579Y021733D01*
X019562Y021706D01*
X019542Y021682D01*
X019519Y021660D01*
X019494Y021642D01*
X019466Y021627D01*
X019437Y021615D01*
X019407Y021607D01*
X019376Y021603D01*
X019344Y021603D01*
X019313Y021607D01*
X019283Y021615D01*
X019254Y021627D01*
X019226Y021642D01*
X019201Y021660D01*
X019178Y021682D01*
X019158Y021706D01*
X019141Y021733D01*
X019128Y021761D01*
X019118Y021791D01*
X019112Y021822D01*
X019110Y021853D01*
X025660Y011603D02*
X025662Y011634D01*
X025668Y011665D01*
X025678Y011695D01*
X025691Y011723D01*
X025708Y011750D01*
X025728Y011774D01*
X025751Y011796D01*
X025776Y011814D01*
X025804Y011829D01*
X025833Y011841D01*
X025863Y011849D01*
X025894Y011853D01*
X025926Y011853D01*
X025957Y011849D01*
X025987Y011841D01*
X026016Y011829D01*
X026044Y011814D01*
X026069Y011796D01*
X026092Y011774D01*
X026112Y011750D01*
X026129Y011723D01*
X026142Y011695D01*
X026152Y011665D01*
X026158Y011634D01*
X026160Y011603D01*
X026158Y011572D01*
X026152Y011541D01*
X026142Y011511D01*
X026129Y011483D01*
X026112Y011456D01*
X026092Y011432D01*
X026069Y011410D01*
X026044Y011392D01*
X026016Y011377D01*
X025987Y011365D01*
X025957Y011357D01*
X025926Y011353D01*
X025894Y011353D01*
X025863Y011357D01*
X025833Y011365D01*
X025804Y011377D01*
X025776Y011392D01*
X025751Y011410D01*
X025728Y011432D01*
X025708Y011456D01*
X025691Y011483D01*
X025678Y011511D01*
X025668Y011541D01*
X025662Y011572D01*
X025660Y011603D01*
M02*
