G75*
G70*
%OFA0B0*%
%FSLAX24Y24*%
%IPPOS*%
%LPD*%
%AMOC8*
5,1,8,0,0,1.08239X$1,22.5*
%
%ADD10C,0.0000*%
%ADD11C,0.0160*%
%ADD12R,0.0591X0.0197*%
%ADD13R,0.0197X0.0591*%
%ADD14C,0.0560*%
%ADD15R,0.0560X0.0280*%
%ADD16R,0.0280X0.0560*%
%ADD17R,0.0660X0.0660*%
%ADD18OC8,0.0660*%
%ADD19C,0.0600*%
%ADD20R,0.0630X0.0472*%
%ADD21OC8,0.0700*%
%ADD22C,0.0705*%
%ADD23R,0.0701X0.0850*%
%ADD24R,0.1063X0.1004*%
%ADD25OC8,0.0709*%
%ADD26R,0.0866X0.0709*%
%ADD27R,0.0709X0.0866*%
%ADD28R,0.0591X0.0512*%
%ADD29C,0.0240*%
%ADD30C,0.0150*%
%ADD31C,0.0120*%
%ADD32OC8,0.0760*%
%ADD33C,0.0500*%
%ADD34C,0.0320*%
%ADD35C,0.0400*%
%ADD36C,0.0100*%
%ADD37OC8,0.0500*%
%ADD38OC8,0.3000*%
D10*
X005060Y005553D02*
X005060Y023270D01*
X026560Y023270D01*
X026560Y005553D01*
X005060Y005553D01*
D11*
X008560Y006553D02*
X008560Y007053D01*
X009060Y008053D01*
X009060Y009053D01*
X011970Y011393D01*
X011985Y011770D01*
X011485Y012053D02*
X012235Y012603D01*
X013235Y012603D01*
X013242Y012603D01*
X013230Y014053D01*
X013510Y014003D01*
X013510Y014053D01*
X013510Y015628D01*
X013560Y015978D02*
X013560Y016337D01*
X013560Y017553D01*
X013010Y017523D02*
X013245Y017038D01*
X013245Y016337D01*
X012930Y016337D02*
X012920Y016923D01*
X012560Y017553D01*
X011560Y020053D01*
X011560Y022053D01*
X012560Y022053D02*
X012560Y021053D01*
X014200Y019343D01*
X014200Y017463D01*
X013870Y016993D01*
X013874Y016337D01*
X014189Y016337D02*
X014180Y016953D01*
X014520Y017393D01*
X014520Y019413D01*
X013550Y021123D01*
X013560Y022053D01*
X014560Y022053D02*
X014560Y020553D01*
X014840Y019773D01*
X014840Y019783D01*
X014830Y017313D01*
X014490Y016893D01*
X014504Y016337D01*
X014819Y016337D02*
X014820Y016853D01*
X015180Y017323D01*
X015560Y020053D01*
X015560Y022053D01*
X016560Y022053D02*
X016560Y020053D01*
X015560Y017303D01*
X015144Y016788D01*
X015134Y016337D01*
X015472Y016338D02*
X015474Y016364D01*
X015480Y016389D01*
X015489Y016413D01*
X015503Y016435D01*
X015519Y016454D01*
X015538Y016472D01*
X015560Y016486D01*
X015583Y016496D01*
X015608Y016503D01*
X015634Y016506D01*
X015659Y016505D01*
X015685Y016500D01*
X015709Y016491D01*
X015731Y016479D01*
X015752Y016463D01*
X015770Y016445D01*
X015784Y016424D01*
X015796Y016401D01*
X015804Y016376D01*
X015808Y016351D01*
X015808Y016325D01*
X015804Y016300D01*
X015796Y016275D01*
X015784Y016252D01*
X015770Y016231D01*
X015752Y016213D01*
X015731Y016197D01*
X015709Y016185D01*
X015685Y016176D01*
X015659Y016171D01*
X015634Y016170D01*
X015608Y016173D01*
X015583Y016180D01*
X015560Y016190D01*
X015538Y016204D01*
X015519Y016222D01*
X015503Y016241D01*
X015489Y016263D01*
X015480Y016287D01*
X015474Y016312D01*
X015472Y016338D01*
X016165Y015678D02*
X016330Y017703D01*
X017060Y019553D01*
X018060Y019553D01*
X019060Y019553D01*
X020435Y021303D01*
X021310Y021303D01*
X021560Y021053D01*
X021560Y020053D01*
X022060Y019553D01*
X022060Y018553D02*
X021185Y016053D01*
X020060Y015603D02*
X020058Y015603D01*
X020028Y015399D01*
X017685Y015398D01*
X016745Y014363D01*
X016060Y014353D01*
X015843Y014368D01*
X015843Y013738D02*
X016135Y013728D01*
X017085Y013733D01*
X017735Y014038D01*
X019060Y014053D01*
X017965Y013128D02*
X017735Y013138D01*
X017855Y013168D02*
X017965Y013128D01*
X018230Y012063D02*
X019060Y012053D01*
X019310Y011978D01*
X020390Y011978D01*
X019670Y010413D02*
X022247Y012991D01*
X022310Y013053D01*
X022328Y013053D01*
X022436Y013161D01*
X019670Y010413D02*
X019670Y008043D01*
X019160Y007503D02*
X019160Y009003D01*
X017560Y012053D01*
X016560Y013053D01*
X015843Y013109D01*
X015843Y013423D02*
X016135Y013428D01*
X016680Y013413D01*
X018230Y012063D01*
X016560Y010803D02*
X016560Y010503D01*
X016560Y010803D02*
X015810Y011553D01*
X015810Y011803D01*
X013810Y013803D01*
X013810Y014053D01*
X012710Y013123D02*
X011850Y013123D01*
X011276Y013109D01*
X011276Y013423D02*
X011800Y013423D01*
X012260Y013603D01*
X011276Y013738D02*
X011261Y013753D01*
X010910Y013753D01*
X010360Y013203D01*
X010160Y013183D01*
X010150Y013213D01*
X008960Y013313D01*
X008660Y012753D02*
X008060Y013353D01*
X008060Y013553D01*
X008660Y012753D02*
X009360Y012753D01*
X009480Y012873D01*
X009550Y012873D01*
X010580Y012873D01*
X011276Y012794D01*
X011276Y012479D02*
X010610Y012593D01*
X009730Y012593D01*
X009109Y010538D01*
X009094Y010553D01*
X008780Y010553D01*
X009109Y010538D02*
X009030Y010273D01*
X009030Y010023D01*
X008980Y009973D01*
X008560Y009553D01*
X008060Y009553D01*
X007880Y010553D02*
X008060Y011553D01*
X010160Y012283D02*
X010235Y012228D01*
X010235Y012053D01*
X011485Y012053D01*
X012300Y011770D02*
X012290Y011183D01*
X010060Y009053D01*
X010060Y008053D01*
X009560Y006553D01*
X010560Y006553D02*
X010560Y007553D01*
X012560Y011053D01*
X012615Y011770D01*
X012930Y011770D02*
X012900Y011053D01*
X011560Y007053D01*
X011560Y006553D01*
X012560Y006553D02*
X012560Y007553D01*
X013060Y008053D01*
X013545Y008046D01*
X013661Y008120D01*
X013671Y008143D01*
X014060Y009553D01*
X014060Y010863D01*
X013880Y011253D01*
X013874Y011770D01*
X013560Y011770D02*
X013560Y011028D01*
X013775Y010813D01*
X013770Y010803D01*
X013770Y009828D01*
X013747Y009766D01*
X013610Y009628D01*
X013260Y009578D01*
X013260Y010478D02*
X013260Y010978D01*
X013245Y011770D01*
X013235Y011780D01*
X013245Y012133D01*
X014189Y011770D02*
X014200Y011273D01*
X014330Y011053D01*
X014330Y009323D01*
X013930Y007633D01*
X013570Y007263D01*
X013560Y006553D01*
X014560Y006553D02*
X014600Y009143D01*
X014600Y011133D01*
X014510Y011353D01*
X014504Y011770D01*
X014819Y011770D02*
X014820Y011363D01*
X014980Y010793D01*
X015560Y007553D01*
X015560Y006553D01*
X016560Y006553D02*
X016560Y007553D01*
X016560Y008219D01*
X016644Y008303D01*
X016935Y008303D01*
X017060Y008428D01*
X017060Y009303D01*
X017010Y009353D01*
X016560Y009603D01*
X016060Y009053D02*
X016310Y008803D01*
X016475Y008803D01*
X016560Y008888D01*
X016060Y009053D02*
X015810Y009553D01*
X015130Y011383D01*
X015134Y011770D01*
X015843Y012479D02*
X016260Y012353D01*
X017560Y009553D01*
X017560Y007553D01*
X017560Y006553D01*
X017560Y007553D01*
X018290Y007573D02*
X018560Y007303D01*
X018560Y006553D01*
X019560Y006553D02*
X019160Y007503D01*
X018770Y008043D02*
X018304Y008043D01*
X018290Y008029D01*
X018290Y007573D01*
X018290Y008698D02*
X018310Y008718D01*
X018310Y009503D01*
X016450Y012753D01*
X015843Y012794D01*
X016635Y014678D02*
X017500Y015683D01*
X019150Y015683D01*
X019810Y016553D01*
X020060Y016503D01*
X021060Y018553D01*
X021060Y019553D02*
X019310Y017303D01*
X018310Y017303D01*
X018060Y016553D01*
X019060Y016553D01*
X018060Y016553D02*
X017060Y016553D01*
X016970Y015663D01*
X016520Y015003D01*
X016085Y015003D01*
X015885Y014978D02*
X015843Y014998D01*
X015843Y015313D02*
X016238Y015306D01*
X016464Y015544D01*
X016570Y017153D01*
X017060Y018053D01*
X018060Y018053D01*
X019060Y018053D01*
X021060Y020553D01*
X022060Y020553D02*
X023060Y019053D01*
X023060Y018053D01*
X013560Y018453D02*
X013210Y018453D01*
X013010Y017873D01*
X013010Y017523D01*
X012620Y016863D02*
X010560Y020553D01*
X010560Y022053D01*
X009560Y022053D02*
X009560Y020553D01*
X012300Y016803D01*
X012300Y016337D01*
X012615Y016337D02*
X012620Y016863D01*
X011980Y016653D02*
X011985Y016337D01*
X011980Y016653D02*
X008560Y020553D01*
X008560Y022053D01*
X010060Y017553D02*
X006560Y017553D01*
X006560Y016553D02*
X007560Y016553D01*
X010110Y016553D01*
X010910Y015653D01*
X011276Y015628D01*
X011276Y015313D02*
X010810Y015303D01*
X010260Y015903D01*
X009810Y015903D01*
X009420Y015563D01*
X006560Y015553D01*
X006060Y015053D02*
X007560Y015053D01*
X007800Y015193D01*
X008350Y015193D01*
X008580Y015033D01*
X009280Y015023D01*
X009610Y014828D01*
X009685Y014828D01*
X010010Y014503D01*
X010010Y014303D01*
X010260Y014053D01*
X010510Y014053D01*
X011276Y014053D01*
X011276Y014368D02*
X010945Y014368D01*
X010610Y014603D01*
X010560Y014778D01*
X010510Y014828D01*
X010060Y015403D01*
X009269Y014394D02*
X009610Y014053D01*
X009269Y014394D02*
X008960Y014494D01*
X011276Y014683D02*
X012240Y014673D01*
X011880Y015086D02*
X011880Y015673D01*
X010060Y017553D01*
X011276Y014998D02*
X011777Y014986D01*
X011880Y015086D01*
D12*
X011276Y014998D03*
X011276Y014683D03*
X011276Y014368D03*
X011276Y014053D03*
X011276Y013738D03*
X011276Y013423D03*
X011276Y013109D03*
X011276Y012794D03*
X011276Y012479D03*
X011276Y015313D03*
X011276Y015628D03*
X015843Y015628D03*
X015843Y015313D03*
X015843Y014998D03*
X015843Y014683D03*
X015843Y014368D03*
X015843Y014053D03*
X015843Y013738D03*
X015843Y013423D03*
X015843Y013109D03*
X015843Y012794D03*
X015843Y012479D03*
D13*
X015134Y011770D03*
X014819Y011770D03*
X014504Y011770D03*
X014189Y011770D03*
X013874Y011770D03*
X013560Y011770D03*
X013245Y011770D03*
X012930Y011770D03*
X012615Y011770D03*
X012300Y011770D03*
X011985Y011770D03*
X011985Y016337D03*
X012300Y016337D03*
X012615Y016337D03*
X012930Y016337D03*
X013245Y016337D03*
X013560Y016337D03*
X013874Y016337D03*
X014189Y016337D03*
X014504Y016337D03*
X014819Y016337D03*
X015134Y016337D03*
D14*
X018780Y014053D02*
X019340Y014053D01*
X019340Y012053D02*
X018780Y012053D01*
X023544Y007553D02*
X025060Y008053D01*
D15*
X025490Y012153D03*
X026060Y012153D03*
X026060Y013053D03*
X025490Y013053D03*
X021100Y014103D03*
X020430Y014103D03*
X020430Y015003D03*
X021100Y015003D03*
X020060Y015603D03*
X020060Y016503D03*
X017735Y014038D03*
X017735Y013138D03*
X016560Y010503D03*
X016560Y009603D03*
X013260Y009578D03*
X013260Y010478D03*
X010160Y012283D03*
X010160Y013183D03*
X013560Y017553D03*
X013560Y018453D03*
X020390Y012878D03*
X020390Y011978D03*
D16*
X019670Y008043D03*
X018770Y008043D03*
X010510Y014053D03*
X010510Y014828D03*
X009610Y014828D03*
X009610Y014053D03*
X008780Y010553D03*
X007880Y010553D03*
D17*
X021060Y020553D03*
D18*
X022060Y020553D03*
X022060Y019553D03*
X022060Y018553D03*
X021060Y018553D03*
X021060Y019553D03*
X008060Y012553D03*
X008060Y011553D03*
D19*
X024610Y012053D02*
X025210Y012053D01*
X025210Y013053D02*
X024610Y013053D01*
X024610Y014053D02*
X025210Y014053D01*
D20*
X008960Y014494D03*
X008960Y013313D03*
D21*
X006560Y013553D03*
X006560Y014553D03*
X006560Y015553D03*
X006560Y016553D03*
X006560Y017553D03*
X008560Y022053D03*
X009560Y022053D03*
X010560Y022053D03*
X011560Y022053D03*
X012560Y022053D03*
X013560Y022053D03*
X014560Y022053D03*
X015560Y022053D03*
X016560Y022053D03*
X006560Y012553D03*
X006560Y011553D03*
X006560Y010553D03*
X006560Y009553D03*
X008560Y006553D03*
X009560Y006553D03*
X010560Y006553D03*
X011560Y006553D03*
X012560Y006553D03*
X013560Y006553D03*
X014560Y006553D03*
X015560Y006553D03*
X016560Y006553D03*
X017560Y006553D03*
X018560Y006553D03*
X019560Y006553D03*
D22*
X021575Y007201D02*
X021575Y007906D01*
X023544Y007906D02*
X023544Y007201D01*
D23*
X023363Y006553D03*
X021760Y006553D03*
D24*
X022250Y013323D03*
X022250Y015823D03*
D25*
X024060Y016553D03*
X025060Y016553D03*
X025060Y017553D03*
X025060Y018553D03*
X025060Y019553D03*
X024060Y019553D03*
X024060Y018553D03*
X024060Y017553D03*
X019060Y018053D03*
X018060Y018053D03*
X017060Y018053D03*
X017060Y016553D03*
X018060Y016553D03*
X019060Y016553D03*
X019060Y019553D03*
X018060Y019553D03*
X017060Y019553D03*
X025060Y010803D03*
X026060Y010803D03*
X017560Y007553D03*
X016560Y007553D03*
X015560Y007553D03*
X008060Y009553D03*
X008060Y013553D03*
D26*
X020760Y009057D03*
X020760Y007049D03*
X023610Y009949D03*
X023610Y011957D03*
D27*
X023613Y009103D03*
X021606Y009103D03*
D28*
X018290Y008698D03*
X018290Y008029D03*
X016560Y008219D03*
X016560Y008888D03*
D29*
X013245Y012133D02*
X013242Y012603D01*
X013230Y014053D02*
X011625Y014053D01*
X013510Y014053D02*
X013810Y014053D01*
X015843Y014053D01*
X016860Y014063D01*
X018010Y014928D01*
X019441Y014930D01*
X020025Y014450D01*
X020041Y014450D01*
X020041Y014103D01*
X020041Y014053D01*
X020041Y013553D01*
X019810Y013303D01*
X020390Y012878D01*
X019810Y013303D02*
X019360Y012878D01*
X018435Y012878D01*
X017965Y013128D01*
X013510Y015628D02*
X013560Y015978D01*
X008960Y014494D02*
X008060Y014553D01*
X006560Y014553D01*
X006060Y015053D02*
X005560Y014553D01*
X005560Y013053D01*
X006560Y012553D01*
X008060Y012553D01*
D30*
X011276Y014053D02*
X011625Y014053D01*
X015843Y014683D02*
X015860Y014678D01*
X016635Y014678D01*
X016085Y015003D02*
X015960Y015003D01*
X015843Y014998D01*
X015850Y015618D02*
X015843Y015628D01*
X015850Y015618D02*
X016165Y015678D01*
X013635Y019078D02*
X013560Y019053D01*
X013747Y009766D02*
X013760Y009753D01*
D31*
X014810Y012553D02*
X012310Y012553D01*
X012060Y012803D01*
X012060Y012863D01*
X012361Y012863D01*
X012531Y012693D01*
X012888Y012693D01*
X013139Y012945D01*
X013139Y013301D01*
X012888Y013553D01*
X012689Y013553D01*
X012689Y013781D01*
X012438Y014033D01*
X012081Y014033D01*
X012060Y014011D01*
X012060Y014245D01*
X012061Y014243D01*
X012418Y014243D01*
X012669Y014495D01*
X012669Y014851D01*
X012418Y015103D01*
X012310Y015103D01*
X012310Y015603D01*
X014810Y015603D01*
X015060Y015303D01*
X015060Y012803D01*
X014810Y012553D01*
X014922Y012666D02*
X012197Y012666D01*
X012078Y012785D02*
X012440Y012785D01*
X012979Y012785D02*
X015041Y012785D01*
X015060Y012903D02*
X013097Y012903D01*
X013139Y013022D02*
X015060Y013022D01*
X015060Y013140D02*
X013139Y013140D01*
X013139Y013259D02*
X015060Y013259D01*
X015060Y013377D02*
X013064Y013377D01*
X012945Y013496D02*
X015060Y013496D01*
X015060Y013614D02*
X012689Y013614D01*
X012689Y013733D02*
X015060Y013733D01*
X015060Y013851D02*
X012620Y013851D01*
X012501Y013970D02*
X015060Y013970D01*
X015060Y014089D02*
X012060Y014089D01*
X012060Y014207D02*
X015060Y014207D01*
X015060Y014326D02*
X012500Y014326D01*
X012618Y014444D02*
X015060Y014444D01*
X015060Y014563D02*
X012669Y014563D01*
X012669Y014681D02*
X015060Y014681D01*
X015060Y014800D02*
X012669Y014800D01*
X012603Y014918D02*
X015060Y014918D01*
X015060Y015037D02*
X012484Y015037D01*
X012310Y015155D02*
X015060Y015155D01*
X015060Y015274D02*
X012310Y015274D01*
X012310Y015392D02*
X014985Y015392D01*
X014886Y015511D02*
X012310Y015511D01*
D32*
X013560Y019053D03*
X008060Y014553D03*
X013060Y008803D03*
X021185Y013053D03*
X021185Y016053D03*
X023060Y016053D03*
X023060Y017053D03*
X023060Y018053D03*
X026060Y017553D03*
X026060Y018553D03*
X026060Y019553D03*
X026060Y016553D03*
X026060Y009553D03*
X026060Y008553D03*
X026060Y007553D03*
X026060Y006553D03*
X025060Y006553D03*
X025060Y007553D03*
X025060Y008553D03*
X025060Y009553D03*
D33*
X026060Y009553D01*
X026060Y008553D01*
X026060Y007553D01*
X026060Y006553D01*
X025060Y006553D01*
X025060Y007553D01*
X025060Y008053D01*
X025060Y008553D01*
X025060Y009553D01*
X025060Y010803D02*
X026060Y010803D01*
X025060Y010803D02*
X025060Y010956D01*
X024027Y011988D01*
X024910Y012053D01*
X024560Y011953D01*
X024027Y011988D02*
X023610Y011957D01*
X023560Y013053D02*
X022560Y013053D01*
X022436Y013161D01*
X022250Y013323D01*
X022360Y013473D01*
X022060Y013553D01*
X022560Y012653D02*
X022560Y008553D01*
X023544Y007553D01*
X023363Y006553D01*
X021760Y006553D02*
X021575Y007553D01*
X020760Y007049D01*
X020760Y009057D02*
X021606Y009103D01*
X023613Y009103D02*
X023610Y009949D01*
X022560Y012653D02*
X023560Y013053D01*
X024910Y013053D01*
X024910Y014053D02*
X026060Y015453D01*
X026060Y016553D01*
X026060Y017553D01*
X026060Y018553D01*
X026060Y019553D01*
X023060Y018053D02*
X023060Y017053D01*
X023060Y016053D01*
X023060Y015553D01*
X023060Y015203D01*
X023040Y015233D01*
X024910Y014053D01*
D34*
X024910Y013053D02*
X025490Y013053D01*
X026060Y013053D01*
X026060Y012153D02*
X025490Y012153D01*
X024910Y012053D01*
X024780Y012063D01*
X024672Y012041D02*
X024910Y012053D01*
X022247Y012991D02*
X021950Y013043D01*
X021185Y013053D01*
X021100Y014103D02*
X020430Y014103D01*
X020041Y014103D01*
X020041Y014053D01*
X020430Y015003D02*
X021100Y015003D01*
X020430Y015003D02*
X020028Y015399D01*
X013560Y018453D02*
X013560Y019053D01*
X013260Y009578D02*
X013060Y008803D01*
D35*
X021100Y014103D02*
X022060Y013553D01*
X021100Y015003D02*
X022250Y015823D01*
X023060Y015553D01*
X025060Y016553D02*
X025060Y017553D01*
X026060Y017553D01*
X026060Y018553D02*
X025060Y018553D01*
X025060Y017553D01*
X025060Y018553D02*
X025060Y019553D01*
X026060Y019553D01*
X026060Y016553D02*
X025060Y016553D01*
D36*
X024604Y016098D02*
X024317Y016098D01*
X024268Y016049D02*
X024461Y016241D01*
X024793Y015909D01*
X025326Y015909D01*
X025481Y016063D01*
X025520Y016063D01*
X025520Y015647D01*
X024795Y014764D01*
X023599Y015519D01*
X023599Y015646D01*
X023729Y015776D01*
X023729Y016170D01*
X023851Y016049D01*
X024021Y016049D01*
X024021Y016515D01*
X024098Y016515D01*
X024098Y016049D01*
X024268Y016049D01*
X024098Y016098D02*
X024021Y016098D01*
X024021Y016196D02*
X024098Y016196D01*
X024098Y016295D02*
X024021Y016295D01*
X024021Y016393D02*
X024098Y016393D01*
X024098Y016492D02*
X024021Y016492D01*
X024021Y016592D02*
X024021Y017058D01*
X024021Y017515D01*
X024098Y017515D01*
X024098Y017058D01*
X024098Y016592D01*
X024021Y016592D01*
X024021Y016689D02*
X024098Y016689D01*
X024098Y016787D02*
X024021Y016787D01*
X024021Y016886D02*
X024098Y016886D01*
X024098Y016984D02*
X024021Y016984D01*
X024021Y017083D02*
X024098Y017083D01*
X024098Y017181D02*
X024021Y017181D01*
X024021Y017280D02*
X024098Y017280D01*
X024098Y017379D02*
X024021Y017379D01*
X024021Y017477D02*
X024098Y017477D01*
X024098Y017592D02*
X024021Y017592D01*
X024021Y018049D01*
X024021Y018515D01*
X023555Y018515D01*
X023555Y018505D01*
X023429Y018631D01*
X023429Y019017D01*
X023437Y019053D01*
X023429Y019090D01*
X023429Y019127D01*
X023415Y019161D01*
X023408Y019197D01*
X023387Y019229D01*
X023373Y019263D01*
X023347Y019289D01*
X022677Y020294D01*
X022679Y020297D01*
X022679Y020810D01*
X022316Y021173D01*
X021910Y021173D01*
X021873Y021263D01*
X021769Y021367D01*
X021519Y021617D01*
X021383Y021673D01*
X021236Y021673D01*
X020485Y021673D01*
X020464Y021679D01*
X020412Y021673D01*
X020361Y021673D01*
X020340Y021665D01*
X020317Y021662D01*
X020273Y021637D01*
X020225Y021617D01*
X020209Y021601D01*
X020189Y021590D01*
X020157Y021549D01*
X020121Y021513D01*
X020112Y021492D01*
X019095Y020198D01*
X018793Y020198D01*
X018559Y019965D01*
X018326Y020198D01*
X017793Y020198D01*
X017559Y019965D01*
X017326Y020198D01*
X016929Y020198D01*
X016929Y021518D01*
X017199Y021788D01*
X017199Y022318D01*
X016825Y022693D01*
X016294Y022693D01*
X016060Y022458D01*
X015825Y022693D01*
X015294Y022693D01*
X015060Y022458D01*
X014825Y022693D01*
X014294Y022693D01*
X014060Y022458D01*
X013825Y022693D01*
X013294Y022693D01*
X013060Y022458D01*
X012825Y022693D01*
X012294Y022693D01*
X012060Y022458D01*
X011825Y022693D01*
X011294Y022693D01*
X011060Y022458D01*
X010825Y022693D01*
X010294Y022693D01*
X010060Y022458D01*
X009825Y022693D01*
X009294Y022693D01*
X009060Y022458D01*
X008825Y022693D01*
X008294Y022693D01*
X008228Y022627D01*
X007874Y022980D01*
X023735Y022980D01*
X023260Y022505D01*
X023260Y021022D01*
X024224Y020058D01*
X024098Y020058D01*
X024098Y019592D01*
X024021Y019592D01*
X024021Y020058D01*
X023851Y020058D01*
X023555Y019762D01*
X023555Y019592D01*
X024021Y019592D01*
X024021Y019515D01*
X023555Y019515D01*
X023555Y019344D01*
X023846Y019053D01*
X023555Y018762D01*
X023555Y018592D01*
X024021Y018592D01*
X024021Y019058D01*
X024021Y019515D01*
X024098Y019515D01*
X024098Y019049D01*
X024098Y018592D01*
X024021Y018592D01*
X024021Y018515D01*
X024098Y018515D01*
X024098Y018058D01*
X024098Y017592D01*
X024098Y017674D02*
X024021Y017674D01*
X024021Y017773D02*
X024098Y017773D01*
X024098Y017871D02*
X024021Y017871D01*
X024021Y017970D02*
X024098Y017970D01*
X024098Y018068D02*
X024021Y018068D01*
X024021Y018167D02*
X024098Y018167D01*
X024098Y018265D02*
X024021Y018265D01*
X024021Y018364D02*
X024098Y018364D01*
X024098Y018463D02*
X024021Y018463D01*
X024021Y018561D02*
X023499Y018561D01*
X023555Y018660D02*
X023429Y018660D01*
X023429Y018758D02*
X023555Y018758D01*
X023650Y018857D02*
X023429Y018857D01*
X023429Y018955D02*
X023748Y018955D01*
X023846Y019054D02*
X023437Y019054D01*
X023419Y019152D02*
X023747Y019152D01*
X023649Y019251D02*
X023378Y019251D01*
X023307Y019349D02*
X023555Y019349D01*
X023555Y019448D02*
X023241Y019448D01*
X023175Y019547D02*
X024021Y019547D01*
X024021Y019645D02*
X024098Y019645D01*
X024098Y019744D02*
X024021Y019744D01*
X024021Y019842D02*
X024098Y019842D01*
X024098Y019941D02*
X024021Y019941D01*
X024021Y020039D02*
X024098Y020039D01*
X024144Y020138D02*
X022781Y020138D01*
X022716Y020236D02*
X024045Y020236D01*
X023947Y020335D02*
X022679Y020335D01*
X022679Y020433D02*
X023848Y020433D01*
X023749Y020532D02*
X022679Y020532D01*
X022679Y020631D02*
X023651Y020631D01*
X023552Y020729D02*
X022679Y020729D01*
X022662Y020828D02*
X023454Y020828D01*
X023355Y020926D02*
X022564Y020926D01*
X022465Y021025D02*
X023260Y021025D01*
X023260Y021123D02*
X022366Y021123D01*
X021890Y021222D02*
X023260Y021222D01*
X023260Y021320D02*
X021816Y021320D01*
X021717Y021419D02*
X023260Y021419D01*
X023260Y021517D02*
X021619Y021517D01*
X021520Y021616D02*
X023260Y021616D01*
X023260Y021714D02*
X017126Y021714D01*
X017199Y021813D02*
X023260Y021813D01*
X023260Y021912D02*
X017199Y021912D01*
X017199Y022010D02*
X023260Y022010D01*
X023260Y022109D02*
X017199Y022109D01*
X017199Y022207D02*
X023260Y022207D01*
X023260Y022306D02*
X017199Y022306D01*
X017114Y022404D02*
X023260Y022404D01*
X023260Y022503D02*
X017015Y022503D01*
X016917Y022601D02*
X023356Y022601D01*
X023455Y022700D02*
X008154Y022700D01*
X008056Y022798D02*
X023553Y022798D01*
X023652Y022897D02*
X007957Y022897D01*
X008917Y022601D02*
X009202Y022601D01*
X009104Y022503D02*
X009015Y022503D01*
X009917Y022601D02*
X010202Y022601D01*
X010104Y022503D02*
X010015Y022503D01*
X010917Y022601D02*
X011202Y022601D01*
X011104Y022503D02*
X011015Y022503D01*
X011917Y022601D02*
X012202Y022601D01*
X012104Y022503D02*
X012015Y022503D01*
X012917Y022601D02*
X013202Y022601D01*
X013104Y022503D02*
X013015Y022503D01*
X013917Y022601D02*
X014202Y022601D01*
X014104Y022503D02*
X014015Y022503D01*
X014917Y022601D02*
X015202Y022601D01*
X015104Y022503D02*
X015015Y022503D01*
X015917Y022601D02*
X016202Y022601D01*
X016104Y022503D02*
X016015Y022503D01*
X017027Y021616D02*
X020224Y021616D01*
X020125Y021517D02*
X016929Y021517D01*
X016929Y021419D02*
X020055Y021419D01*
X019977Y021320D02*
X016929Y021320D01*
X016929Y021222D02*
X019900Y021222D01*
X019822Y021123D02*
X016929Y021123D01*
X016929Y021025D02*
X019745Y021025D01*
X019668Y020926D02*
X016929Y020926D01*
X016929Y020828D02*
X019590Y020828D01*
X019513Y020729D02*
X016929Y020729D01*
X016929Y020631D02*
X019435Y020631D01*
X019358Y020532D02*
X016929Y020532D01*
X016929Y020433D02*
X019280Y020433D01*
X019203Y020335D02*
X016929Y020335D01*
X016929Y020236D02*
X019126Y020236D01*
X018733Y020138D02*
X018386Y020138D01*
X018485Y020039D02*
X018634Y020039D01*
X017733Y020138D02*
X017386Y020138D01*
X017485Y020039D02*
X017634Y020039D01*
X021169Y017933D02*
X020601Y016770D01*
X020629Y016701D01*
X020629Y016306D01*
X020599Y016233D01*
X020599Y015874D01*
X020629Y015801D01*
X020629Y015453D01*
X020887Y015453D01*
X021428Y015839D01*
X021428Y016383D01*
X021472Y016490D01*
X021554Y016571D01*
X021660Y016615D01*
X022520Y016615D01*
X022520Y016646D01*
X022390Y016776D01*
X022390Y017331D01*
X022520Y017461D01*
X022520Y017646D01*
X022390Y017776D01*
X022390Y018205D01*
X022258Y018073D01*
X022100Y018073D01*
X022100Y018513D01*
X022100Y018593D01*
X022539Y018593D01*
X022539Y018752D01*
X022337Y018954D01*
X022543Y019161D01*
X022690Y018941D01*
X022690Y018631D01*
X022539Y018481D01*
X022539Y018513D01*
X022100Y018513D01*
X022019Y018513D01*
X022019Y018073D01*
X021861Y018073D01*
X021659Y018276D01*
X021316Y017933D01*
X021169Y017933D01*
X021138Y017871D02*
X022390Y017871D01*
X022393Y017773D02*
X021090Y017773D01*
X021042Y017674D02*
X022491Y017674D01*
X022520Y017576D02*
X020994Y017576D01*
X020946Y017477D02*
X022520Y017477D01*
X022437Y017379D02*
X020898Y017379D01*
X020850Y017280D02*
X022390Y017280D01*
X022390Y017181D02*
X020802Y017181D01*
X020754Y017083D02*
X022390Y017083D01*
X022390Y016984D02*
X020706Y016984D01*
X020658Y016886D02*
X022390Y016886D01*
X022390Y016787D02*
X020610Y016787D01*
X020629Y016689D02*
X022477Y016689D01*
X021600Y016590D02*
X020629Y016590D01*
X020629Y016492D02*
X021474Y016492D01*
X021432Y016393D02*
X020629Y016393D01*
X020625Y016295D02*
X021428Y016295D01*
X021428Y016196D02*
X020599Y016196D01*
X020599Y016098D02*
X021428Y016098D01*
X021428Y015999D02*
X020599Y015999D01*
X020599Y015900D02*
X021428Y015900D01*
X021375Y015802D02*
X020629Y015802D01*
X020629Y015703D02*
X021237Y015703D01*
X021099Y015605D02*
X020629Y015605D01*
X020629Y015506D02*
X020961Y015506D01*
X021669Y014808D02*
X021983Y015031D01*
X022529Y015031D01*
X022531Y015023D01*
X022535Y015017D01*
X022537Y015009D01*
X022582Y014945D01*
X022602Y014897D01*
X022640Y014859D01*
X022670Y014814D01*
X022715Y014784D01*
X022754Y014746D01*
X022803Y014725D01*
X022848Y014695D01*
X022896Y014685D01*
X024020Y013976D01*
X024020Y013936D01*
X024109Y013719D01*
X024275Y013553D01*
X024458Y013478D01*
X024355Y013435D01*
X024228Y013308D01*
X024160Y013143D01*
X024160Y013103D01*
X024859Y013103D01*
X024859Y013003D01*
X024160Y013003D01*
X024160Y012964D01*
X024228Y012798D01*
X024355Y012672D01*
X024458Y012629D01*
X024275Y012554D01*
X024269Y012547D01*
X024220Y012544D01*
X024207Y012557D01*
X024100Y012602D01*
X023119Y012602D01*
X023012Y012557D01*
X022931Y012476D01*
X022886Y012369D01*
X022886Y011545D01*
X022931Y011439D01*
X023012Y011357D01*
X023119Y011313D01*
X023939Y011313D01*
X024415Y010837D01*
X024415Y010536D01*
X024793Y010159D01*
X025326Y010159D01*
X025431Y010263D01*
X025688Y010263D01*
X025793Y010159D01*
X026270Y010159D01*
X026270Y005843D01*
X023010Y005843D01*
X023055Y005889D01*
X023092Y005978D01*
X023313Y005978D01*
X023313Y006503D01*
X023413Y006503D01*
X023413Y006603D01*
X023863Y006603D01*
X023863Y006809D01*
X023970Y006916D01*
X024046Y007101D01*
X024046Y007503D01*
X023594Y007503D01*
X023594Y007603D01*
X024046Y007603D01*
X024046Y008006D01*
X023970Y008191D01*
X023828Y008332D01*
X023711Y008380D01*
X024025Y008380D01*
X024132Y008424D01*
X024214Y008506D01*
X024258Y008613D01*
X024258Y009400D01*
X024288Y009431D01*
X024333Y009537D01*
X024333Y010361D01*
X024288Y010468D01*
X024207Y010550D01*
X024100Y010594D01*
X023119Y010594D01*
X023012Y010550D01*
X022931Y010468D01*
X022886Y010361D01*
X022886Y009537D01*
X022931Y009431D01*
X022969Y009392D01*
X022969Y008613D01*
X023013Y008506D01*
X023095Y008424D01*
X023201Y008380D01*
X023376Y008380D01*
X023259Y008332D01*
X023118Y008191D01*
X023041Y008006D01*
X023041Y007603D01*
X023494Y007603D01*
X023494Y007503D01*
X023041Y007503D01*
X023041Y007129D01*
X022950Y007129D01*
X022901Y007079D01*
X022867Y007093D01*
X022377Y007093D01*
X022357Y007143D01*
X022275Y007224D01*
X022218Y007248D01*
X022218Y008034D01*
X022120Y008270D01*
X022009Y008380D01*
X022018Y008380D01*
X022124Y008424D01*
X022206Y008506D01*
X022250Y008613D01*
X022250Y009594D01*
X022206Y009701D01*
X022124Y009782D01*
X022018Y009826D01*
X021194Y009826D01*
X021087Y009782D01*
X021006Y009702D01*
X020269Y009702D01*
X020162Y009657D01*
X020081Y009576D01*
X020036Y009469D01*
X020036Y008645D01*
X020081Y008539D01*
X020108Y008512D01*
X020064Y008468D01*
X020020Y008361D01*
X020020Y007746D01*
X020064Y007639D01*
X020108Y007595D01*
X020081Y007568D01*
X020036Y007461D01*
X020036Y006981D01*
X019825Y007193D01*
X019691Y007193D01*
X019529Y007578D01*
X019529Y007613D01*
X019649Y007613D01*
X019649Y008023D01*
X019690Y008023D01*
X019690Y008063D01*
X019959Y008063D01*
X019959Y008386D01*
X019872Y008473D01*
X019690Y008473D01*
X019690Y008064D01*
X019649Y008064D01*
X019649Y008473D01*
X019529Y008473D01*
X019529Y008947D01*
X019535Y008963D01*
X019529Y009020D01*
X019529Y009077D01*
X019523Y009093D01*
X019521Y009110D01*
X019495Y009161D01*
X019473Y009213D01*
X019461Y009225D01*
X018166Y011694D01*
X018167Y011694D01*
X018182Y011689D01*
X018240Y011693D01*
X018335Y011692D01*
X018457Y011570D01*
X018666Y011483D01*
X019453Y011483D01*
X019662Y011570D01*
X019701Y011608D01*
X019929Y011608D01*
X019945Y011593D01*
X020052Y011548D01*
X020727Y011548D01*
X020834Y011593D01*
X020915Y011674D01*
X020959Y011781D01*
X020959Y012176D01*
X020929Y012249D01*
X020929Y012601D01*
X020885Y012708D01*
X020819Y012773D01*
X020819Y012858D01*
X020410Y012858D01*
X020410Y012898D01*
X020819Y012898D01*
X020819Y013081D01*
X020732Y013168D01*
X020410Y013168D01*
X020410Y012899D01*
X020369Y012899D01*
X020369Y013168D01*
X020047Y013168D01*
X019960Y013081D01*
X019960Y012898D01*
X020369Y012898D01*
X020369Y012858D01*
X019960Y012858D01*
X019960Y012774D01*
X019894Y012708D01*
X019850Y012601D01*
X019850Y012348D01*
X019834Y012348D01*
X019823Y012376D01*
X019662Y012537D01*
X019453Y012623D01*
X018666Y012623D01*
X018457Y012537D01*
X018360Y012440D01*
X017891Y012848D01*
X018077Y012848D01*
X018164Y012936D01*
X018164Y013058D01*
X018245Y013139D01*
X018289Y013246D01*
X018289Y013675D01*
X018351Y013675D01*
X018457Y013570D01*
X018666Y013483D01*
X019453Y013483D01*
X019662Y013570D01*
X019823Y013730D01*
X019909Y013940D01*
X019909Y014167D01*
X019823Y014376D01*
X019662Y014537D01*
X019453Y014623D01*
X018666Y014623D01*
X018457Y014537D01*
X018335Y014415D01*
X018189Y014414D01*
X018179Y014424D01*
X018072Y014468D01*
X017397Y014468D01*
X017305Y014430D01*
X017848Y015028D01*
X019762Y015029D01*
X019860Y014933D01*
X019860Y014806D01*
X019890Y014733D01*
X019890Y014276D01*
X019934Y014169D01*
X020015Y014088D01*
X020026Y014083D01*
X020000Y014083D01*
X020000Y013901D01*
X020087Y013813D01*
X020409Y013813D01*
X020409Y014043D01*
X020450Y014043D01*
X020450Y013813D01*
X020757Y013813D01*
X021079Y013813D01*
X021079Y014023D01*
X021120Y014023D01*
X021120Y013813D01*
X021442Y013813D01*
X021529Y013901D01*
X021529Y014083D01*
X021520Y014083D01*
X021585Y014149D01*
X021629Y014256D01*
X021629Y014709D01*
X021669Y014806D01*
X021669Y014808D01*
X021681Y014816D02*
X022668Y014816D01*
X022594Y014915D02*
X021820Y014915D01*
X021958Y015014D02*
X022536Y015014D01*
X022814Y014718D02*
X021633Y014718D01*
X021629Y014619D02*
X023001Y014619D01*
X023157Y014521D02*
X021629Y014521D01*
X021629Y014422D02*
X023313Y014422D01*
X023469Y014324D02*
X021629Y014324D01*
X021617Y014225D02*
X023625Y014225D01*
X023781Y014127D02*
X021563Y014127D01*
X021529Y014028D02*
X023938Y014028D01*
X024022Y013930D02*
X022889Y013930D01*
X022931Y013887D02*
X022843Y013975D01*
X022299Y013975D01*
X022299Y013374D01*
X022200Y013374D01*
X022200Y013975D01*
X021656Y013975D01*
X021568Y013887D01*
X021568Y013373D01*
X022199Y013373D01*
X022199Y013273D01*
X021568Y013273D01*
X021568Y012759D01*
X021656Y012671D01*
X022200Y012671D01*
X022200Y013273D01*
X022299Y013273D01*
X022299Y012671D01*
X022843Y012671D01*
X022931Y012759D01*
X022931Y013273D01*
X022300Y013273D01*
X022300Y013373D01*
X022931Y013373D01*
X022931Y013887D01*
X022931Y013831D02*
X024063Y013831D01*
X024104Y013732D02*
X022931Y013732D01*
X022931Y013634D02*
X024195Y013634D01*
X024318Y013535D02*
X022931Y013535D01*
X022931Y013437D02*
X024359Y013437D01*
X024258Y013338D02*
X022300Y013338D01*
X022299Y013240D02*
X022200Y013240D01*
X022199Y013338D02*
X018289Y013338D01*
X018287Y013240D02*
X021568Y013240D01*
X021568Y013141D02*
X020759Y013141D01*
X020819Y013043D02*
X021568Y013043D01*
X021568Y012944D02*
X020819Y012944D01*
X020819Y012846D02*
X021568Y012846D01*
X021580Y012747D02*
X020846Y012747D01*
X020910Y012649D02*
X024411Y012649D01*
X024279Y012747D02*
X022919Y012747D01*
X022931Y012846D02*
X024209Y012846D01*
X024168Y012944D02*
X022931Y012944D01*
X022931Y013043D02*
X024859Y013043D01*
X024960Y013043D02*
X025469Y013043D01*
X025469Y013033D02*
X025060Y013033D01*
X025060Y013003D01*
X024960Y013003D01*
X024960Y013103D01*
X025060Y013103D01*
X025060Y013073D01*
X025469Y013073D01*
X025469Y013033D01*
X025556Y013343D02*
X025464Y013435D01*
X025361Y013478D01*
X025544Y013553D01*
X025710Y013719D01*
X025799Y013936D01*
X025799Y014171D01*
X025768Y014247D01*
X026270Y014858D01*
X026270Y013343D01*
X026080Y013343D01*
X026080Y013143D01*
X026039Y013143D01*
X026039Y013343D01*
X025832Y013343D01*
X025774Y013343D01*
X025717Y013343D01*
X025556Y013343D01*
X025460Y013437D02*
X026270Y013437D01*
X026270Y013535D02*
X025501Y013535D01*
X025624Y013634D02*
X026270Y013634D01*
X026270Y013732D02*
X025715Y013732D01*
X025756Y013831D02*
X026270Y013831D01*
X026270Y013930D02*
X025797Y013930D01*
X025799Y014028D02*
X026270Y014028D01*
X026270Y014127D02*
X025799Y014127D01*
X025777Y014225D02*
X026270Y014225D01*
X026270Y014324D02*
X025830Y014324D01*
X025911Y014422D02*
X026270Y014422D01*
X026270Y014521D02*
X025992Y014521D01*
X026073Y014619D02*
X026270Y014619D01*
X026270Y014718D02*
X026154Y014718D01*
X026235Y014816D02*
X026270Y014816D01*
X025485Y015605D02*
X023599Y015605D01*
X023619Y015506D02*
X025404Y015506D01*
X025323Y015408D02*
X023775Y015408D01*
X023931Y015309D02*
X025242Y015309D01*
X025161Y015211D02*
X024087Y015211D01*
X024244Y015112D02*
X025080Y015112D01*
X024999Y015014D02*
X024400Y015014D01*
X024556Y014915D02*
X024919Y014915D01*
X024838Y014816D02*
X024712Y014816D01*
X025520Y015703D02*
X023657Y015703D01*
X023729Y015802D02*
X025520Y015802D01*
X025520Y015900D02*
X023729Y015900D01*
X023729Y015999D02*
X024703Y015999D01*
X024506Y016196D02*
X024415Y016196D01*
X023802Y016098D02*
X023729Y016098D01*
X025416Y015999D02*
X025520Y015999D01*
X026039Y013338D02*
X026080Y013338D01*
X026080Y013240D02*
X026039Y013240D01*
X024200Y013240D02*
X022931Y013240D01*
X022931Y013141D02*
X024160Y013141D01*
X024214Y012550D02*
X024272Y012550D01*
X023005Y012550D02*
X020929Y012550D01*
X020929Y012451D02*
X022920Y012451D01*
X022886Y012353D02*
X020929Y012353D01*
X020929Y012254D02*
X022886Y012254D01*
X022886Y012156D02*
X020959Y012156D01*
X020959Y012057D02*
X022886Y012057D01*
X022886Y011959D02*
X020959Y011959D01*
X020959Y011860D02*
X022886Y011860D01*
X022886Y011762D02*
X020952Y011762D01*
X020904Y011663D02*
X022886Y011663D01*
X022886Y011565D02*
X020766Y011565D01*
X020013Y011565D02*
X019649Y011565D01*
X019832Y012353D02*
X019850Y012353D01*
X019850Y012451D02*
X019748Y012451D01*
X019850Y012550D02*
X019630Y012550D01*
X019869Y012649D02*
X018121Y012649D01*
X018008Y012747D02*
X019933Y012747D01*
X019960Y012846D02*
X017895Y012846D01*
X018164Y012944D02*
X019960Y012944D01*
X019960Y013043D02*
X018164Y013043D01*
X018246Y013141D02*
X020020Y013141D01*
X020369Y013141D02*
X020410Y013141D01*
X020410Y013043D02*
X020369Y013043D01*
X020369Y012944D02*
X020410Y012944D01*
X019824Y013732D02*
X021568Y013732D01*
X021568Y013634D02*
X019726Y013634D01*
X019578Y013535D02*
X021568Y013535D01*
X021568Y013437D02*
X018289Y013437D01*
X018289Y013535D02*
X018541Y013535D01*
X018393Y013634D02*
X018289Y013634D01*
X018342Y014422D02*
X018181Y014422D01*
X018441Y014521D02*
X017387Y014521D01*
X017477Y014619D02*
X018657Y014619D01*
X019463Y014619D02*
X019890Y014619D01*
X019890Y014521D02*
X019678Y014521D01*
X019777Y014422D02*
X019890Y014422D01*
X019890Y014324D02*
X019844Y014324D01*
X019885Y014225D02*
X019910Y014225D01*
X019909Y014127D02*
X019976Y014127D01*
X020000Y014028D02*
X019909Y014028D01*
X019905Y013930D02*
X020000Y013930D01*
X020070Y013831D02*
X019864Y013831D01*
X020409Y013831D02*
X020450Y013831D01*
X020450Y013930D02*
X020409Y013930D01*
X020409Y014028D02*
X020450Y014028D01*
X021079Y013930D02*
X021120Y013930D01*
X021120Y013831D02*
X021079Y013831D01*
X021459Y013831D02*
X021568Y013831D01*
X021529Y013930D02*
X021610Y013930D01*
X022200Y013930D02*
X022299Y013930D01*
X022299Y013831D02*
X022200Y013831D01*
X022200Y013732D02*
X022299Y013732D01*
X022299Y013634D02*
X022200Y013634D01*
X022200Y013535D02*
X022299Y013535D01*
X022299Y013437D02*
X022200Y013437D01*
X022200Y013141D02*
X022299Y013141D01*
X022299Y013043D02*
X022200Y013043D01*
X022200Y012944D02*
X022299Y012944D01*
X022299Y012846D02*
X022200Y012846D01*
X022200Y012747D02*
X022299Y012747D01*
X022919Y011466D02*
X018285Y011466D01*
X018234Y011565D02*
X018470Y011565D01*
X018364Y011663D02*
X018182Y011663D01*
X018337Y011367D02*
X023002Y011367D01*
X023083Y010579D02*
X018751Y010579D01*
X018802Y010481D02*
X022943Y010481D01*
X022895Y010382D02*
X018854Y010382D01*
X018906Y010283D02*
X022886Y010283D01*
X022886Y010185D02*
X018957Y010185D01*
X019009Y010086D02*
X022886Y010086D01*
X022886Y009988D02*
X019061Y009988D01*
X019113Y009889D02*
X022886Y009889D01*
X022886Y009791D02*
X022104Y009791D01*
X022209Y009692D02*
X022886Y009692D01*
X022886Y009594D02*
X022250Y009594D01*
X022250Y009495D02*
X022904Y009495D01*
X022965Y009397D02*
X022250Y009397D01*
X022250Y009298D02*
X022969Y009298D01*
X022969Y009199D02*
X022250Y009199D01*
X022250Y009101D02*
X022969Y009101D01*
X022969Y009002D02*
X022250Y009002D01*
X022250Y008904D02*
X022969Y008904D01*
X022969Y008805D02*
X022250Y008805D01*
X022250Y008707D02*
X022969Y008707D01*
X022971Y008608D02*
X022248Y008608D01*
X022207Y008510D02*
X023012Y008510D01*
X023127Y008411D02*
X022092Y008411D01*
X022077Y008313D02*
X023240Y008313D01*
X023141Y008214D02*
X022143Y008214D01*
X022184Y008116D02*
X023087Y008116D01*
X023046Y008017D02*
X022218Y008017D01*
X022218Y007918D02*
X023041Y007918D01*
X023041Y007820D02*
X022218Y007820D01*
X022218Y007721D02*
X023041Y007721D01*
X023041Y007623D02*
X022218Y007623D01*
X022218Y007524D02*
X023494Y007524D01*
X023594Y007524D02*
X026270Y007524D01*
X026270Y007426D02*
X024046Y007426D01*
X024046Y007327D02*
X026270Y007327D01*
X026270Y007229D02*
X024046Y007229D01*
X024046Y007130D02*
X026270Y007130D01*
X026270Y007032D02*
X024018Y007032D01*
X023977Y006933D02*
X026270Y006933D01*
X026270Y006834D02*
X023888Y006834D01*
X023863Y006736D02*
X026270Y006736D01*
X026270Y006637D02*
X023863Y006637D01*
X023863Y006503D02*
X023413Y006503D01*
X023413Y005978D01*
X023775Y005978D01*
X023863Y006066D01*
X023863Y006503D01*
X023863Y006440D02*
X026270Y006440D01*
X026270Y006342D02*
X023863Y006342D01*
X023863Y006243D02*
X026270Y006243D01*
X026270Y006145D02*
X023863Y006145D01*
X023843Y006046D02*
X026270Y006046D01*
X026270Y005948D02*
X023080Y005948D01*
X023015Y005849D02*
X026270Y005849D01*
X026270Y006539D02*
X023413Y006539D01*
X023413Y006440D02*
X023313Y006440D01*
X023313Y006342D02*
X023413Y006342D01*
X023413Y006243D02*
X023313Y006243D01*
X023313Y006145D02*
X023413Y006145D01*
X023413Y006046D02*
X023313Y006046D01*
X023041Y007130D02*
X022362Y007130D01*
X022265Y007229D02*
X023041Y007229D01*
X023041Y007327D02*
X022218Y007327D01*
X022218Y007426D02*
X023041Y007426D01*
X024001Y008116D02*
X026270Y008116D01*
X026270Y008214D02*
X023946Y008214D01*
X023848Y008313D02*
X026270Y008313D01*
X026270Y008411D02*
X024100Y008411D01*
X024215Y008510D02*
X026270Y008510D01*
X026270Y008608D02*
X024256Y008608D01*
X024258Y008707D02*
X026270Y008707D01*
X026270Y008805D02*
X024258Y008805D01*
X024258Y008904D02*
X026270Y008904D01*
X026270Y009002D02*
X024258Y009002D01*
X024258Y009101D02*
X026270Y009101D01*
X026270Y009199D02*
X024258Y009199D01*
X024258Y009298D02*
X026270Y009298D01*
X026270Y009397D02*
X024258Y009397D01*
X024315Y009495D02*
X026270Y009495D01*
X026270Y009594D02*
X024333Y009594D01*
X024333Y009692D02*
X026270Y009692D01*
X026270Y009791D02*
X024333Y009791D01*
X024333Y009889D02*
X026270Y009889D01*
X026270Y009988D02*
X024333Y009988D01*
X024333Y010086D02*
X026270Y010086D01*
X025767Y010185D02*
X025352Y010185D01*
X024767Y010185D02*
X024333Y010185D01*
X024333Y010283D02*
X024668Y010283D01*
X024570Y010382D02*
X024324Y010382D01*
X024276Y010481D02*
X024471Y010481D01*
X024415Y010579D02*
X024136Y010579D01*
X024415Y010678D02*
X018699Y010678D01*
X018647Y010776D02*
X024415Y010776D01*
X024377Y010875D02*
X018596Y010875D01*
X018544Y010973D02*
X024279Y010973D01*
X024180Y011072D02*
X018492Y011072D01*
X018441Y011170D02*
X024082Y011170D01*
X023983Y011269D02*
X018389Y011269D01*
X018347Y012451D02*
X018371Y012451D01*
X018489Y012550D02*
X018234Y012550D01*
X015994Y012047D02*
X016580Y010786D01*
X016580Y010573D01*
X016539Y010573D01*
X016539Y010793D01*
X016217Y010793D01*
X016130Y010706D01*
X016130Y010523D01*
X016149Y010523D01*
X016074Y010448D01*
X016030Y010341D01*
X016030Y010023D01*
X015517Y011403D01*
X015523Y011417D01*
X015523Y012090D01*
X015850Y012090D01*
X015994Y012047D01*
X015959Y012057D02*
X015523Y012057D01*
X015523Y011959D02*
X016035Y011959D01*
X016081Y011860D02*
X015523Y011860D01*
X015523Y011762D02*
X016126Y011762D01*
X016172Y011663D02*
X015523Y011663D01*
X015523Y011565D02*
X016218Y011565D01*
X016264Y011466D02*
X015523Y011466D01*
X015530Y011367D02*
X016309Y011367D01*
X016355Y011269D02*
X015567Y011269D01*
X015603Y011170D02*
X016401Y011170D01*
X016447Y011072D02*
X015640Y011072D01*
X015677Y010973D02*
X016492Y010973D01*
X016538Y010875D02*
X015713Y010875D01*
X015750Y010776D02*
X016200Y010776D01*
X016130Y010678D02*
X015786Y010678D01*
X015823Y010579D02*
X016130Y010579D01*
X016107Y010481D02*
X015860Y010481D01*
X015896Y010382D02*
X016046Y010382D01*
X016030Y010283D02*
X015933Y010283D01*
X015970Y010185D02*
X016030Y010185D01*
X016030Y010086D02*
X016006Y010086D01*
X016539Y010579D02*
X016580Y010579D01*
X016580Y010678D02*
X016539Y010678D01*
X016539Y010776D02*
X016580Y010776D01*
X015258Y012355D02*
X014978Y012355D01*
X014977Y012355D01*
X014975Y012355D01*
X014663Y012355D01*
X014662Y012355D01*
X014661Y012355D01*
X014348Y012355D01*
X014347Y012355D01*
X014346Y012355D01*
X014033Y012355D01*
X014032Y012355D01*
X014031Y012355D01*
X013718Y012355D01*
X013717Y012355D01*
X013716Y012355D01*
X013403Y012355D01*
X013297Y012311D01*
X013245Y012259D01*
X013192Y012311D01*
X013086Y012355D01*
X012773Y012355D01*
X012772Y012355D01*
X012771Y012355D01*
X012459Y012355D01*
X012457Y012355D01*
X012456Y012355D01*
X012144Y012355D01*
X012142Y012355D01*
X012141Y012355D01*
X011861Y012355D01*
X011861Y012635D01*
X011861Y012636D01*
X011861Y012637D01*
X011861Y012753D01*
X012316Y012753D01*
X012486Y012583D01*
X012933Y012583D01*
X013249Y012900D01*
X013249Y013347D01*
X012933Y013663D01*
X012799Y013663D01*
X012799Y013827D01*
X012483Y014143D01*
X012473Y014143D01*
X012779Y014450D01*
X012779Y014897D01*
X012463Y015213D01*
X012249Y015213D01*
X012249Y015671D01*
X012251Y015741D01*
X012249Y015744D01*
X012249Y015747D01*
X012248Y015752D01*
X012456Y015752D01*
X012457Y015752D01*
X012459Y015752D01*
X012771Y015752D01*
X012772Y015752D01*
X012773Y015752D01*
X013086Y015752D01*
X013087Y015752D01*
X013088Y015752D01*
X013401Y015752D01*
X013507Y015796D01*
X013560Y015848D01*
X013612Y015796D01*
X013718Y015752D01*
X014031Y015752D01*
X014032Y015752D01*
X014033Y015752D01*
X014346Y015752D01*
X014347Y015752D01*
X014348Y015752D01*
X014661Y015752D01*
X014662Y015752D01*
X014663Y015752D01*
X014975Y015752D01*
X014977Y015752D01*
X014978Y015752D01*
X015258Y015752D01*
X015258Y015472D01*
X015258Y015471D01*
X015258Y015469D01*
X015258Y015157D01*
X015258Y015156D01*
X015258Y015154D01*
X015258Y014842D01*
X015258Y014841D01*
X015258Y014839D01*
X015258Y014527D01*
X015258Y014526D01*
X015258Y014524D01*
X015258Y014212D01*
X015302Y014106D01*
X015354Y014053D01*
X015302Y014001D01*
X015258Y013895D01*
X015258Y013582D01*
X015258Y013581D01*
X015258Y013580D01*
X015258Y013267D01*
X015258Y013266D01*
X015258Y013265D01*
X015258Y012952D01*
X015258Y012951D01*
X015258Y012950D01*
X015258Y012637D01*
X015258Y012636D01*
X015258Y012635D01*
X015258Y012355D01*
X015258Y012451D02*
X011861Y012451D01*
X011861Y012550D02*
X015258Y012550D01*
X015258Y012649D02*
X012998Y012649D01*
X013097Y012747D02*
X015258Y012747D01*
X015258Y012846D02*
X013195Y012846D01*
X013249Y012944D02*
X015258Y012944D01*
X015258Y013043D02*
X013249Y013043D01*
X013249Y013141D02*
X015258Y013141D01*
X015258Y013240D02*
X013249Y013240D01*
X013249Y013338D02*
X015258Y013338D01*
X015258Y013437D02*
X013160Y013437D01*
X013061Y013535D02*
X015258Y013535D01*
X015258Y013634D02*
X012963Y013634D01*
X012799Y013732D02*
X015258Y013732D01*
X015258Y013831D02*
X012795Y013831D01*
X012697Y013930D02*
X015272Y013930D01*
X015329Y014028D02*
X012598Y014028D01*
X012500Y014127D02*
X015293Y014127D01*
X015258Y014225D02*
X012555Y014225D01*
X012653Y014324D02*
X015258Y014324D01*
X015258Y014422D02*
X012752Y014422D01*
X012779Y014521D02*
X015258Y014521D01*
X015258Y014619D02*
X012779Y014619D01*
X012779Y014718D02*
X015258Y014718D01*
X015258Y014816D02*
X012779Y014816D01*
X012761Y014915D02*
X015258Y014915D01*
X015258Y015014D02*
X012663Y015014D01*
X012564Y015112D02*
X015258Y015112D01*
X015258Y015211D02*
X012466Y015211D01*
X012249Y015309D02*
X015258Y015309D01*
X015258Y015408D02*
X012249Y015408D01*
X012249Y015506D02*
X015258Y015506D01*
X015258Y015605D02*
X012249Y015605D01*
X012250Y015703D02*
X015258Y015703D01*
X013606Y015802D02*
X013513Y015802D01*
X011596Y016498D02*
X010374Y017760D01*
X010373Y017763D01*
X010323Y017813D01*
X010274Y017864D01*
X010271Y017865D01*
X010269Y017867D01*
X010203Y017894D01*
X010139Y017922D01*
X010136Y017922D01*
X010133Y017923D01*
X010062Y017923D01*
X009992Y017924D01*
X009989Y017923D01*
X007095Y017923D01*
X006825Y018193D01*
X006294Y018193D01*
X005920Y017818D01*
X005920Y017288D01*
X006154Y017053D01*
X005920Y016818D01*
X005920Y016288D01*
X006154Y016053D01*
X005920Y015818D01*
X005920Y015288D01*
X006154Y015053D01*
X005920Y014818D01*
X005920Y014288D01*
X006154Y014053D01*
X005920Y013818D01*
X005920Y013288D01*
X006253Y012954D01*
X006060Y012760D01*
X006060Y012603D01*
X006509Y012603D01*
X006509Y012503D01*
X006060Y012503D01*
X006060Y012346D01*
X006253Y012152D01*
X005920Y011818D01*
X005920Y011288D01*
X006154Y011053D01*
X005920Y010818D01*
X005920Y010288D01*
X006154Y010053D01*
X005920Y009818D01*
X005920Y009288D01*
X006294Y008913D01*
X006825Y008913D01*
X007199Y009288D01*
X007199Y009818D01*
X006965Y010053D01*
X007199Y010288D01*
X007199Y010818D01*
X006965Y011053D01*
X007199Y011288D01*
X007199Y011818D01*
X006866Y012152D01*
X007059Y012346D01*
X007059Y012503D01*
X006610Y012503D01*
X006610Y012603D01*
X007059Y012603D01*
X007059Y012760D01*
X006866Y012954D01*
X007199Y013288D01*
X007199Y013818D01*
X006965Y014053D01*
X007055Y014143D01*
X007522Y014143D01*
X007630Y014035D01*
X007415Y013820D01*
X007415Y013286D01*
X007765Y012937D01*
X007580Y012752D01*
X007580Y012583D01*
X008029Y012583D01*
X008029Y012523D01*
X007580Y012523D01*
X007580Y012355D01*
X007782Y012152D01*
X007440Y011810D01*
X007440Y011297D01*
X007607Y011129D01*
X007600Y011089D01*
X007575Y011079D01*
X007494Y010998D01*
X007450Y010891D01*
X007450Y010216D01*
X007494Y010109D01*
X007575Y010028D01*
X007609Y010014D01*
X007415Y009820D01*
X007415Y009286D01*
X007793Y008909D01*
X008326Y008909D01*
X008601Y009183D01*
X008633Y009183D01*
X008729Y009223D01*
X008725Y009214D01*
X008700Y009166D01*
X008697Y009146D01*
X008690Y009127D01*
X008690Y009073D01*
X008684Y009020D01*
X008690Y009000D01*
X008690Y008141D01*
X008349Y007461D01*
X008349Y007795D01*
X007301Y008843D01*
X005818Y008843D01*
X005349Y008375D01*
X005349Y020442D01*
X005818Y019973D01*
X007301Y019973D01*
X008190Y020862D01*
X008190Y020566D01*
X008186Y020504D01*
X008190Y020492D01*
X008190Y020480D01*
X008213Y020423D01*
X008233Y020365D01*
X008241Y020355D01*
X008246Y020344D01*
X008289Y020300D01*
X011596Y016529D01*
X011596Y016498D01*
X011543Y016590D02*
X011507Y016590D01*
X011456Y016689D02*
X011411Y016689D01*
X011370Y016787D02*
X011316Y016787D01*
X011284Y016886D02*
X011221Y016886D01*
X011197Y016984D02*
X011125Y016984D01*
X011111Y017083D02*
X011030Y017083D01*
X011024Y017181D02*
X010934Y017181D01*
X010938Y017280D02*
X010839Y017280D01*
X010851Y017379D02*
X010744Y017379D01*
X010765Y017477D02*
X010648Y017477D01*
X010679Y017576D02*
X010553Y017576D01*
X010592Y017674D02*
X010457Y017674D01*
X010506Y017773D02*
X010363Y017773D01*
X010419Y017871D02*
X010259Y017871D01*
X010333Y017970D02*
X007048Y017970D01*
X006950Y018068D02*
X010247Y018068D01*
X010160Y018167D02*
X006851Y018167D01*
X006268Y018167D02*
X005349Y018167D01*
X005349Y018265D02*
X010074Y018265D01*
X009987Y018364D02*
X005349Y018364D01*
X005349Y018463D02*
X009901Y018463D01*
X009814Y018561D02*
X005349Y018561D01*
X005349Y018660D02*
X009728Y018660D01*
X009642Y018758D02*
X005349Y018758D01*
X005349Y018857D02*
X009555Y018857D01*
X009469Y018955D02*
X005349Y018955D01*
X005349Y019054D02*
X009382Y019054D01*
X009296Y019152D02*
X005349Y019152D01*
X005349Y019251D02*
X009210Y019251D01*
X009123Y019349D02*
X005349Y019349D01*
X005349Y019448D02*
X009037Y019448D01*
X008950Y019547D02*
X005349Y019547D01*
X005349Y019645D02*
X008864Y019645D01*
X008778Y019744D02*
X005349Y019744D01*
X005349Y019842D02*
X008691Y019842D01*
X008605Y019941D02*
X005349Y019941D01*
X005349Y020039D02*
X005752Y020039D01*
X005654Y020138D02*
X005349Y020138D01*
X005349Y020236D02*
X005555Y020236D01*
X005457Y020335D02*
X005349Y020335D01*
X005349Y020433D02*
X005358Y020433D01*
X007367Y020039D02*
X008518Y020039D01*
X008432Y020138D02*
X007465Y020138D01*
X007564Y020236D02*
X008345Y020236D01*
X008255Y020335D02*
X007662Y020335D01*
X007761Y020433D02*
X008209Y020433D01*
X008187Y020532D02*
X007859Y020532D01*
X007958Y020631D02*
X008190Y020631D01*
X008190Y020729D02*
X008057Y020729D01*
X008155Y020828D02*
X008190Y020828D01*
X006169Y018068D02*
X005349Y018068D01*
X005349Y017970D02*
X006071Y017970D01*
X005972Y017871D02*
X005349Y017871D01*
X005349Y017773D02*
X005920Y017773D01*
X005920Y017674D02*
X005349Y017674D01*
X005349Y017576D02*
X005920Y017576D01*
X005920Y017477D02*
X005349Y017477D01*
X005349Y017379D02*
X005920Y017379D01*
X005928Y017280D02*
X005349Y017280D01*
X005349Y017181D02*
X006026Y017181D01*
X006125Y017083D02*
X005349Y017083D01*
X005349Y016984D02*
X006085Y016984D01*
X005987Y016886D02*
X005349Y016886D01*
X005349Y016787D02*
X005920Y016787D01*
X005920Y016689D02*
X005349Y016689D01*
X005349Y016590D02*
X005920Y016590D01*
X005920Y016492D02*
X005349Y016492D01*
X005349Y016393D02*
X005920Y016393D01*
X005920Y016295D02*
X005349Y016295D01*
X005349Y016196D02*
X006012Y016196D01*
X006110Y016098D02*
X005349Y016098D01*
X005349Y015999D02*
X006100Y015999D01*
X006001Y015900D02*
X005349Y015900D01*
X005349Y015802D02*
X005920Y015802D01*
X005920Y015703D02*
X005349Y015703D01*
X005349Y015605D02*
X005920Y015605D01*
X005920Y015506D02*
X005349Y015506D01*
X005349Y015408D02*
X005920Y015408D01*
X005920Y015309D02*
X005349Y015309D01*
X005349Y015211D02*
X005997Y015211D01*
X006096Y015112D02*
X005349Y015112D01*
X005349Y015014D02*
X006115Y015014D01*
X006016Y014915D02*
X005349Y014915D01*
X005349Y014816D02*
X005920Y014816D01*
X005920Y014718D02*
X005349Y014718D01*
X005349Y014619D02*
X005920Y014619D01*
X005920Y014521D02*
X005349Y014521D01*
X005349Y014422D02*
X005920Y014422D01*
X005920Y014324D02*
X005349Y014324D01*
X005349Y014225D02*
X005983Y014225D01*
X006081Y014127D02*
X005349Y014127D01*
X005349Y014028D02*
X006129Y014028D01*
X006031Y013930D02*
X005349Y013930D01*
X005349Y013831D02*
X005932Y013831D01*
X005920Y013732D02*
X005349Y013732D01*
X005349Y013634D02*
X005920Y013634D01*
X005920Y013535D02*
X005349Y013535D01*
X005349Y013437D02*
X005920Y013437D01*
X005920Y013338D02*
X005349Y013338D01*
X005349Y013240D02*
X005968Y013240D01*
X006067Y013141D02*
X005349Y013141D01*
X005349Y013043D02*
X006165Y013043D01*
X006243Y012944D02*
X005349Y012944D01*
X005349Y012846D02*
X006145Y012846D01*
X006060Y012747D02*
X005349Y012747D01*
X005349Y012649D02*
X006060Y012649D01*
X006060Y012451D02*
X005349Y012451D01*
X005349Y012353D02*
X006060Y012353D01*
X006151Y012254D02*
X005349Y012254D01*
X005349Y012156D02*
X006250Y012156D01*
X006158Y012057D02*
X005349Y012057D01*
X005349Y011959D02*
X006060Y011959D01*
X005961Y011860D02*
X005349Y011860D01*
X005349Y011762D02*
X005920Y011762D01*
X005920Y011663D02*
X005349Y011663D01*
X005349Y011565D02*
X005920Y011565D01*
X005920Y011466D02*
X005349Y011466D01*
X005349Y011367D02*
X005920Y011367D01*
X005939Y011269D02*
X005349Y011269D01*
X005349Y011170D02*
X006037Y011170D01*
X006136Y011072D02*
X005349Y011072D01*
X005349Y010973D02*
X006074Y010973D01*
X005976Y010875D02*
X005349Y010875D01*
X005349Y010776D02*
X005920Y010776D01*
X005920Y010678D02*
X005349Y010678D01*
X005349Y010579D02*
X005920Y010579D01*
X005920Y010481D02*
X005349Y010481D01*
X005349Y010382D02*
X005920Y010382D01*
X005924Y010283D02*
X005349Y010283D01*
X005349Y010185D02*
X006023Y010185D01*
X006121Y010086D02*
X005349Y010086D01*
X005349Y009988D02*
X006089Y009988D01*
X005990Y009889D02*
X005349Y009889D01*
X005349Y009791D02*
X005920Y009791D01*
X005920Y009692D02*
X005349Y009692D01*
X005349Y009594D02*
X005920Y009594D01*
X005920Y009495D02*
X005349Y009495D01*
X005349Y009397D02*
X005920Y009397D01*
X005920Y009298D02*
X005349Y009298D01*
X005349Y009199D02*
X006008Y009199D01*
X006107Y009101D02*
X005349Y009101D01*
X005349Y009002D02*
X006205Y009002D01*
X005780Y008805D02*
X005349Y008805D01*
X005349Y008707D02*
X005682Y008707D01*
X005583Y008608D02*
X005349Y008608D01*
X005349Y008510D02*
X005484Y008510D01*
X005386Y008411D02*
X005349Y008411D01*
X005349Y008904D02*
X008690Y008904D01*
X008689Y009002D02*
X008420Y009002D01*
X008518Y009101D02*
X008690Y009101D01*
X008672Y009199D02*
X008718Y009199D01*
X008690Y008805D02*
X007339Y008805D01*
X007438Y008707D02*
X008690Y008707D01*
X008690Y008608D02*
X007536Y008608D01*
X007635Y008510D02*
X008690Y008510D01*
X008690Y008411D02*
X007733Y008411D01*
X007832Y008313D02*
X008690Y008313D01*
X008690Y008214D02*
X007930Y008214D01*
X008029Y008116D02*
X008677Y008116D01*
X008628Y008017D02*
X008127Y008017D01*
X008226Y007918D02*
X008578Y007918D01*
X008529Y007820D02*
X008324Y007820D01*
X008349Y007721D02*
X008480Y007721D01*
X008431Y007623D02*
X008349Y007623D01*
X008349Y007524D02*
X008381Y007524D01*
X007699Y009002D02*
X006914Y009002D01*
X007012Y009101D02*
X007601Y009101D01*
X007502Y009199D02*
X007111Y009199D01*
X007199Y009298D02*
X007415Y009298D01*
X007415Y009397D02*
X007199Y009397D01*
X007199Y009495D02*
X007415Y009495D01*
X007415Y009594D02*
X007199Y009594D01*
X007199Y009692D02*
X007415Y009692D01*
X007415Y009791D02*
X007199Y009791D01*
X007129Y009889D02*
X007484Y009889D01*
X007583Y009988D02*
X007030Y009988D01*
X006998Y010086D02*
X007516Y010086D01*
X007462Y010185D02*
X007096Y010185D01*
X007195Y010283D02*
X007450Y010283D01*
X007450Y010382D02*
X007199Y010382D01*
X007199Y010481D02*
X007450Y010481D01*
X007450Y010579D02*
X007199Y010579D01*
X007199Y010678D02*
X007450Y010678D01*
X007450Y010776D02*
X007199Y010776D01*
X007143Y010875D02*
X007450Y010875D01*
X007484Y010973D02*
X007045Y010973D01*
X006983Y011072D02*
X007568Y011072D01*
X007566Y011170D02*
X007082Y011170D01*
X007180Y011269D02*
X007467Y011269D01*
X007440Y011367D02*
X007199Y011367D01*
X007199Y011466D02*
X007440Y011466D01*
X007440Y011565D02*
X007199Y011565D01*
X007199Y011663D02*
X007440Y011663D01*
X007440Y011762D02*
X007199Y011762D01*
X007158Y011860D02*
X007490Y011860D01*
X007588Y011959D02*
X007059Y011959D01*
X006961Y012057D02*
X007687Y012057D01*
X007778Y012156D02*
X006869Y012156D01*
X006968Y012254D02*
X007680Y012254D01*
X007581Y012353D02*
X007059Y012353D01*
X007059Y012451D02*
X007580Y012451D01*
X007580Y012649D02*
X007059Y012649D01*
X007059Y012747D02*
X007580Y012747D01*
X007673Y012846D02*
X006974Y012846D01*
X006876Y012944D02*
X007758Y012944D01*
X007659Y013043D02*
X006954Y013043D01*
X007052Y013141D02*
X007560Y013141D01*
X007462Y013240D02*
X007151Y013240D01*
X007199Y013338D02*
X007415Y013338D01*
X007415Y013437D02*
X007199Y013437D01*
X007199Y013535D02*
X007415Y013535D01*
X007415Y013634D02*
X007199Y013634D01*
X007199Y013732D02*
X007415Y013732D01*
X007426Y013831D02*
X007187Y013831D01*
X007088Y013930D02*
X007525Y013930D01*
X007623Y014028D02*
X006990Y014028D01*
X007038Y014127D02*
X007539Y014127D01*
X007522Y014963D02*
X007055Y014963D01*
X006965Y015053D01*
X007096Y015185D01*
X007746Y015188D01*
X007522Y014963D01*
X007572Y015014D02*
X007004Y015014D01*
X007023Y015112D02*
X007671Y015112D01*
X008371Y015190D02*
X009342Y015193D01*
X009320Y015171D01*
X009320Y015020D01*
X008587Y015020D01*
X008554Y015006D01*
X008371Y015190D01*
X008448Y015112D02*
X009320Y015112D01*
X008571Y015014D02*
X008547Y015014D01*
X008029Y012550D02*
X006610Y012550D01*
X006509Y012550D02*
X005349Y012550D01*
X009049Y009520D02*
X009189Y009660D01*
X009239Y009710D01*
X009343Y009814D01*
X009399Y009950D01*
X009399Y010219D01*
X009458Y010414D01*
X009479Y010465D01*
X009479Y010484D01*
X009485Y010502D01*
X009935Y011993D01*
X010139Y011993D01*
X010139Y012223D01*
X010180Y012223D01*
X010180Y011993D01*
X010502Y011993D01*
X010589Y012081D01*
X010589Y012221D01*
X010759Y012192D01*
X010816Y012134D01*
X010923Y012090D01*
X011596Y012090D01*
X011596Y011568D01*
X009049Y009520D01*
X009123Y009594D02*
X009141Y009594D01*
X009222Y009692D02*
X009264Y009692D01*
X009320Y009791D02*
X009386Y009791D01*
X009374Y009889D02*
X009509Y009889D01*
X009399Y009988D02*
X009631Y009988D01*
X009754Y010086D02*
X009399Y010086D01*
X009399Y010185D02*
X009876Y010185D01*
X009999Y010283D02*
X009419Y010283D01*
X009449Y010382D02*
X010121Y010382D01*
X010244Y010481D02*
X009479Y010481D01*
X009485Y010502D02*
X009485Y010502D01*
X009508Y010579D02*
X010367Y010579D01*
X010489Y010678D02*
X009538Y010678D01*
X009568Y010776D02*
X010612Y010776D01*
X010734Y010875D02*
X009597Y010875D01*
X009627Y010973D02*
X010857Y010973D01*
X010979Y011072D02*
X009657Y011072D01*
X009687Y011170D02*
X011102Y011170D01*
X011224Y011269D02*
X009716Y011269D01*
X009746Y011367D02*
X011347Y011367D01*
X011469Y011466D02*
X009776Y011466D01*
X009806Y011565D02*
X011592Y011565D01*
X011596Y011663D02*
X009835Y011663D01*
X009865Y011762D02*
X011596Y011762D01*
X011596Y011860D02*
X009895Y011860D01*
X009924Y011959D02*
X011596Y011959D01*
X011596Y012057D02*
X010566Y012057D01*
X010589Y012156D02*
X010795Y012156D01*
X010180Y012156D02*
X010139Y012156D01*
X010139Y012057D02*
X010180Y012057D01*
X011861Y012649D02*
X012421Y012649D01*
X012322Y012747D02*
X011861Y012747D01*
X013091Y012353D02*
X013398Y012353D01*
X017566Y014718D02*
X019890Y014718D01*
X019860Y014816D02*
X017656Y014816D01*
X017745Y014915D02*
X019860Y014915D01*
X019778Y015014D02*
X017835Y015014D01*
X021353Y017970D02*
X022390Y017970D01*
X022390Y018068D02*
X021451Y018068D01*
X021550Y018167D02*
X021767Y018167D01*
X021669Y018265D02*
X021648Y018265D01*
X022019Y018265D02*
X022100Y018265D01*
X022100Y018167D02*
X022019Y018167D01*
X022019Y018364D02*
X022100Y018364D01*
X022100Y018463D02*
X022019Y018463D01*
X022100Y018561D02*
X022620Y018561D01*
X022690Y018660D02*
X022539Y018660D01*
X022533Y018758D02*
X022690Y018758D01*
X022690Y018857D02*
X022435Y018857D01*
X022338Y018955D02*
X022680Y018955D01*
X022614Y019054D02*
X022437Y019054D01*
X022535Y019152D02*
X022549Y019152D01*
X023110Y019645D02*
X023555Y019645D01*
X023555Y019744D02*
X023044Y019744D01*
X022978Y019842D02*
X023635Y019842D01*
X023734Y019941D02*
X022913Y019941D01*
X022847Y020039D02*
X023832Y020039D01*
X024021Y019448D02*
X024098Y019448D01*
X024098Y019349D02*
X024021Y019349D01*
X024021Y019251D02*
X024098Y019251D01*
X024098Y019152D02*
X024021Y019152D01*
X024021Y019054D02*
X024098Y019054D01*
X024098Y018955D02*
X024021Y018955D01*
X024021Y018857D02*
X024098Y018857D01*
X024098Y018758D02*
X024021Y018758D01*
X024021Y018660D02*
X024098Y018660D01*
X022390Y018167D02*
X022352Y018167D01*
X021107Y009791D02*
X019164Y009791D01*
X019216Y009692D02*
X020246Y009692D01*
X020098Y009594D02*
X019268Y009594D01*
X019319Y009495D02*
X020047Y009495D01*
X020036Y009397D02*
X019371Y009397D01*
X019423Y009298D02*
X020036Y009298D01*
X020036Y009199D02*
X019479Y009199D01*
X019522Y009101D02*
X020036Y009101D01*
X020036Y009002D02*
X019531Y009002D01*
X019529Y008904D02*
X020036Y008904D01*
X020036Y008805D02*
X019529Y008805D01*
X019529Y008707D02*
X020036Y008707D01*
X020052Y008608D02*
X019529Y008608D01*
X019529Y008510D02*
X020106Y008510D01*
X020040Y008411D02*
X019934Y008411D01*
X019959Y008313D02*
X020020Y008313D01*
X020020Y008214D02*
X019959Y008214D01*
X019959Y008116D02*
X020020Y008116D01*
X020020Y008017D02*
X019959Y008017D01*
X019959Y008023D02*
X019959Y007701D01*
X019872Y007613D01*
X019690Y007613D01*
X019690Y008023D01*
X019959Y008023D01*
X019959Y007918D02*
X020020Y007918D01*
X020020Y007820D02*
X019959Y007820D01*
X019959Y007721D02*
X020030Y007721D01*
X020080Y007623D02*
X019881Y007623D01*
X019690Y007623D02*
X019649Y007623D01*
X019649Y007721D02*
X019690Y007721D01*
X019690Y007820D02*
X019649Y007820D01*
X019649Y007918D02*
X019690Y007918D01*
X019690Y008017D02*
X019649Y008017D01*
X019649Y008116D02*
X019690Y008116D01*
X019690Y008214D02*
X019649Y008214D01*
X019649Y008313D02*
X019690Y008313D01*
X019690Y008411D02*
X019649Y008411D01*
X019552Y007524D02*
X020062Y007524D01*
X020036Y007426D02*
X019594Y007426D01*
X019635Y007327D02*
X020036Y007327D01*
X020036Y007229D02*
X019677Y007229D01*
X019888Y007130D02*
X020036Y007130D01*
X020036Y007032D02*
X019986Y007032D01*
X024046Y007623D02*
X026270Y007623D01*
X026270Y007721D02*
X024046Y007721D01*
X024046Y007820D02*
X026270Y007820D01*
X026270Y007918D02*
X024046Y007918D01*
X024042Y008017D02*
X026270Y008017D01*
D37*
X012710Y013123D03*
X012260Y013603D03*
X012240Y014673D03*
X010060Y015403D03*
D38*
X006560Y021763D03*
X006560Y007053D03*
X025050Y021763D03*
M02*
